<svg xmlns="http://www.w3.org/2000/svg" viewBox="0 0 325 213.98"><defs><style>.cls-1{fill:#23272a;}.cls-10,.cls-15,.cls-2,.cls-7{font-size:12px;}.cls-11,.cls-15,.cls-2,.cls-3,.cls-7{fill:#fff;}.cls-2,.cls-3{font-family:Montserrat-Bold, Montserrat;font-weight:700;}.cls-3{font-size:16px;}.cls-4{letter-spacing:0.01em;}.cls-5{letter-spacing:-0.01em;}.cls-6{letter-spacing:0em;}.cls-7{font-family:Montserrat-Italic, Montserrat;font-style:italic;}.cls-8{letter-spacing:0em;}.cls-9{letter-spacing:-0.01em;}.cls-10{font-family:MyriadPro-Regular, Myriad Pro;}.cls-11{font-size:8px;}.cls-11,.cls-15{font-family:Montserrat-Regular, Montserrat;}.cls-12{letter-spacing:0.02em;}.cls-13{letter-spacing:-0.02em;}.cls-14{fill:#7289da;}.cls-16{fill:#ef476f;}.cls-17{letter-spacing:-0.06em;}.cls-18{fill:#15191c;}.cls-19{letter-spacing:0em;}</style></defs><g id="Camada_2" data-name="Camada 2"><g id="Camada_1-2" data-name="Camada 1"><rect class="cls-1" width="325" height="205.24" rx="12"/><text class="cls-2" transform="translate(70.94 32.53)">Rhaast</text><text class="cls-3" transform="translate(31.97 70.85)">Bala<tspan class="cls-4" x="36.8" y="0">n</tspan><tspan class="cls-5" x="47.95" y="0">c</tspan><tspan class="cls-6" x="57.29" y="0">e</tspan></text><text class="cls-7" transform="translate(103.68 92.25)">‘s bala<tspan class="cls-8" x="39.19" y="0">n</tspan><tspan class="cls-9" x="47.34" y="0">c</tspan><tspan x="53.99" y="0" xml:space="preserve">e:  </tspan></text><text class="cls-10" transform="translate(122.18 210.98)"> </text><text class="cls-11" transform="translate(31.97 187.46)">Se<tspan class="cls-12" x="9.75" y="0">r</tspan><tspan class="cls-13" x="13.08" y="0">v</tspan><tspan x="17.3" y="0">er na</tspan><tspan class="cls-8" x="37.57" y="0">m</tspan><tspan x="46.07" y="0">e • Hoje às 16:40</tspan></text><rect class="cls-14" x="32.44" y="79.1" width="69.53" height="18.71" rx="4"/><text class="cls-15" transform="translate(34.79 91.96)">@Member</text><circle class="cls-16" cx="43.63" cy="27.03" r="12"/><text class="cls-2" transform="translate(32.44 123.29)"><tspan class="cls-17">W</tspan><tspan x="13.3" y="0">allet</tspan></text><rect class="cls-18" x="32.44" y="131.51" width="90" height="34.35" rx="4"/><text class="cls-15" transform="translate(40.47 153.48)">$ <tspan class="cls-19" x="10.52" y="0">2</tspan><tspan x="17.29" y="0">050</tspan></text><text class="cls-2" transform="translate(154.41 122.79)">Bank</text><rect class="cls-18" x="154.41" y="131.01" width="90" height="34.35" rx="4"/><text class="cls-15" transform="translate(162.44 151.98)">$ 1230</text><path class="cls-16" d="M.09,12V193.24a12,12,0,0,0,12,12V0A12,12,0,0,0,.09,12Z"/></g></g></svg>