<svg xmlns="http://www.w3.org/2000/svg" viewBox="0 0 325 306.35"><defs><style>.cls-1{fill:#23272a;}.cls-2,.cls-26,.cls-28,.cls-5{font-size:12px;}.cls-2,.cls-28,.cls-29,.cls-4,.cls-5{fill:#fff;}.cls-2{font-family:Montserrat-Bold, Montserrat;font-weight:700;}.cls-3{fill:#4fd1d9;}.cls-5{font-family:Montserrat-Italic, Montserrat;font-style:italic;}.cls-6{letter-spacing:-0.02em;}.cls-7{letter-spacing:0em;}.cls-8{letter-spacing:-0.01em;}.cls-9{letter-spacing:-0.01em;}.cls-10{letter-spacing:0.02em;}.cls-11{letter-spacing:0.03em;}.cls-12{letter-spacing:-0.01em;}.cls-13{letter-spacing:0em;}.cls-14{fill:#d0d0d0;}.cls-15{fill:#4e5c66;}.cls-16{fill:#647a87;}.cls-17{fill:#d2d3d5;}.cls-18{fill:#ed4c5c;}.cls-19{fill:#3e4347;}.cls-20{fill:#e8e8e8;}.cls-21{fill:#f5f5f5;}.cls-22{fill:#333;}.cls-23{letter-spacing:-0.01em;}.cls-24{letter-spacing:-0.02em;}.cls-25{letter-spacing:0em;}.cls-26{font-family:MyriadPro-Regular, Myriad Pro;}.cls-27{fill:#7289da;}.cls-28,.cls-29{font-family:Montserrat-Regular, Montserrat;}.cls-29{font-size:8px;}.cls-30{letter-spacing:0.02em;}.cls-31{letter-spacing:-0.02em;}.cls-32{letter-spacing:0em;}.cls-33{fill:#ef476f;}</style></defs><g id="Camada_2" data-name="Camada 2"><g id="Camada_1-2" data-name="Camada 1"><rect class="cls-1" width="325" height="306.35" rx="12"/><text class="cls-2" transform="translate(71 32.63)">Rhaast</text><circle class="cls-3" cx="40.03" cy="65.35" r="7.5"/><path class="cls-4" d="M41.53,69.35H40V63.6a5.18,5.18,0,0,1-2,1.15V63.37a4.51,4.51,0,0,0,1.3-.74,2.79,2.79,0,0,0,1-1.28h1.24Z"/><path class="cls-4" d="M52.56,59.08h2.29v15H52.56Z"/><path class="cls-4" d="M69.6,65.18H72v4.54a6.91,6.91,0,0,1-2.12,1.06,8.33,8.33,0,0,1-2.41.36,6.53,6.53,0,0,1-3.14-.74,5.55,5.55,0,0,1-2.18-2.06,6,6,0,0,1,0-6,5.56,5.56,0,0,1,2.2-2.07,6.74,6.74,0,0,1,3.17-.74,6.94,6.94,0,0,1,2.67.5,5.23,5.23,0,0,1,2,1.44L70.51,63a3.85,3.85,0,0,0-2.9-1.26,4,4,0,0,0-1.9.45,3.28,3.28,0,0,0-1.3,1.26,4,4,0,0,0,0,3.73,3.28,3.28,0,0,0,1.29,1.27,3.88,3.88,0,0,0,1.88.46,4.22,4.22,0,0,0,2-.48Z"/><path class="cls-4" d="M82.86,62.34V71H80.49v-1a3.22,3.22,0,0,1-1.18.85,4.06,4.06,0,0,1-4.18-.68,3.88,3.88,0,0,1-1-2.89V62.34h2.5v4.5c0,1.39.58,2.08,1.74,2.08a1.86,1.86,0,0,0,1.44-.58,2.44,2.44,0,0,0,.55-1.74V62.34Z"/><path class="cls-4" d="M93.57,67.35H87.06a2,2,0,0,0,.83,1.27,2.73,2.73,0,0,0,1.63.46,3.37,3.37,0,0,0,1.19-.2,2.79,2.79,0,0,0,1-.63L93,69.69a4.47,4.47,0,0,1-3.56,1.39,5.59,5.59,0,0,1-2.57-.57,4.19,4.19,0,0,1-1.73-1.57,4.62,4.62,0,0,1,0-4.57,4.21,4.21,0,0,1,1.65-1.59,4.93,4.93,0,0,1,2.34-.56,4.81,4.81,0,0,1,2.29.54A4,4,0,0,1,93,64.32a4.64,4.64,0,0,1,.58,2.36S93.6,66.94,93.57,67.35Zm-5.84-2.77A2.05,2.05,0,0,0,87,65.9h4.24a2.06,2.06,0,0,0-.7-1.31,2.31,2.31,0,0,0-2.83,0Z"/><path class="cls-4" d="M96.08,70.82a5.44,5.44,0,0,1-1.63-.67l.83-1.79a4.94,4.94,0,0,0,1.39.6,6,6,0,0,0,1.6.23c1.06,0,1.58-.26,1.58-.78a.55.55,0,0,0-.43-.53,5.94,5.94,0,0,0-1.33-.27,13.2,13.2,0,0,1-1.74-.37,2.61,2.61,0,0,1-1.19-.74,2.07,2.07,0,0,1-.51-1.5,2.34,2.34,0,0,1,.48-1.45,3,3,0,0,1,1.37-1,5.78,5.78,0,0,1,2.14-.35,7.91,7.91,0,0,1,1.81.2A4.76,4.76,0,0,1,102,63l-.83,1.77a5.06,5.06,0,0,0-2.48-.64,2.47,2.47,0,0,0-1.2.23.65.65,0,0,0-.4.57.56.56,0,0,0,.43.56,7.69,7.69,0,0,0,1.38.31,15.83,15.83,0,0,1,1.72.37,2.67,2.67,0,0,1,1.17.73,2.06,2.06,0,0,1,.5,1.47,2.28,2.28,0,0,1-.48,1.43,3.14,3.14,0,0,1-1.4,1,6.26,6.26,0,0,1-2.19.34A8.61,8.61,0,0,1,96.08,70.82Z"/><path class="cls-4" d="M104.57,70.82a5.56,5.56,0,0,1-1.63-.67l.83-1.79a5,5,0,0,0,1.4.6,6,6,0,0,0,1.6.23c1,0,1.58-.26,1.58-.78a.55.55,0,0,0-.43-.53,5.94,5.94,0,0,0-1.33-.27,13.2,13.2,0,0,1-1.74-.37,2.69,2.69,0,0,1-1.2-.74,2.11,2.11,0,0,1-.5-1.5,2.4,2.4,0,0,1,.47-1.45,3.06,3.06,0,0,1,1.38-1,5.73,5.73,0,0,1,2.13-.35,8,8,0,0,1,1.82.2,5,5,0,0,1,1.5.55l-.84,1.77a5,5,0,0,0-2.48-.64,2.52,2.52,0,0,0-1.2.23.67.67,0,0,0-.4.57.57.57,0,0,0,.44.56,7.33,7.33,0,0,0,1.37.31,16.09,16.09,0,0,1,1.73.37,2.67,2.67,0,0,1,1.17.73,2.06,2.06,0,0,1,.49,1.47,2.28,2.28,0,0,1-.48,1.43,3.08,3.08,0,0,1-1.4,1,6.2,6.2,0,0,1-2.18.34A8.75,8.75,0,0,1,104.57,70.82Z"/><text class="cls-5" transform="translate(32.03 92.33)">Quem <tspan class="cls-6" x="41.27" y="0">v</tspan><tspan x="47.59" y="0">e</tspan><tspan class="cls-7" x="54.84" y="0">n</tspan><tspan class="cls-8" x="62.99" y="0">c</tspan><tspan x="69.63" y="0">e</tspan><tspan class="cls-9" x="76.88" y="0">r</tspan><tspan x="81.54" y="0">á a pa</tspan><tspan class="cls-10" x="120.37" y="0">r</tspan><tspan x="125.36" y="0">tid</tspan><tspan class="cls-11" x="141.6" y="0">a</tspan><tspan x="150.06" y="0">?</tspan></text><text class="cls-2" transform="translate(32.03 120.21)">Du<tspan class="cls-12" x="18.16" y="0">r</tspan><tspan class="cls-13" x="23.24" y="0">ation</tspan></text><path class="cls-14" d="M38,130.55a.81.81,0,1,1,.8-.8A.8.8,0,0,1,38,130.55Zm0-1.93a1.13,1.13,0,1,0,1.13,1.13A1.13,1.13,0,0,0,38,128.62Z"/><rect class="cls-15" x="37.75" y="130.24" width="0.56" height="1.23"/><path class="cls-16" d="M38.5,130.81h-.94v-1.07c0-.29.94-.29.94,0Z"/><rect class="cls-15" x="34.2" y="132.11" width="0.79" height="0.79" transform="translate(-83.58 63.31) rotate(-45.02)"/><path class="cls-16" d="M35,131.92l-.94.94-.58-.58a.29.29,0,0,1,0-.42l.52-.53a.31.31,0,0,1,.42,0Z"/><rect class="cls-15" x="41.07" y="132.11" width="0.79" height="0.79" transform="translate(-81.55 68.13) rotate(-45)"/><path class="cls-16" d="M42.05,132.86l-.94-.94.58-.59a.31.31,0,0,1,.42,0l.52.53a.29.29,0,0,1,0,.42Z"/><circle class="cls-16" cx="38.03" cy="135.94" r="4.69"/><circle class="cls-17" cx="38.03" cy="135.94" r="4.06"/><circle class="cls-4" cx="38.03" cy="135.94" r="3.75"/><path class="cls-18" d="M41.78,135.94a3.72,3.72,0,0,1-1.08,2.63L38,135.94v-3.75A3.74,3.74,0,0,1,41.78,135.94Z"/><polygon class="cls-19" points="40.18 138.07 38.27 135.8 37.9 136.18 40.18 138.07"/><rect class="cls-19" x="37.9" y="132.5" width="0.26" height="1.06"/><rect class="cls-19" x="37.9" y="138.31" width="0.26" height="1.06"/><rect class="cls-19" x="34.59" y="135.8" width="1.06" height="0.26"/><rect class="cls-19" x="40.41" y="135.8" width="1.06" height="0.26"/><rect class="cls-19" x="36.31" y="132.92" width="0.26" height="0.53" transform="translate(-61.7 36.05) rotate(-29.99)"/><rect class="cls-19" x="35.15" y="134.08" width="0.26" height="0.53" transform="translate(-98.7 97.71) rotate(-59.99)"/><rect class="cls-19" x="35.02" y="137.39" width="0.53" height="0.26" transform="translate(-64.11 36.14) rotate(-30.04)"/><rect class="cls-19" x="36.18" y="138.55" width="0.53" height="0.26" transform="matrix(0.5, -0.87, 0.87, 0.5, -101.87, 100.87)"/><rect class="cls-19" x="39.48" y="138.42" width="0.26" height="0.53" transform="matrix(0.87, -0.5, 0.5, 0.87, -64.05, 38.41)"/><rect class="cls-19" x="40.65" y="137.26" width="0.26" height="0.53" transform="translate(-98.69 104) rotate(-59.97)"/><rect class="cls-19" x="40.51" y="134.22" width="0.53" height="0.26" transform="translate(-61.74 38.42) rotate(-30.02)"/><rect class="cls-19" x="39.35" y="133.06" width="0.53" height="0.26" transform="translate(-95.52 100.83) rotate(-59.97)"/><circle class="cls-19" cx="38.03" cy="135.94" r="0.53"/><path class="cls-4" d="M49.38,130.42v8.4h-.86v-7.63h-2v-.77Z"/><path class="cls-4" d="M57.42,135.21a2,2,0,0,1,.42,1.27,2.13,2.13,0,0,1-.39,1.28,2.48,2.48,0,0,1-1.14.84,4.58,4.58,0,0,1-1.73.29,3.91,3.91,0,0,1-2.38-.64,2.1,2.1,0,0,1-.86-1.77,2,2,0,0,1,.41-1.27,2.54,2.54,0,0,1,1.21-.79,2.15,2.15,0,0,1-1-.73,2,2,0,0,1,.47-2.74,3.46,3.46,0,0,1,2.14-.6,4.09,4.09,0,0,1,1.55.27,2.37,2.37,0,0,1,1,.77,1.93,1.93,0,0,1,.37,1.18,1.78,1.78,0,0,1-.35,1.12,2.15,2.15,0,0,1-1,.73A2.62,2.62,0,0,1,57.42,135.21Zm-1.1,2.5a1.46,1.46,0,0,0,.63-1.24,1.43,1.43,0,0,0-.63-1.23,3.59,3.59,0,0,0-3.48,0,1.53,1.53,0,0,0,0,2.47,2.91,2.91,0,0,0,1.74.45A3,3,0,0,0,56.32,137.71Zm-3.27-4a3.06,3.06,0,0,0,3.06,0,1.36,1.36,0,0,0,0-2.21,2.58,2.58,0,0,0-1.52-.41,2.54,2.54,0,0,0-1.52.41,1.38,1.38,0,0,0,0,2.21Z"/><path class="cls-4" d="M60.66,138.38a3.34,3.34,0,0,1-1.19-1.48,6.23,6.23,0,0,1,0-4.55,3.34,3.34,0,0,1,1.19-1.48,3.14,3.14,0,0,1,3.46,0,3.43,3.43,0,0,1,1.2,1.48,6.23,6.23,0,0,1,0,4.55,3.43,3.43,0,0,1-1.2,1.48,3.19,3.19,0,0,1-3.46,0Zm3-.68a2.72,2.72,0,0,0,.87-1.19,5.89,5.89,0,0,0,0-3.77,2.66,2.66,0,0,0-.87-1.19,2.23,2.23,0,0,0-2.58,0,2.66,2.66,0,0,0-.87,1.19,5.89,5.89,0,0,0,0,3.77,2.72,2.72,0,0,0,.87,1.19,2.28,2.28,0,0,0,2.58,0Z"/><text class="cls-2" transform="translate(32.03 166.86)">Options</text><path class="cls-14" d="M43.39,185.53c.22-.47.32-.89.22-.93s-.18.09-.31.29l-1.52-2.62-4.13-3.64-1-.16c.27-.16.45-.31.42-.38s-.47,0-.93.22-.82.47-.77.57.13.05.29,0c-.28.47-1.67,2.9-1.67,2.9l-.36,4.78.21.21c-.11-.06-.19-.09-.23-.06s.16.44.53.8.72.6.8.53,0-.15-.11-.3l3,.49,4.33-1.6.68-.77c-.07.23-.09.4,0,.42S43.17,186,43.39,185.53Z"/><path class="cls-20" d="M40.3,188.88a1.7,1.7,0,0,1-1.54.36l-3.7-1.12c-.5-.15-.63-.56-.28-.91l2.57-2.57a1.71,1.71,0,0,1,1.55-.35l3.69,1.11c.51.16.63.56.28.91Z"/><path class="cls-20" d="M32.82,181.4a1.7,1.7,0,0,0-.36,1.54l1.12,3.7c.15.5.56.63.91.28l2.57-2.57a1.67,1.67,0,0,0,.35-1.54l-1.11-3.7c-.15-.5-.56-.63-.91-.28Z"/><path class="cls-21" d="M42.34,180.62a2.24,2.24,0,0,0-1.26-1.25l-3.83-1.27c-.52-.18-.8.11-.63.63l1.27,3.83a2.2,2.2,0,0,0,1.25,1.25L43,185.08c.52.17.8-.11.63-.63Z"/><path class="cls-18" d="M39.74,181.07a.24.24,0,0,0-.26.15c-.06.2.18.53.53.74a1,1,0,0,0,.47.15.24.24,0,0,0,.26-.15c.06-.21-.17-.54-.52-.74A1,1,0,0,0,39.74,181.07Z"/><path class="cls-22" d="M37.47,186.8c.13,0,.21.12.2.23s-.34.44-.74.52a1,1,0,0,1-.5,0c-.12,0-.2-.12-.19-.23s.34-.44.74-.52A.87.87,0,0,1,37.47,186.8Z"/><path class="cls-22" d="M39.39,186.37c.12,0,.2.12.19.23s-.34.44-.74.52a1,1,0,0,1-.49,0,.24.24,0,0,1-.2-.23c0-.21.34-.44.74-.52A.91.91,0,0,1,39.39,186.37Z"/><path class="cls-22" d="M41.22,186c.13,0,.2.13.2.23s-.35.45-.74.52a1,1,0,0,1-.5,0c-.13,0-.2-.13-.2-.23s.35-.45.74-.52A1,1,0,0,1,41.22,186Z"/><path class="cls-22" d="M36,182.56a.25.25,0,0,1,.3,0c.17.12.19.53,0,.9a1.18,1.18,0,0,1-.28.42.25.25,0,0,1-.3,0c-.18-.13-.2-.53-.05-.9A1.09,1.09,0,0,1,36,182.56Z"/><path class="cls-22" d="M33.84,181.91a.25.25,0,0,1,.3,0c.17.13.19.53,0,.9a1,1,0,0,1-.28.42.23.23,0,0,1-.29,0c-.18-.13-.2-.53,0-.9A1.09,1.09,0,0,1,33.84,181.91Z"/><path class="cls-4" d="M49.2,187.39a4.05,4.05,0,0,1-1.57-1.53,4.49,4.49,0,0,1,0-4.38A4.05,4.05,0,0,1,49.2,180a4.95,4.95,0,0,1,4-.24,3.59,3.59,0,0,1,1.34.91l-.56.57a3.35,3.35,0,0,0-2.49-1,3.61,3.61,0,0,0-1.81.46,3.39,3.39,0,0,0-1.28,1.24,3.67,3.67,0,0,0,0,3.56,3.39,3.39,0,0,0,1.28,1.24,3.61,3.61,0,0,0,1.81.46,3.32,3.32,0,0,0,2.49-1l.56.57a3.62,3.62,0,0,1-1.35.91,4.48,4.48,0,0,1-1.73.32A4.57,4.57,0,0,1,49.2,187.39Z"/><path class="cls-4" d="M56.91,187.52a3.12,3.12,0,0,1-1.16-1.15,3.47,3.47,0,0,1,0-3.31,3,3,0,0,1,1.16-1.14,3.33,3.33,0,0,1,1.64-.41,3.36,3.36,0,0,1,1.65.41,2.91,2.91,0,0,1,1.14,1.14,3.55,3.55,0,0,1,0,3.31,3,3,0,0,1-1.14,1.15,3.36,3.36,0,0,1-1.65.41A3.33,3.33,0,0,1,56.91,187.52Zm2.85-.65a2.24,2.24,0,0,0,.83-.87,2.73,2.73,0,0,0,.3-1.29,2.69,2.69,0,0,0-.3-1.28,2.11,2.11,0,0,0-.83-.87,2.52,2.52,0,0,0-2.42,0,2.2,2.2,0,0,0-.84.87,2.69,2.69,0,0,0-.3,1.28,2.73,2.73,0,0,0,.3,1.29,2.34,2.34,0,0,0,.84.87,2.59,2.59,0,0,0,2.42,0Z"/><path class="cls-4" d="M65.21,181.83a3.08,3.08,0,0,1,1.47-.32v.83h-.21a2,2,0,0,0-1.56.61,2.46,2.46,0,0,0-.56,1.71v3.22H63.5v-6.31h.81v1.23A2.09,2.09,0,0,1,65.21,181.83Z"/><path class="cls-4" d="M68.2,180a.6.6,0,0,1-.18-.43.58.58,0,0,1,.18-.42.65.65,0,0,1,.89,0,.55.55,0,0,1,.18.41.62.62,0,0,1-.63.63A.6.6,0,0,1,68.2,180Zm0,1.56h.85v6.31h-.85Z"/><path class="cls-4" d="M76.54,182.2a2.69,2.69,0,0,1,.71,2v3.66h-.86v-3.58a2.1,2.1,0,0,0-.49-1.5,1.84,1.84,0,0,0-1.4-.51,2.19,2.19,0,0,0-1.62.6,2.34,2.34,0,0,0-.59,1.68v3.31h-.85v-6.31h.81v1.16a2.45,2.45,0,0,1,1-.89,3.12,3.12,0,0,1,1.44-.32A2.55,2.55,0,0,1,76.54,182.2Z"/><path class="cls-4" d="M82.89,187.49a1.73,1.73,0,0,1-.6.33,2.55,2.55,0,0,1-.74.11,1.67,1.67,0,0,1-1.84-1.84v-3.81H78.58v-.72h1.13v-1.38h.85v1.38h1.92v.72H80.56v3.77a1.16,1.16,0,0,0,.28.85,1.06,1.06,0,0,0,.81.3,1.44,1.44,0,0,0,.51-.09,1.07,1.07,0,0,0,.43-.24Z"/><path class="cls-4" d="M89.54,182.2a2.69,2.69,0,0,1,.7,2v3.66h-.85v-3.58a2.1,2.1,0,0,0-.49-1.5,1.87,1.87,0,0,0-1.4-.51,2.19,2.19,0,0,0-1.62.6,2.34,2.34,0,0,0-.59,1.68v3.31h-.85V179h.85v3.69a2.27,2.27,0,0,1,1-.85,3.13,3.13,0,0,1,1.4-.3A2.59,2.59,0,0,1,89.54,182.2Z"/><path class="cls-4" d="M92.55,180a.6.6,0,0,1-.18-.43.58.58,0,0,1,.18-.42A.59.59,0,0,1,93,179a.58.58,0,0,1,.44.17.55.55,0,0,1,.18.41.61.61,0,0,1-.18.45.63.63,0,0,1-.88,0Zm0,1.56h.85v6.31h-.85Z"/><path class="cls-4" d="M99.89,182.13a2.38,2.38,0,0,1,.66,1.83v3.91h-.82v-1a2,2,0,0,1-.84.76,2.9,2.9,0,0,1-1.33.28,2.65,2.65,0,0,1-1.68-.5,1.65,1.65,0,0,1-.62-1.34,1.61,1.61,0,0,1,.58-1.29,2.84,2.84,0,0,1,1.85-.49h2v-.39a1.59,1.59,0,0,0-.46-1.24,1.9,1.9,0,0,0-1.33-.43,3.43,3.43,0,0,0-1.15.2,2.86,2.86,0,0,0-1,.55l-.38-.64a3.45,3.45,0,0,1,1.15-.63,4.44,4.44,0,0,1,1.42-.22A2.67,2.67,0,0,1,99.89,182.13Zm-1,4.8a2,2,0,0,0,.77-1v-1h-2c-1.08,0-1.62.38-1.62,1.13a1,1,0,0,0,.42.87,1.91,1.91,0,0,0,1.17.32A2.25,2.25,0,0,0,98.93,186.93Z"/><path class="cls-4" d="M108,182.2a2.69,2.69,0,0,1,.7,2v3.66h-.85v-3.58a2.1,2.1,0,0,0-.49-1.5,1.87,1.87,0,0,0-1.4-.51,2.19,2.19,0,0,0-1.62.6,2.34,2.34,0,0,0-.59,1.68v3.31h-.85v-6.31h.81v1.16a2.39,2.39,0,0,1,1-.89,3.11,3.11,0,0,1,1.43-.32A2.59,2.59,0,0,1,108,182.2Z"/><path class="cls-4" d="M111.21,187.71a3.42,3.42,0,0,1-1.1-.56l.39-.67a3,3,0,0,0,1,.51,3.93,3.93,0,0,0,1.24.2,2.37,2.37,0,0,0,1.28-.27.86.86,0,0,0,.41-.77.67.67,0,0,0-.22-.54,1.68,1.68,0,0,0-.58-.3,7,7,0,0,0-.92-.2,11.15,11.15,0,0,1-1.24-.29,1.83,1.83,0,0,1-.8-.51,1.44,1.44,0,0,1-.33-1A1.57,1.57,0,0,1,111,182a3,3,0,0,1,1.84-.5,4.65,4.65,0,0,1,1.22.16,3.27,3.27,0,0,1,1,.43l-.37.68a3.19,3.19,0,0,0-1.86-.54,2.15,2.15,0,0,0-1.23.29.87.87,0,0,0-.42.76.72.72,0,0,0,.24.57,1.36,1.36,0,0,0,.58.32,8.23,8.23,0,0,0,1,.21,10.93,10.93,0,0,1,1.21.29,1.68,1.68,0,0,1,.78.49,1.33,1.33,0,0,1,.33,1,1.52,1.52,0,0,1-.69,1.31,3.25,3.25,0,0,1-1.92.49A4.8,4.8,0,0,1,111.21,187.71Z"/><path class="cls-14" d="M43.39,205.37c.22-.46.32-.88.22-.93s-.18.1-.31.3l-1.52-2.62-4.13-3.64-1-.16c.27-.16.45-.31.42-.38s-.47,0-.93.22-.82.47-.77.57.13.05.29,0c-.28.47-1.67,2.9-1.67,2.9l-.36,4.78.21.21c-.11-.06-.19-.09-.23-.06s.16.44.53.8.72.6.8.53,0-.15-.11-.3l3,.49,4.33-1.6.68-.77c-.07.23-.09.4,0,.42S43.17,205.84,43.39,205.37Z"/><path class="cls-20" d="M40.3,208.73a1.7,1.7,0,0,1-1.54.36L35.06,208c-.5-.15-.63-.56-.28-.91l2.57-2.57a1.68,1.68,0,0,1,1.55-.35l3.69,1.11c.51.15.63.56.28.91Z"/><path class="cls-20" d="M32.82,201.25a1.7,1.7,0,0,0-.36,1.54l1.12,3.7c.15.5.56.63.91.28l2.57-2.57a1.67,1.67,0,0,0,.35-1.54L36.3,199c-.15-.51-.56-.63-.91-.28Z"/><path class="cls-21" d="M42.34,200.47a2.29,2.29,0,0,0-1.26-1.26l-3.83-1.27c-.52-.17-.8.11-.63.64l1.27,3.83a2.2,2.2,0,0,0,1.25,1.25L43,204.93c.52.17.8-.11.63-.63Z"/><path class="cls-18" d="M39.74,200.92a.24.24,0,0,0-.26.15c-.06.2.18.53.53.74a1,1,0,0,0,.47.15.24.24,0,0,0,.26-.15c.06-.21-.17-.54-.52-.74A1,1,0,0,0,39.74,200.92Z"/><path class="cls-22" d="M37.47,206.65c.13,0,.21.12.2.23s-.34.44-.74.52a1,1,0,0,1-.5,0c-.12,0-.2-.12-.19-.23s.34-.44.74-.52A.87.87,0,0,1,37.47,206.65Z"/><path class="cls-22" d="M39.39,206.22c.12,0,.2.12.19.23s-.34.44-.74.52a1,1,0,0,1-.49,0,.24.24,0,0,1-.2-.23c0-.21.34-.44.74-.52A.91.91,0,0,1,39.39,206.22Z"/><path class="cls-22" d="M41.22,205.84c.13,0,.2.13.2.23s-.35.45-.74.52a1,1,0,0,1-.5,0c-.13-.05-.2-.13-.2-.23s.35-.45.74-.52A1,1,0,0,1,41.22,205.84Z"/><path class="cls-22" d="M36,202.41a.25.25,0,0,1,.3,0c.17.12.19.53,0,.9a1,1,0,0,1-.28.41c-.11.09-.22.11-.3,0s-.2-.53-.05-.91A1.13,1.13,0,0,1,36,202.41Z"/><path class="cls-22" d="M33.84,201.76a.25.25,0,0,1,.3,0c.17.12.19.53,0,.9a1,1,0,0,1-.28.42.23.23,0,0,1-.29,0c-.18-.13-.2-.53,0-.9A1.09,1.09,0,0,1,33.84,201.76Z"/><path class="cls-4" d="M53.46,200.09a2.88,2.88,0,0,1,0,4.22,3.83,3.83,0,0,1-2.52.76H48.69v2.65H47.8v-8.4h3.14A3.78,3.78,0,0,1,53.46,200.09Zm-.63,3.65a1.89,1.89,0,0,0,.66-1.54,1.93,1.93,0,0,0-.66-1.57,3,3,0,0,0-1.91-.54H48.69v4.2h2.23A2.9,2.9,0,0,0,52.83,203.74Z"/><path class="cls-4" d="M60.16,202a2.38,2.38,0,0,1,.66,1.83v3.91H60v-1a2,2,0,0,1-.84.76,2.9,2.9,0,0,1-1.33.28,2.65,2.65,0,0,1-1.68-.5,1.65,1.65,0,0,1-.62-1.34,1.61,1.61,0,0,1,.58-1.29,2.84,2.84,0,0,1,1.85-.49h2v-.39a1.59,1.59,0,0,0-.46-1.24,1.9,1.9,0,0,0-1.33-.43,3.43,3.43,0,0,0-1.15.2,2.86,2.86,0,0,0-1,.55l-.38-.64a3.35,3.35,0,0,1,1.15-.63,4.38,4.38,0,0,1,1.41-.22A2.68,2.68,0,0,1,60.16,202Zm-1,4.8a2,2,0,0,0,.77-1v-1H58c-1.08,0-1.62.38-1.62,1.13a1,1,0,0,0,.42.87,1.91,1.91,0,0,0,1.17.32A2.25,2.25,0,0,0,59.2,206.78Z"/><path class="cls-4" d="M63.14,198.82H64v8.9h-.85Z"/><path class="cls-4" d="M76.1,202a2.77,2.77,0,0,1,.68,2v3.66h-.85v-3.58a2.15,2.15,0,0,0-.48-1.5,1.72,1.72,0,0,0-1.33-.51,2,2,0,0,0-1.55.6,2.37,2.37,0,0,0-.57,1.68v3.31h-.85v-3.58a2.19,2.19,0,0,0-.47-1.5,1.76,1.76,0,0,0-1.35-.51,2,2,0,0,0-1.54.6,2.34,2.34,0,0,0-.58,1.68v3.31h-.85v-6.31h.82v1.15a2.25,2.25,0,0,1,.94-.89,2.87,2.87,0,0,1,1.38-.31,2.65,2.65,0,0,1,1.37.34,2,2,0,0,1,.87,1,2.48,2.48,0,0,1,1-1,3.15,3.15,0,0,1,1.49-.35A2.52,2.52,0,0,1,76.1,202Z"/><path class="cls-4" d="M84.61,204.83H79.33a2.27,2.27,0,0,0,.76,1.59,2.53,2.53,0,0,0,1.73.6,2.74,2.74,0,0,0,1.08-.21,2.34,2.34,0,0,0,.85-.61l.48.55a2.81,2.81,0,0,1-1,.77,3.66,3.66,0,0,1-1.39.26,3.58,3.58,0,0,1-1.72-.41,3,3,0,0,1-1.17-1.15,3.28,3.28,0,0,1-.42-1.66,3.47,3.47,0,0,1,.4-1.65A2.9,2.9,0,0,1,80,201.77a3.23,3.23,0,0,1,3.15,0,2.89,2.89,0,0,1,1.09,1.13,3.37,3.37,0,0,1,.4,1.66ZM80,202.67a2.29,2.29,0,0,0-.71,1.52h4.48a2.33,2.33,0,0,0-.7-1.52,2.2,2.2,0,0,0-1.54-.58A2.17,2.17,0,0,0,80,202.67Z"/><path class="cls-4" d="M86.35,199.85a.6.6,0,0,1-.18-.43.58.58,0,0,1,.18-.42.61.61,0,0,1,.45-.18.6.6,0,0,1,.44.17.55.55,0,0,1,.18.41.61.61,0,0,1-.18.45.6.6,0,0,1-.44.18A.61.61,0,0,1,86.35,199.85Zm0,1.56h.85v6.31h-.85Z"/><path class="cls-4" d="M91.3,201.68a3.13,3.13,0,0,1,1.47-.32v.83h-.2a2,2,0,0,0-1.56.61,2.42,2.42,0,0,0-.56,1.71v3.22h-.86v-6.31h.82v1.23A2.13,2.13,0,0,1,91.3,201.68Z"/><path class="cls-4" d="M98.4,202a2.38,2.38,0,0,1,.66,1.83v3.91h-.81v-1a2,2,0,0,1-.85.76,2.87,2.87,0,0,1-1.33.28,2.65,2.65,0,0,1-1.68-.5,1.65,1.65,0,0,1-.62-1.34,1.61,1.61,0,0,1,.58-1.29,2.86,2.86,0,0,1,1.86-.49h2v-.39a1.59,1.59,0,0,0-.46-1.24,1.88,1.88,0,0,0-1.33-.43,3.43,3.43,0,0,0-1.15.2,3,3,0,0,0-1,.55l-.38-.64a3.45,3.45,0,0,1,1.15-.63,4.44,4.44,0,0,1,1.42-.22A2.67,2.67,0,0,1,98.4,202Zm-1,4.8a2,2,0,0,0,.77-1v-1h-2c-1.08,0-1.62.38-1.62,1.13a1,1,0,0,0,.42.87,1.93,1.93,0,0,0,1.18.32A2.22,2.22,0,0,0,97.44,206.78Z"/><path class="cls-4" d="M101.6,207.56a3.32,3.32,0,0,1-1.1-.56l.39-.67a3.07,3.07,0,0,0,1,.51,4,4,0,0,0,1.25.2,2.39,2.39,0,0,0,1.28-.27.88.88,0,0,0,.41-.77.65.65,0,0,0-.23-.54,1.54,1.54,0,0,0-.57-.3,6.85,6.85,0,0,0-.93-.2,11.45,11.45,0,0,1-1.23-.29,1.83,1.83,0,0,1-.8-.51,1.44,1.44,0,0,1-.33-1,1.57,1.57,0,0,1,.66-1.3,3,3,0,0,1,1.84-.5,4.7,4.7,0,0,1,1.22.16,3.37,3.37,0,0,1,1,.43l-.37.68a3.19,3.19,0,0,0-1.86-.54,2.15,2.15,0,0,0-1.23.29.87.87,0,0,0-.42.76.72.72,0,0,0,.24.57,1.36,1.36,0,0,0,.58.32,8.23,8.23,0,0,0,1,.21,10.93,10.93,0,0,1,1.21.29,1.79,1.79,0,0,1,.78.49,1.33,1.33,0,0,1,.32,1,1.52,1.52,0,0,1-.69,1.31,3.21,3.21,0,0,1-1.91.49A4.8,4.8,0,0,1,101.6,207.56Z"/><text class="cls-2" transform="translate(32.03 235.39)">C<tspan class="cls-23" x="8.8" y="0">r</tspan><tspan class="cls-6" x="13.86" y="0">e</tspan><tspan x="21.25" y="0">a</tspan><tspan class="cls-24" x="28.66" y="0">t</tspan><tspan x="33.67" y="0">ed </tspan><tspan class="cls-6" x="52.94" y="0">b</tspan><tspan class="cls-25" x="61.04" y="0">y</tspan></text><text class="cls-26" transform="translate(122.24 211.07)"> </text><rect class="cls-27" x="32.03" y="245.81" width="69.53" height="18.71" rx="4"/><text class="cls-28" transform="translate(34.38 258.67)">@Member</text><text class="cls-29" transform="translate(32.03 287.26)">Se<tspan class="cls-30" x="9.75" y="0">r</tspan><tspan class="cls-31" x="13.08" y="0">v</tspan><tspan x="17.3" y="0">er na</tspan><tspan class="cls-32" x="37.57" y="0">m</tspan><tspan x="46.07" y="0">e • Hoje às 16:40</tspan></text><path class="cls-33" d="M0,12.16v282a12.08,12.08,0,0,0,12,12.16V0A12.08,12.08,0,0,0,0,12.16Z"/><circle class="cls-33" cx="44.41" cy="29.13" r="12"/></g></g></svg>