<svg xmlns="http://www.w3.org/2000/svg" viewBox="0 0 325 267.13"><defs><style>.cls-1{fill:#23272a;}.cls-15,.cls-2,.cls-5,.cls-9{font-size:12px;}.cls-10,.cls-15,.cls-2,.cls-4,.cls-5{fill:#fff;}.cls-2{font-family:Montserrat-Bold, Montserrat;font-weight:700;}.cls-3{fill:#4fd1d9;}.cls-5{font-family:Montserrat-Italic, Montserrat;font-style:italic;}.cls-6{letter-spacing:-0.01em;}.cls-7{letter-spacing:0em;}.cls-8{letter-spacing:0em;}.cls-9{font-family:MyriadPro-Regular, Myriad Pro;}.cls-10{font-size:8px;}.cls-10,.cls-15{font-family:Montserrat-Regular, Montserrat;}.cls-11{letter-spacing:0.02em;}.cls-12{letter-spacing:-0.02em;}.cls-13{letter-spacing:0em;}.cls-14{fill:#7289da;}.cls-16{fill:#d0d0d0;}.cls-17{fill:#e8e8e8;}.cls-18{fill:#f5f5f5;}.cls-19{fill:#ed4c5c;}.cls-20{fill:#333;}.cls-21{letter-spacing:0em;}.cls-22{letter-spacing:0.01em;}.cls-23{letter-spacing:0em;}.cls-24{letter-spacing:0em;}.cls-25{letter-spacing:0em;}.cls-26{fill:#15191c;}.cls-27{letter-spacing:-0.01em;}.cls-28{fill:#ef476f;}</style></defs><g id="Camada_2" data-name="Camada 2"><g id="Camada_1-2" data-name="Camada 1"><rect class="cls-1" width="325" height="267.13" rx="12"/><text class="cls-2" transform="translate(71 32.63)">Rhaast</text><circle class="cls-3" cx="40.03" cy="65.35" r="7.5"/><path class="cls-4" d="M41.53,69.35H40V63.6a5.18,5.18,0,0,1-2,1.15V63.37a4.51,4.51,0,0,0,1.3-.74,2.79,2.79,0,0,0,1-1.28h1.24Z"/><path class="cls-4" d="M52.56,59.08h2.29v15H52.56Z"/><path class="cls-4" d="M69.6,65.18H72v4.54a7,7,0,0,1-2.11,1.06,8.45,8.45,0,0,1-2.42.36,6.53,6.53,0,0,1-3.14-.74,5.55,5.55,0,0,1-2.18-2.06,6,6,0,0,1,0-6,5.56,5.56,0,0,1,2.2-2.07,6.74,6.74,0,0,1,3.17-.74,6.94,6.94,0,0,1,2.67.5,5.23,5.23,0,0,1,2,1.44L70.51,63a3.85,3.85,0,0,0-2.9-1.26,4,4,0,0,0-1.9.45,3.22,3.22,0,0,0-1.3,1.26,4,4,0,0,0,0,3.73,3.28,3.28,0,0,0,1.29,1.27,3.88,3.88,0,0,0,1.88.46,4.22,4.22,0,0,0,2-.48Z"/><path class="cls-4" d="M82.86,62.34V71H80.49v-1a3.22,3.22,0,0,1-1.18.85,4.06,4.06,0,0,1-4.18-.68,3.88,3.88,0,0,1-1-2.89V62.34h2.5v4.5c0,1.39.58,2.08,1.74,2.08a1.86,1.86,0,0,0,1.44-.58,2.44,2.44,0,0,0,.55-1.74V62.34Z"/><path class="cls-4" d="M93.57,67.35H87.06a2,2,0,0,0,.83,1.27,2.73,2.73,0,0,0,1.63.46,3.37,3.37,0,0,0,1.19-.2,2.79,2.79,0,0,0,1-.63L93,69.69a4.47,4.47,0,0,1-3.56,1.39,5.59,5.59,0,0,1-2.57-.57,4.19,4.19,0,0,1-1.73-1.57,4.62,4.62,0,0,1,0-4.57,4.21,4.21,0,0,1,1.65-1.59,4.93,4.93,0,0,1,2.34-.56,4.81,4.81,0,0,1,2.29.54A3.9,3.9,0,0,1,93,64.32a4.64,4.64,0,0,1,.58,2.36S93.6,66.94,93.57,67.35Zm-5.84-2.77A2.05,2.05,0,0,0,87,65.9h4.24a2.06,2.06,0,0,0-.7-1.31,2.31,2.31,0,0,0-2.83,0Z"/><path class="cls-4" d="M96.08,70.82a5.44,5.44,0,0,1-1.63-.67l.83-1.79a4.94,4.94,0,0,0,1.39.6,6,6,0,0,0,1.6.23c1.06,0,1.58-.26,1.58-.78a.55.55,0,0,0-.43-.53,5.94,5.94,0,0,0-1.33-.27,13.2,13.2,0,0,1-1.74-.37,2.61,2.61,0,0,1-1.19-.74,2.07,2.07,0,0,1-.51-1.5,2.34,2.34,0,0,1,.48-1.45,3,3,0,0,1,1.37-1,5.82,5.82,0,0,1,2.14-.35,7.91,7.91,0,0,1,1.81.2A4.76,4.76,0,0,1,102,63l-.83,1.77a5.06,5.06,0,0,0-2.48-.64,2.5,2.5,0,0,0-1.2.23.65.65,0,0,0-.4.57.56.56,0,0,0,.43.56,7.69,7.69,0,0,0,1.38.31,15.83,15.83,0,0,1,1.72.37,2.67,2.67,0,0,1,1.17.73,2.08,2.08,0,0,1,.5,1.47,2.28,2.28,0,0,1-.48,1.43,3.14,3.14,0,0,1-1.4,1,6.26,6.26,0,0,1-2.19.34A8.61,8.61,0,0,1,96.08,70.82Z"/><path class="cls-4" d="M104.57,70.82a5.56,5.56,0,0,1-1.63-.67l.83-1.79a5,5,0,0,0,1.4.6,6,6,0,0,0,1.6.23c1,0,1.58-.26,1.58-.78a.55.55,0,0,0-.43-.53,5.94,5.94,0,0,0-1.33-.27,13.2,13.2,0,0,1-1.74-.37,2.69,2.69,0,0,1-1.2-.74,2.11,2.11,0,0,1-.5-1.5,2.4,2.4,0,0,1,.47-1.45,3.06,3.06,0,0,1,1.38-1,5.73,5.73,0,0,1,2.13-.35,8,8,0,0,1,1.82.2,5,5,0,0,1,1.5.55l-.84,1.77a5,5,0,0,0-2.48-.64,2.52,2.52,0,0,0-1.2.23.67.67,0,0,0-.4.57.57.57,0,0,0,.44.56,7.33,7.33,0,0,0,1.37.31,16.09,16.09,0,0,1,1.73.37,2.67,2.67,0,0,1,1.17.73,2.07,2.07,0,0,1,.49,1.47,2.28,2.28,0,0,1-.48,1.43,3.1,3.1,0,0,1-1.39,1,6.3,6.3,0,0,1-2.19.34A8.75,8.75,0,0,1,104.57,70.82Z"/><text class="cls-5" transform="translate(32.03 92.33)">Guess <tspan class="cls-6" x="39.48" y="0">w</tspan><tspan x="49.85" y="0">as finis</tspan><tspan class="cls-7" x="92.47" y="0">h</tspan><tspan class="cls-8" x="100.62" y="0">ed </tspan><tspan class="cls-6" x="119.15" y="0">b</tspan><tspan x="127.1" y="0" xml:space="preserve">y  </tspan></text><text class="cls-9" transform="translate(122.24 211.07)"> </text><text class="cls-10" transform="translate(32.04 247.18)">Se<tspan class="cls-11" x="9.75" y="0">r</tspan><tspan class="cls-12" x="13.08" y="0">v</tspan><tspan x="17.3" y="0">er na</tspan><tspan class="cls-13" x="37.57" y="0">m</tspan><tspan x="46.07" y="0">e • Hoje às 16:40</tspan></text><rect class="cls-14" x="170.5" y="79.2" width="69.53" height="18.71" rx="4"/><text class="cls-15" transform="translate(172.85 92.06)">@Member</text><path class="cls-16" d="M43.05,113.67c.22-.47.31-.89.22-.93s-.18.09-.32.3l-1.51-2.62-4.13-3.65-1-.15c.28-.16.45-.32.42-.39s-.46,0-.93.22-.81.48-.77.57.13,0,.29,0l-1.67,2.9-.35,4.78.2.22c-.11-.07-.19-.09-.22-.06s.16.43.53.8.72.6.79.52,0-.15-.1-.3l3,.49,4.34-1.59.67-.78c-.07.23-.08.4,0,.43S42.83,114.14,43.05,113.67Z"/><path class="cls-17" d="M40,117a1.71,1.71,0,0,1-1.55.36l-3.69-1.11c-.51-.16-.63-.56-.28-.91L37,112.79a1.7,1.7,0,0,1,1.54-.36l3.7,1.12c.5.15.62.56.28.9Z"/><path class="cls-17" d="M32.48,109.54a1.71,1.71,0,0,0-.36,1.55l1.12,3.69c.15.51.55.63.9.28l2.57-2.57a1.7,1.7,0,0,0,.36-1.54L36,107.25c-.15-.5-.56-.62-.9-.28Z"/><path class="cls-18" d="M42,108.76a2.2,2.2,0,0,0-1.25-1.25l-3.83-1.27c-.52-.17-.81.11-.63.63l1.27,3.83A2.24,2.24,0,0,0,38.8,112l3.83,1.27c.52.17.8-.11.63-.64Z"/><path class="cls-19" d="M39.4,109.21a.24.24,0,0,0-.26.15c-.06.21.17.54.52.74a1,1,0,0,0,.48.15.24.24,0,0,0,.26-.15c.06-.2-.18-.53-.52-.74A1,1,0,0,0,39.4,109.21Z"/><path class="cls-20" d="M37.13,114.94c.13,0,.2.13.19.23s-.34.45-.73.52a1,1,0,0,1-.5,0c-.13-.05-.2-.13-.2-.23s.35-.45.74-.52A1,1,0,0,1,37.13,114.94Z"/><path class="cls-20" d="M39,114.51c.13,0,.2.13.2.23s-.34.45-.74.52a1,1,0,0,1-.5,0c-.12,0-.2-.13-.19-.24s.34-.44.73-.51A1,1,0,0,1,39,114.51Z"/><path class="cls-20" d="M40.88,114.14c.12,0,.2.12.19.23s-.34.44-.74.52a1,1,0,0,1-.5,0c-.12,0-.2-.12-.19-.23s.34-.44.74-.52A.92.92,0,0,1,40.88,114.14Z"/><path class="cls-20" d="M35.63,110.71a.22.22,0,0,1,.3,0c.17.12.19.52,0,.9a.93.93,0,0,1-.28.41.25.25,0,0,1-.3,0c-.17-.12-.19-.53,0-.9A.87.87,0,0,1,35.63,110.71Z"/><path class="cls-20" d="M33.5,110.06a.22.22,0,0,1,.3,0c.17.12.19.52,0,.9a1,1,0,0,1-.28.41.25.25,0,0,1-.3,0c-.17-.12-.19-.53,0-.9A.87.87,0,0,1,33.5,110.06Z"/><path class="cls-4" d="M48.78,115.6a4.12,4.12,0,0,1-1.63-1.55,4.46,4.46,0,0,1,0-4.47A4.12,4.12,0,0,1,48.78,108a4.86,4.86,0,0,1,2.33-.56,5,5,0,0,1,2,.38A4,4,0,0,1,54.57,109l-1.25,1.15a2.67,2.67,0,0,0-2.11-1,2.78,2.78,0,0,0-1.39.34,2.44,2.44,0,0,0-1,1,2.89,2.89,0,0,0-.34,1.39,2.93,2.93,0,0,0,.34,1.4,2.5,2.5,0,0,0,1,1,2.78,2.78,0,0,0,1.39.34,2.68,2.68,0,0,0,2.11-1l1.25,1.15a3.82,3.82,0,0,1-1.49,1.11,5.15,5.15,0,0,1-4.3-.17Z"/><path class="cls-4" d="M56.76,115.68a3.14,3.14,0,0,1-1.27-1.18,3.26,3.26,0,0,1-.45-1.71,3.29,3.29,0,0,1,.45-1.72,3.21,3.21,0,0,1,1.27-1.18,3.8,3.8,0,0,1,1.83-.43,3.74,3.74,0,0,1,1.82.43,3.12,3.12,0,0,1,1.26,1.18,3.21,3.21,0,0,1,.46,1.72,3.17,3.17,0,0,1-.46,1.71,3.05,3.05,0,0,1-1.26,1.18,3.74,3.74,0,0,1-1.82.43A3.8,3.8,0,0,1,56.76,115.68Zm3-1.59a2.08,2.08,0,0,0,0-2.61,1.57,1.57,0,0,0-1.18-.48,1.59,1.59,0,0,0-1.19.48,2,2,0,0,0,0,2.61,1.59,1.59,0,0,0,1.19.48A1.57,1.57,0,0,0,59.77,114.09Z"/><path class="cls-4" d="M66.07,109.7a3.38,3.38,0,0,1,1.32-.24v1.73a4.15,4.15,0,0,0-.42,0,1.7,1.7,0,0,0-1.26.45,1.8,1.8,0,0,0-.46,1.35v3H63.38v-6.45h1.79v.85A2.06,2.06,0,0,1,66.07,109.7Z"/><path class="cls-4" d="M68.6,108.36a1,1,0,0,1,0-1.49,1.17,1.17,0,0,1,.84-.3,1.24,1.24,0,0,1,.84.29.93.93,0,0,1,.32.72,1,1,0,0,1-.32.77,1.31,1.31,0,0,1-1.68,0Zm-.1,1.2h1.87V116H68.5Z"/><path class="cls-4" d="M78,110.18a2.86,2.86,0,0,1,.73,2.14V116H76.84v-3.4a1.7,1.7,0,0,0-.33-1.15,1.26,1.26,0,0,0-1-.38,1.48,1.48,0,0,0-1.12.44,1.81,1.81,0,0,0-.42,1.3V116H72.11v-6.45H73.9v.75a2.55,2.55,0,0,1,.93-.63,3.34,3.34,0,0,1,1.21-.22A2.67,2.67,0,0,1,78,110.18Z"/><path class="cls-4" d="M84.57,115.7a1.86,1.86,0,0,1-.68.31,3.33,3.33,0,0,1-.84.1,2.54,2.54,0,0,1-1.79-.59,2.25,2.25,0,0,1-.63-1.73v-2.65h-1V109.7h1v-1.57h1.88v1.57h1.6v1.44h-1.6v2.63a.89.89,0,0,0,.21.63.76.76,0,0,0,.59.22,1.21,1.21,0,0,0,.76-.24Z"/><path class="cls-4" d="M91.49,110.18a2.86,2.86,0,0,1,.74,2.14V116H90.35v-3.4a1.7,1.7,0,0,0-.33-1.15,1.25,1.25,0,0,0-1-.38,1.49,1.49,0,0,0-1.13.44,1.81,1.81,0,0,0-.42,1.3V116H85.63v-8.9H87.5v3.12a2.47,2.47,0,0,1,.9-.57,3.27,3.27,0,0,1,1.15-.2A2.66,2.66,0,0,1,91.49,110.18Z"/><path class="cls-4" d="M94,108.36a1,1,0,0,1,0-1.49,1.34,1.34,0,0,1,1.68,0,.91.91,0,0,1,.33.72,1,1,0,0,1-.33.77,1.13,1.13,0,0,1-.84.31A1.2,1.2,0,0,1,94,108.36Zm-.09,1.2h1.87V116H93.92Z"/><path class="cls-4" d="M102.44,110.18a2.73,2.73,0,0,1,.8,2.15V116h-1.75v-.8a2.09,2.09,0,0,1-2,.9,3.06,3.06,0,0,1-1.29-.25,1.92,1.92,0,0,1-.83-.7,1.81,1.81,0,0,1-.29-1,1.67,1.67,0,0,1,.68-1.41,3.4,3.4,0,0,1,2.09-.52h1.49a1.18,1.18,0,0,0-.37-.94,1.65,1.65,0,0,0-1.12-.33,3.18,3.18,0,0,0-1,.16,2.84,2.84,0,0,0-.85.44l-.67-1.31a3.8,3.8,0,0,1,1.27-.57,5.45,5.45,0,0,1,1.51-.21A3.36,3.36,0,0,1,102.44,110.18Zm-1.6,4.45a1.21,1.21,0,0,0,.53-.66v-.66h-1.28c-.77,0-1.16.26-1.16.76a.68.68,0,0,0,.29.57,1.24,1.24,0,0,0,.77.21A1.61,1.61,0,0,0,100.84,114.63Z"/><path class="cls-4" d="M110.8,110.18a2.86,2.86,0,0,1,.73,2.14V116h-1.87v-3.4a1.7,1.7,0,0,0-.33-1.15,1.26,1.26,0,0,0-1-.38,1.48,1.48,0,0,0-1.12.44,1.81,1.81,0,0,0-.42,1.3V116h-1.88v-6.45h1.79v.75a2.55,2.55,0,0,1,.93-.63,3.34,3.34,0,0,1,1.21-.22A2.67,2.67,0,0,1,110.8,110.18Z"/><path class="cls-4" d="M113.83,115.91a4.07,4.07,0,0,1-1.23-.5l.63-1.34a4,4,0,0,0,1,.45,4.24,4.24,0,0,0,1.2.17c.79,0,1.19-.19,1.19-.58a.42.42,0,0,0-.33-.4,4.31,4.31,0,0,0-1-.2,10,10,0,0,1-1.31-.28,2,2,0,0,1-.89-.55,1.55,1.55,0,0,1-.38-1.13,1.82,1.82,0,0,1,.35-1.09,2.29,2.29,0,0,1,1-.73,4.38,4.38,0,0,1,1.61-.27,6.3,6.3,0,0,1,1.36.15,3.74,3.74,0,0,1,1.12.42l-.62,1.33a3.74,3.74,0,0,0-1.86-.48,1.8,1.8,0,0,0-.9.17.48.48,0,0,0-.3.43.42.42,0,0,0,.32.42,6.62,6.62,0,0,0,1,.23,9.81,9.81,0,0,1,1.3.28,1.94,1.94,0,0,1,.87.54,1.57,1.57,0,0,1,.38,1.11,1.73,1.73,0,0,1-.36,1.07,2.29,2.29,0,0,1-1,.72,4.74,4.74,0,0,1-1.64.26A6.31,6.31,0,0,1,113.83,115.91Z"/><path class="cls-4" d="M133.27,109.7,129.7,116h-.83l-1.05-5.16L124.87,116h-.82l-1.24-6.31h.78l1,5.35,3-5.35h.72l1.06,5.35,3-5.35Z"/><path class="cls-4" d="M134.49,109.7h.85L134.09,116h-.85Zm.38-1.55a.53.53,0,0,1-.16-.39.62.62,0,0,1,.18-.46.63.63,0,0,1,.48-.19.6.6,0,0,1,.42.16.52.52,0,0,1,.16.38.65.65,0,0,1-.67.67A.52.52,0,0,1,134.87,108.15Z"/><path class="cls-4" d="M142.46,110.2a1.94,1.94,0,0,1,.6,1.51,4.85,4.85,0,0,1-.07.72l-.72,3.58h-.86l.72-3.6a3.25,3.25,0,0,0,.06-.57,1.3,1.3,0,0,0-.41-1,1.76,1.76,0,0,0-1.22-.37,2.52,2.52,0,0,0-1.68.56,2.87,2.87,0,0,0-.89,1.65l-.67,3.38h-.85l1.25-6.31h.81l-.2,1a3.08,3.08,0,0,1,2.47-1.06A2.37,2.37,0,0,1,142.46,110.2Z"/><path class="cls-4" d="M144.62,115.9a.55.55,0,0,1-.18-.41.62.62,0,0,1,.65-.65.56.56,0,0,1,.43.17.52.52,0,0,1,.18.4.63.63,0,0,1-.19.47.6.6,0,0,1-.46.19A.57.57,0,0,1,144.62,115.9Zm1.51-8.29h1l-1.35,5.88h-.66Z"/><text class="cls-2" transform="translate(32.03 143.7)"><tspan class="cls-21">W</tspan><tspan class="cls-8" x="13.9" y="0">in</tspan><tspan class="cls-22" x="25.8" y="0">n</tspan><tspan class="cls-8" x="34.16" y="0">e</tspan><tspan class="cls-23" x="41.74" y="0">r</tspan><tspan x="46.88" y="0">s</tspan></text><text class="cls-2" transform="translate(32.04 197.14)"><tspan class="cls-24">L</tspan><tspan class="cls-8" x="7.2" y="0">ose</tspan><tspan class="cls-25" x="29" y="0">r</tspan><tspan x="34.15" y="0">s</tspan></text><rect class="cls-14" x="32.04" y="152.52" width="76.37" height="18.71" rx="4"/><text class="cls-15" transform="translate(34.39 165.38)">@Member 1</text><text class="cls-5" transform="translate(112.03 165.05)"><tspan class="cls-6">w</tspan><tspan x="10.37" y="0">on</tspan></text><rect class="cls-26" x="141.5" y="148.11" width="55.59" height="24.71" rx="4"/><text class="cls-15" transform="translate(149.53 164.25)">$ <tspan class="cls-27" x="10.52" y="0">3</tspan><tspan x="17.17" y="0">50</tspan></text><rect class="cls-14" x="32" y="205.55" width="80.03" height="18.71" rx="4"/><text class="cls-15" transform="translate(34.35 218.41)">@Member 2</text><text class="cls-5" transform="translate(115.99 218.08)">lose</text><rect class="cls-26" x="143.46" y="201.14" width="55.59" height="24.71" rx="4"/><text class="cls-15" transform="translate(149.49 218.28)">$ 250</text><path class="cls-28" d="M0,12V255.13a12,12,0,0,0,12,12V0A12,12,0,0,0,0,12Z"/><circle class="cls-28" cx="46.35" cy="28.62" r="12"/></g></g></svg>