<svg xmlns="http://www.w3.org/2000/svg" viewBox="0 0 325 247.79"><defs><style>.cls-1{fill:#23272a;}.cls-13,.cls-18,.cls-2,.cls-5{font-size:12px;}.cls-14,.cls-18,.cls-2,.cls-4,.cls-5{fill:#fff;}.cls-2{font-family:Montserrat-Bold, Montserrat;font-weight:700;}.cls-3{fill:#4fd1d9;}.cls-5{font-family:Montserrat-Italic, Montserrat;font-style:italic;}.cls-6{letter-spacing:-0.02em;}.cls-7{letter-spacing:-0.01em;}.cls-8{fill:#d0d0d0;}.cls-9{fill:#e8e8e8;}.cls-10{fill:#f5f5f5;}.cls-11{fill:#ed4c5c;}.cls-12{fill:#333;}.cls-13{font-family:MyriadPro-Regular, Myriad Pro;}.cls-14{font-size:8px;}.cls-14,.cls-18{font-family:Montserrat-Regular, Montserrat;}.cls-15{letter-spacing:0.02em;}.cls-16{letter-spacing:-0.02em;}.cls-17{letter-spacing:0em;}.cls-19{letter-spacing:0em;}.cls-20{fill:#15191c;}.cls-21{fill:#ef476f;}</style></defs><g id="Camada_2" data-name="Camada 2"><g id="Camada_1-2" data-name="Camada 1"><rect class="cls-1" width="325" height="247.79" rx="12"/><text class="cls-2" transform="translate(71 32.49)">Rhaast</text><circle class="cls-3" cx="40.03" cy="65.35" r="7.5"/><path class="cls-4" d="M41.53,69.35H40V63.6a5.18,5.18,0,0,1-2,1.15V63.37a4.51,4.51,0,0,0,1.3-.74,2.79,2.79,0,0,0,1-1.28h1.24Z"/><path class="cls-4" d="M52.56,59.08h2.29v15H52.56Z"/><path class="cls-4" d="M69.6,65.18H72v4.54a7,7,0,0,1-2.11,1.06,8.45,8.45,0,0,1-2.42.36,6.53,6.53,0,0,1-3.14-.74,5.55,5.55,0,0,1-2.18-2.06,6,6,0,0,1,0-6,5.56,5.56,0,0,1,2.2-2.07,6.74,6.74,0,0,1,3.17-.74,6.94,6.94,0,0,1,2.67.5,5.23,5.23,0,0,1,2,1.44L70.51,63a3.85,3.85,0,0,0-2.9-1.26,4,4,0,0,0-1.9.45,3.28,3.28,0,0,0-1.3,1.26,4,4,0,0,0,0,3.73,3.28,3.28,0,0,0,1.29,1.27,3.88,3.88,0,0,0,1.88.46,4.22,4.22,0,0,0,2-.48Z"/><path class="cls-4" d="M82.86,62.34V71H80.49v-1a3.22,3.22,0,0,1-1.18.85,4.06,4.06,0,0,1-4.18-.68,3.88,3.88,0,0,1-1-2.89V62.34h2.5v4.5c0,1.39.58,2.08,1.74,2.08a1.86,1.86,0,0,0,1.44-.58,2.44,2.44,0,0,0,.55-1.74V62.34Z"/><path class="cls-4" d="M93.57,67.35H87.06a2,2,0,0,0,.83,1.27,2.73,2.73,0,0,0,1.63.46,3.37,3.37,0,0,0,1.19-.2,2.79,2.79,0,0,0,1-.63L93,69.69a4.47,4.47,0,0,1-3.56,1.39,5.59,5.59,0,0,1-2.57-.57,4.19,4.19,0,0,1-1.73-1.57,4.62,4.62,0,0,1,0-4.57,4.21,4.21,0,0,1,1.65-1.59,4.93,4.93,0,0,1,2.34-.56,4.81,4.81,0,0,1,2.29.54A3.9,3.9,0,0,1,93,64.32a4.64,4.64,0,0,1,.58,2.36S93.6,66.94,93.57,67.35Zm-5.84-2.77A2.05,2.05,0,0,0,87,65.9h4.24a2.06,2.06,0,0,0-.7-1.31,2.31,2.31,0,0,0-2.83,0Z"/><path class="cls-4" d="M96.08,70.82a5.44,5.44,0,0,1-1.63-.67l.83-1.79a4.94,4.94,0,0,0,1.39.6,6,6,0,0,0,1.6.23c1.06,0,1.58-.26,1.58-.78a.55.55,0,0,0-.43-.53,5.94,5.94,0,0,0-1.33-.27,13.2,13.2,0,0,1-1.74-.37,2.61,2.61,0,0,1-1.19-.74,2.07,2.07,0,0,1-.51-1.5,2.34,2.34,0,0,1,.48-1.45,3,3,0,0,1,1.37-1,5.82,5.82,0,0,1,2.14-.35,7.91,7.91,0,0,1,1.81.2A4.76,4.76,0,0,1,102,63l-.83,1.77a5.06,5.06,0,0,0-2.48-.64,2.5,2.5,0,0,0-1.2.23.65.65,0,0,0-.4.57.56.56,0,0,0,.43.56,7.69,7.69,0,0,0,1.38.31,15.83,15.83,0,0,1,1.72.37,2.67,2.67,0,0,1,1.17.73,2.08,2.08,0,0,1,.5,1.47,2.28,2.28,0,0,1-.48,1.43,3.14,3.14,0,0,1-1.4,1,6.26,6.26,0,0,1-2.19.34A8.61,8.61,0,0,1,96.08,70.82Z"/><path class="cls-4" d="M104.57,70.82a5.56,5.56,0,0,1-1.63-.67l.83-1.79a5,5,0,0,0,1.4.6,6,6,0,0,0,1.6.23c1,0,1.58-.26,1.58-.78a.55.55,0,0,0-.43-.53,5.94,5.94,0,0,0-1.33-.27,13.2,13.2,0,0,1-1.74-.37,2.69,2.69,0,0,1-1.2-.74,2.11,2.11,0,0,1-.5-1.5,2.4,2.4,0,0,1,.47-1.45,3.06,3.06,0,0,1,1.38-1,5.73,5.73,0,0,1,2.13-.35,8,8,0,0,1,1.82.2,5,5,0,0,1,1.5.55l-.84,1.77a5,5,0,0,0-2.48-.64,2.52,2.52,0,0,0-1.2.23.67.67,0,0,0-.4.57.57.57,0,0,0,.44.56,7.33,7.33,0,0,0,1.37.31,16.09,16.09,0,0,1,1.73.37,2.67,2.67,0,0,1,1.17.73,2.07,2.07,0,0,1,.49,1.47,2.28,2.28,0,0,1-.48,1.43,3.1,3.1,0,0,1-1.39,1,6.3,6.3,0,0,1-2.19.34A8.75,8.75,0,0,1,104.57,70.82Z"/><text class="cls-5" transform="translate(32.03 92.33)">Bets is <tspan class="cls-6" x="42.42" y="0">ov</tspan><tspan x="56.09" y="0">e</tspan><tspan class="cls-7" x="63.33" y="0">r</tspan><tspan x="68.03" y="0">.</tspan></text><path class="cls-8" d="M42.87,116.57c.21-.47.31-.89.22-.93s-.18.09-.32.29l-1.51-2.62-4.14-3.64-1-.16c.28-.16.45-.31.42-.38s-.46,0-.93.22-.81.47-.77.57.13,0,.29,0c-.28.47-1.67,2.9-1.67,2.9l-.35,4.78.2.21c-.11-.06-.19-.09-.22-.06s.16.44.52.8.73.6.8.53,0-.15-.1-.3l3,.49,4.33-1.6.68-.77c-.07.23-.08.4,0,.42S42.65,117,42.87,116.57Z"/><path class="cls-9" d="M39.78,119.92a1.71,1.71,0,0,1-1.55.36l-3.69-1.12c-.51-.15-.63-.56-.28-.91l2.57-2.57a1.72,1.72,0,0,1,1.54-.35l3.7,1.11c.5.16.62.56.27.91Z"/><path class="cls-9" d="M32.3,112.44a1.7,1.7,0,0,0-.36,1.54l1.11,3.7c.16.5.56.63.91.28l2.57-2.57a1.7,1.7,0,0,0,.36-1.54l-1.12-3.7c-.15-.5-.56-.63-.91-.28Z"/><path class="cls-10" d="M41.81,111.66a2.21,2.21,0,0,0-1.26-1.25l-3.83-1.27c-.52-.18-.8.11-.63.63l1.27,3.83a2.24,2.24,0,0,0,1.26,1.25l3.83,1.27c.52.17.8-.11.63-.63Z"/><path class="cls-11" d="M39.22,112.11a.24.24,0,0,0-.26.15c-.06.2.17.53.52.74a1,1,0,0,0,.47.15c.14,0,.24-.05.27-.15s-.18-.54-.53-.74A1,1,0,0,0,39.22,112.11Z"/><path class="cls-12" d="M37,117.84c.12,0,.2.12.19.23s-.34.44-.73.52a.9.9,0,0,1-.5,0,.24.24,0,0,1-.2-.23c0-.21.34-.44.74-.52A.91.91,0,0,1,37,117.84Z"/><path class="cls-12" d="M38.86,117.41a.24.24,0,0,1,.2.23c0,.21-.35.44-.74.52a1,1,0,0,1-.5,0c-.13,0-.2-.12-.19-.23s.34-.44.73-.52A.9.9,0,0,1,38.86,117.41Z"/><path class="cls-12" d="M40.7,117c.12,0,.2.13.19.23s-.34.45-.74.52a1,1,0,0,1-.5,0c-.12,0-.2-.13-.19-.23s.34-.45.74-.52A1,1,0,0,1,40.7,117Z"/><path class="cls-12" d="M35.45,113.6a.25.25,0,0,1,.3,0c.17.12.19.53,0,.9a1.06,1.06,0,0,1-.28.42.25.25,0,0,1-.3,0c-.17-.13-.19-.53,0-.9A.91.91,0,0,1,35.45,113.6Z"/><path class="cls-12" d="M33.32,113a.25.25,0,0,1,.3,0c.17.13.19.53,0,.9a1.18,1.18,0,0,1-.28.42.25.25,0,0,1-.3,0c-.17-.13-.19-.53,0-.9A1,1,0,0,1,33.32,113Z"/><path class="cls-4" d="M48.6,118.5A4.19,4.19,0,0,1,47,117a4.48,4.48,0,0,1,0-4.48,4.19,4.19,0,0,1,1.63-1.55,5.27,5.27,0,0,1,4.31-.17,4,4,0,0,1,1.48,1.1L53.14,113A2.68,2.68,0,0,0,51,112a2.89,2.89,0,0,0-1.39.34,2.46,2.46,0,0,0-1,1,3,3,0,0,0,0,2.78,2.46,2.46,0,0,0,1,1,2.89,2.89,0,0,0,1.39.34,2.66,2.66,0,0,0,2.11-1l1.25,1.15a3.94,3.94,0,0,1-1.49,1.12,5.25,5.25,0,0,1-4.3-.17Z"/><path class="cls-4" d="M56.58,118.58a3.21,3.21,0,0,1-1.27-1.18,3.32,3.32,0,0,1-.45-1.72,3.17,3.17,0,0,1,1.72-2.9,3.92,3.92,0,0,1,1.83-.42,3.85,3.85,0,0,1,1.82.42,3.22,3.22,0,0,1,1.72,2.9,3.23,3.23,0,0,1-.46,1.72,3.12,3.12,0,0,1-1.26,1.18,3.85,3.85,0,0,1-1.82.43A3.92,3.92,0,0,1,56.58,118.58Zm3-1.6a2.07,2.07,0,0,0,0-2.6,1.58,1.58,0,0,0-1.18-.49,1.6,1.6,0,0,0-1.19.49,2,2,0,0,0,0,2.6,1.56,1.56,0,0,0,1.19.49A1.54,1.54,0,0,0,59.59,117Z"/><path class="cls-4" d="M65.89,112.6a3.38,3.38,0,0,1,1.32-.24v1.73l-.42,0a1.7,1.7,0,0,0-1.26.45,1.8,1.8,0,0,0-.46,1.35v3H63.2v-6.46H65v.86A2,2,0,0,1,65.89,112.6Z"/><path class="cls-4" d="M68.42,111.25a1,1,0,0,1,0-1.48,1.17,1.17,0,0,1,.84-.3,1.24,1.24,0,0,1,.84.28,1,1,0,0,1,.32.72,1,1,0,0,1-.32.78,1.2,1.2,0,0,1-.84.3A1.17,1.17,0,0,1,68.42,111.25Zm-.1,1.2h1.87v6.46H68.32Z"/><path class="cls-4" d="M77.79,113.08a2.82,2.82,0,0,1,.74,2.13v3.7H76.66V115.5a1.64,1.64,0,0,0-.34-1.14,1.19,1.19,0,0,0-1-.38,1.43,1.43,0,0,0-1.12.44,1.76,1.76,0,0,0-.42,1.3v3.19H71.93v-6.46h1.79v.76a2.55,2.55,0,0,1,.93-.63,3.14,3.14,0,0,1,1.21-.22A2.63,2.63,0,0,1,77.79,113.08Z"/><path class="cls-4" d="M84.39,118.6a1.93,1.93,0,0,1-.68.3,3.35,3.35,0,0,1-.85.11,2.53,2.53,0,0,1-1.78-.59,2.25,2.25,0,0,1-.63-1.73V114h-1V112.6h1V111h1.87v1.57h1.61V114H82.32v2.63a.94.94,0,0,0,.21.63.82.82,0,0,0,.6.22,1.23,1.23,0,0,0,.76-.24Z"/><path class="cls-4" d="M91.31,113.08a2.85,2.85,0,0,1,.73,2.13v3.7H90.17V115.5a1.69,1.69,0,0,0-.33-1.14,1.22,1.22,0,0,0-1-.38,1.45,1.45,0,0,0-1.12.44,1.8,1.8,0,0,0-.42,1.3v3.19H85.44V110h1.88v3.12a2.31,2.31,0,0,1,.9-.57,3.05,3.05,0,0,1,1.15-.2A2.66,2.66,0,0,1,91.31,113.08Z"/><path class="cls-4" d="M93.83,111.25a1,1,0,0,1,0-1.48,1.36,1.36,0,0,1,1.68,0,.94.94,0,0,1,.33.72,1,1,0,0,1-.33.78,1.17,1.17,0,0,1-.84.3A1.2,1.2,0,0,1,93.83,111.25Zm-.09,1.2h1.87v6.46H93.74Z"/><path class="cls-4" d="M102.26,113.07a2.77,2.77,0,0,1,.8,2.16v3.68h-1.75v-.8a2.09,2.09,0,0,1-2,.9,3,3,0,0,1-1.29-.26,1.9,1.9,0,0,1-.83-.69,1.76,1.76,0,0,1-.29-1,1.68,1.68,0,0,1,.68-1.42,3.48,3.48,0,0,1,2.09-.51h1.49a1.18,1.18,0,0,0-.37-.94,1.65,1.65,0,0,0-1.12-.33,3.18,3.18,0,0,0-1,.16,2.63,2.63,0,0,0-.85.44l-.67-1.31a4,4,0,0,1,1.27-.58,5.85,5.85,0,0,1,1.51-.2A3.41,3.41,0,0,1,102.26,113.07Zm-1.6,4.45a1.19,1.19,0,0,0,.53-.65v-.66H99.9c-.76,0-1.15.25-1.15.76a.69.69,0,0,0,.28.57,1.29,1.29,0,0,0,.78.21A1.61,1.61,0,0,0,100.66,117.52Z"/><path class="cls-4" d="M110.61,113.08a2.82,2.82,0,0,1,.74,2.13v3.7h-1.87V115.5a1.69,1.69,0,0,0-.33-1.14,1.22,1.22,0,0,0-1-.38,1.43,1.43,0,0,0-1.12.44,1.8,1.8,0,0,0-.42,1.3v3.19h-1.88v-6.46h1.79v.76a2.55,2.55,0,0,1,.93-.63,3.14,3.14,0,0,1,1.21-.22A2.63,2.63,0,0,1,110.61,113.08Z"/><path class="cls-4" d="M113.65,118.81a4.07,4.07,0,0,1-1.23-.5l.63-1.34a4,4,0,0,0,1,.45,4.63,4.63,0,0,0,1.2.17c.79,0,1.19-.2,1.19-.59q0-.27-.33-.39a4.79,4.79,0,0,0-1-.21,10.2,10.2,0,0,1-1.31-.27,2,2,0,0,1-.89-.56,1.52,1.52,0,0,1-.38-1.12,1.75,1.75,0,0,1,.35-1.09,2.31,2.31,0,0,1,1-.74,4.57,4.57,0,0,1,1.61-.26,6.3,6.3,0,0,1,1.36.15,4,4,0,0,1,1.12.41l-.62,1.33a3.74,3.74,0,0,0-1.86-.48,1.86,1.86,0,0,0-.9.17.51.51,0,0,0-.31.43.43.43,0,0,0,.33.42,5.42,5.42,0,0,0,1,.23,11.72,11.72,0,0,1,1.3.28,2,2,0,0,1,.87.55,1.53,1.53,0,0,1,.38,1.1,1.66,1.66,0,0,1-.37,1.07,2.22,2.22,0,0,1-1,.73,4.74,4.74,0,0,1-1.64.26A6.31,6.31,0,0,1,113.65,118.81Z"/><text class="cls-13" transform="translate(122.24 211.07)"> </text><text class="cls-14" transform="translate(31.56 230.03)">Se<tspan class="cls-15" x="9.75" y="0">r</tspan><tspan class="cls-16" x="13.08" y="0">v</tspan><tspan x="17.3" y="0">er na</tspan><tspan class="cls-17" x="37.57" y="0">m</tspan><tspan x="46.07" y="0">e • Hoje às 16:40</tspan></text><path class="cls-8" d="M161.83,116.57c.22-.47.32-.89.22-.93s-.18.09-.31.29l-1.52-2.62-4.13-3.64-1-.16c.27-.16.45-.31.41-.38s-.46,0-.92.22-.82.47-.77.57.13,0,.29,0c-.28.47-1.67,2.9-1.67,2.9l-.36,4.78.21.21c-.11-.06-.2-.09-.23-.06s.16.44.53.8.72.6.8.53,0-.15-.11-.3l3,.49,4.33-1.6.68-.77c-.07.23-.09.4,0,.42S161.61,117,161.83,116.57Z"/><path class="cls-9" d="M158.74,119.92a1.7,1.7,0,0,1-1.54.36l-3.7-1.12c-.5-.15-.63-.56-.28-.91l2.57-2.56a1.7,1.7,0,0,1,1.54-.36l3.7,1.11c.5.16.63.56.28.91Z"/><path class="cls-9" d="M151.26,112.44a1.7,1.7,0,0,0-.36,1.54l1.12,3.7c.15.5.56.63.91.28l2.57-2.57a1.72,1.72,0,0,0,.35-1.54l-1.11-3.7c-.16-.5-.56-.63-.91-.28Z"/><path class="cls-10" d="M160.77,111.66a2.2,2.2,0,0,0-1.25-1.25l-3.83-1.27c-.52-.18-.8.11-.63.63l1.27,3.83a2.2,2.2,0,0,0,1.25,1.25l3.83,1.27c.52.17.81-.11.63-.63Z"/><path class="cls-11" d="M158.18,112.11a.24.24,0,0,0-.26.15c-.06.2.18.53.52.74a1,1,0,0,0,.48.15.24.24,0,0,0,.26-.15c.06-.21-.17-.54-.52-.74A1,1,0,0,0,158.18,112.11Z"/><path class="cls-12" d="M155.91,117.84a.24.24,0,0,1,.2.23c0,.21-.34.44-.74.52a.91.91,0,0,1-.5,0c-.12,0-.2-.12-.19-.23s.34-.44.73-.52A.9.9,0,0,1,155.91,117.84Z"/><path class="cls-12" d="M157.83,117.41c.12,0,.2.12.19.23s-.34.44-.74.52a.92.92,0,0,1-.5,0c-.12,0-.2-.12-.19-.23s.34-.44.74-.52A.92.92,0,0,1,157.83,117.41Z"/><path class="cls-12" d="M159.66,117c.13,0,.2.13.19.23s-.34.45-.73.52a1,1,0,0,1-.5,0c-.13,0-.2-.13-.2-.23s.35-.45.74-.52A1,1,0,0,1,159.66,117Z"/><path class="cls-12" d="M154.41,113.6a.25.25,0,0,1,.3,0c.17.13.19.53,0,.9a1.07,1.07,0,0,1-.29.42.23.23,0,0,1-.29,0c-.18-.13-.2-.53-.05-.9A1.09,1.09,0,0,1,154.41,113.6Z"/><path class="cls-12" d="M152.28,113a.25.25,0,0,1,.3,0c.17.13.19.53,0,.9a1,1,0,0,1-.28.42.25.25,0,0,1-.3,0c-.17-.13-.19-.53,0-.9A1.06,1.06,0,0,1,152.28,113Z"/><path class="cls-4" d="M171.44,110.88a2.9,2.9,0,0,1,1.27,1.06,2.93,2.93,0,0,1,.44,1.62,3,3,0,0,1-.44,1.61,2.9,2.9,0,0,1-1.27,1.06,4.8,4.8,0,0,1-1.94.36h-1.69v2.32h-1.94v-8.4h3.63A4.63,4.63,0,0,1,171.44,110.88Zm-.71,3.75a1.32,1.32,0,0,0,.45-1.07,1.35,1.35,0,0,0-.45-1.09,2.07,2.07,0,0,0-1.33-.38h-1.59V115h1.59A2.07,2.07,0,0,0,170.73,114.63Z"/><path class="cls-4" d="M179.25,113.07a2.77,2.77,0,0,1,.8,2.16v3.68H178.3v-.8a2.09,2.09,0,0,1-2,.9,3,3,0,0,1-1.29-.26,1.9,1.9,0,0,1-.83-.69,1.76,1.76,0,0,1-.29-1,1.68,1.68,0,0,1,.68-1.42,3.48,3.48,0,0,1,2.09-.51h1.49a1.21,1.21,0,0,0-.37-.94,1.65,1.65,0,0,0-1.12-.33,3.18,3.18,0,0,0-1,.16,2.53,2.53,0,0,0-.85.44l-.67-1.31a4.07,4.07,0,0,1,1.26-.58,6,6,0,0,1,1.52-.2A3.41,3.41,0,0,1,179.25,113.07Zm-1.6,4.45a1.19,1.19,0,0,0,.53-.65v-.66h-1.29c-.76,0-1.15.25-1.15.76a.69.69,0,0,0,.28.57,1.29,1.29,0,0,0,.78.21A1.61,1.61,0,0,0,177.65,117.52Z"/><path class="cls-4" d="M181.74,110h1.87v8.9h-1.87Z"/><path class="cls-4" d="M195.55,113.07a2.94,2.94,0,0,1,.71,2.14v3.7h-1.87V115.5a1.74,1.74,0,0,0-.32-1.14,1.08,1.08,0,0,0-.9-.38,1.36,1.36,0,0,0-1,.42,1.89,1.89,0,0,0-.38,1.27v3.24h-1.87V115.5c0-1-.41-1.52-1.23-1.52a1.33,1.33,0,0,0-1,.42,1.84,1.84,0,0,0-.38,1.27v3.24h-1.88v-6.46h1.79v.75a2.54,2.54,0,0,1,.88-.63,3.06,3.06,0,0,1,1.15-.21,2.79,2.79,0,0,1,1.24.27,2.21,2.21,0,0,1,.88.78,2.8,2.8,0,0,1,1-.78,3.18,3.18,0,0,1,1.32-.27A2.64,2.64,0,0,1,195.55,113.07Z"/><path class="cls-4" d="M204.3,116.21h-4.88a1.51,1.51,0,0,0,.62,1,2.1,2.1,0,0,0,1.23.35,2.48,2.48,0,0,0,.89-.15,2.2,2.2,0,0,0,.73-.48l1,1.08a3.33,3.33,0,0,1-2.66,1.05,4.25,4.25,0,0,1-1.93-.43,3.11,3.11,0,0,1-1.3-1.18,3.46,3.46,0,0,1,0-3.43,3.22,3.22,0,0,1,1.24-1.19,3.66,3.66,0,0,1,1.76-.42,3.49,3.49,0,0,1,1.71.41,2.9,2.9,0,0,1,1.21,1.17,3.47,3.47,0,0,1,.44,1.77S204.33,115.9,204.3,116.21Zm-4.38-2.08a1.56,1.56,0,0,0-.53,1h3.18a1.55,1.55,0,0,0-.52-1,1.61,1.61,0,0,0-1.06-.37A1.63,1.63,0,0,0,199.92,114.13Z"/><path class="cls-4" d="M205.68,111.25a1,1,0,0,1,0-1.48,1.36,1.36,0,0,1,1.68,0,.94.94,0,0,1,.33.72,1,1,0,0,1-.33.78,1.17,1.17,0,0,1-.84.3A1.2,1.2,0,0,1,205.68,111.25Zm-.09,1.2h1.87v6.46h-1.87Z"/><path class="cls-4" d="M211.89,112.6a3.38,3.38,0,0,1,1.32-.24v1.73l-.42,0a1.7,1.7,0,0,0-1.26.45,1.8,1.8,0,0,0-.46,1.35v3H209.2v-6.46H211v.86A2,2,0,0,1,211.89,112.6Z"/><path class="cls-4" d="M219.19,113.07a2.74,2.74,0,0,1,.81,2.16v3.68h-1.75v-.8a2.1,2.1,0,0,1-2,.9,3,3,0,0,1-1.29-.26,1.93,1.93,0,0,1-.84-.69,1.83,1.83,0,0,1-.28-1,1.7,1.7,0,0,1,.67-1.42,3.51,3.51,0,0,1,2.1-.51h1.49a1.18,1.18,0,0,0-.38-.94,1.62,1.62,0,0,0-1.11-.33,3.24,3.24,0,0,0-1,.16,2.57,2.57,0,0,0-.84.44l-.67-1.31a4.07,4.07,0,0,1,1.26-.58,5.92,5.92,0,0,1,1.52-.2A3.37,3.37,0,0,1,219.19,113.07Zm-1.59,4.45a1.19,1.19,0,0,0,.53-.65v-.66h-1.29c-.77,0-1.15.25-1.15.76a.67.67,0,0,0,.28.57,1.29,1.29,0,0,0,.78.21A1.61,1.61,0,0,0,217.6,117.52Z"/><path class="cls-4" d="M222.29,118.81a4,4,0,0,1-1.22-.5l.62-1.34a4.34,4.34,0,0,0,1,.45,4.63,4.63,0,0,0,1.2.17c.8,0,1.19-.2,1.19-.59a.42.42,0,0,0-.32-.39,5.08,5.08,0,0,0-1-.21,10.57,10.57,0,0,1-1.31-.27,2,2,0,0,1-.89-.56,1.57,1.57,0,0,1-.38-1.12,1.76,1.76,0,0,1,.36-1.09,2.25,2.25,0,0,1,1-.74,4.51,4.51,0,0,1,1.6-.26,6.23,6.23,0,0,1,1.36.15,3.93,3.93,0,0,1,1.12.41l-.62,1.33a3.74,3.74,0,0,0-1.86-.48,1.91,1.91,0,0,0-.9.17.5.5,0,0,0-.3.43.43.43,0,0,0,.32.42,5.57,5.57,0,0,0,1,.23,11.48,11.48,0,0,1,1.29.28,2,2,0,0,1,.88.55,1.53,1.53,0,0,1,.37,1.1,1.71,1.71,0,0,1-.36,1.07,2.3,2.3,0,0,1-1.05.73,4.74,4.74,0,0,1-1.64.26A6.37,6.37,0,0,1,222.29,118.81Z"/><text class="cls-18" transform="translate(32.03 138.66)">Bets: 1</text><text class="cls-18" transform="translate(150.47 138.66)">Bets: 1</text><text class="cls-18" transform="translate(32.03 156.88)">A<tspan class="cls-19" x="8.6" y="0">m</tspan><tspan x="21.36" y="0">ount:</tspan></text><text class="cls-18" transform="translate(150.47 156.97)">A<tspan class="cls-19" x="8.6" y="0">m</tspan><tspan x="21.36" y="0">ount:</tspan></text><rect class="cls-20" x="32" y="172.97" width="90" height="34.35" rx="4"/><text class="cls-18" transform="translate(40.03 194.94)">$ 100</text><rect class="cls-20" x="150.47" y="172.97" width="90" height="34.35" rx="4"/><text class="cls-18" transform="translate(158.5 194.94)">$ 250</text><path class="cls-21" d="M0,12V235.79a12,12,0,0,0,12,12V0A12,12,0,0,0,0,12Z"/><circle class="cls-21" cx="45.15" cy="28.99" r="12"/></g></g></svg>