<svg xmlns="http://www.w3.org/2000/svg" viewBox="0 0 325 359.54"><defs><style>.cls-1{fill:#23272a;}.cls-15,.cls-2,.cls-24{font-size:12px;}.cls-15,.cls-2,.cls-24,.cls-3,.cls-9{fill:#fff;}.cls-2,.cls-23,.cls-3{font-family:Montserrat-Bold, Montserrat;font-weight:700;}.cls-3{font-size:16px;}.cls-4{letter-spacing:-0.01em;}.cls-5{letter-spacing:-0.01em;}.cls-6{letter-spacing:-0.02em;}.cls-7{letter-spacing:0em;}.cls-8{letter-spacing:0.02em;}.cls-9{font-size:8px;}.cls-15,.cls-9{font-family:Montserrat-Regular, Montserrat;}.cls-10{letter-spacing:-0.02em;}.cls-11{letter-spacing:0em;}.cls-12{fill:#ef476f;}.cls-13{letter-spacing:0em;}.cls-14{letter-spacing:0.01em;}.cls-16{letter-spacing:-0.01em;}.cls-17{letter-spacing:0em;}.cls-18{letter-spacing:0em;}.cls-19{letter-spacing:0.03em;}.cls-20{letter-spacing:-0.02em;}.cls-21{letter-spacing:-0.01em;}.cls-22{letter-spacing:0.01em;}.cls-24{font-family:Montserrat-Italic, Montserrat;font-style:italic;}.cls-25{letter-spacing:-0.02em;}.cls-26{letter-spacing:-0.02em;}.cls-27{letter-spacing:0.01em;}.cls-28{letter-spacing:0.01em;}.cls-29{fill:#7289da;}.cls-30{letter-spacing:-0.01em;}.cls-31{letter-spacing:0em;}.cls-32{letter-spacing:-0.01em;}.cls-33{letter-spacing:-0.02em;}.cls-34{letter-spacing:-0.02em;}</style></defs><g id="Camada_2" data-name="Camada 2"><g id="Camada_1-2" data-name="Camada 1"><rect class="cls-1" width="325" height="359.54" rx="12"/><text class="cls-2" transform="translate(70.94 32.53)">Rhaast</text><text class="cls-3" transform="translate(31.97 70.85)">I<tspan class="cls-4" x="5.25" y="0">n</tspan><tspan class="cls-5" x="16.14" y="0">v</tspan><tspan x="25.47" y="0">en</tspan><tspan class="cls-6" x="46.62" y="0">t</tspan><tspan class="cls-7" x="53.31" y="0">o</tspan><tspan class="cls-8" x="63.79" y="0">r</tspan><tspan class="cls-7" x="70.93" y="0">y</tspan></text><text class="cls-9" transform="translate(31.57 339.4)">Se<tspan class="cls-8" x="9.75" y="0">r</tspan><tspan class="cls-10" x="13.08" y="0">v</tspan><tspan x="17.3" y="0">er na</tspan><tspan class="cls-11" x="37.57" y="0">m</tspan><tspan x="46.07" y="0">e • Hoje às 16:40</tspan></text><circle class="cls-12" cx="43.63" cy="27.03" r="12"/><text class="cls-2" transform="translate(32.44 123.29)">Ni<tspan class="cls-13" x="13.31" y="0">ck</tspan><tspan x="28.22" y="0">na</tspan><tspan class="cls-14" x="43.92" y="0">m</tspan><tspan x="56.58" y="0">e</tspan></text><text class="cls-15" transform="translate(31.63 141.41)">Desc<tspan class="cls-16" x="29.78" y="0">r</tspan><tspan class="cls-17" x="34.5" y="0">iption: Cha</tspan><tspan class="cls-11" x="99.13" y="0">n</tspan><tspan class="cls-17" x="107.28" y="0">ge a </tspan><tspan class="cls-18" x="136.13" y="0">m</tspan><tspan x="148.88" y="0">embe</tspan><tspan class="cls-19" x="184.25" y="0">r</tspan><tspan class="cls-20" x="189.44" y="0">’</tspan><tspan x="191.79" y="0">s ni</tspan><tspan class="cls-21" x="212.16" y="0">ck</tspan><tspan x="225.93" y="0">na</tspan><tspan class="cls-18" x="241.14" y="0">m</tspan><tspan x="253.89" y="0">e.</tspan><tspan x="0" y="16">Quanti</tspan><tspan class="cls-4" x="41.45" y="16">t</tspan><tspan class="cls-22" x="46.2" y="16">y</tspan><tspan x="52.8" y="16">: </tspan><tspan class="cls-23" x="58.49" y="16">1</tspan></text><text class="cls-24" transform="translate(102.86 92)">‘s i<tspan class="cls-4" x="14.78" y="0">n</tspan><tspan class="cls-25" x="22.79" y="0">v</tspan><tspan x="29.11" y="0">en</tspan><tspan class="cls-26" x="44.48" y="0">t</tspan><tspan x="49.13" y="0">o</tspan><tspan class="cls-27" x="56.65" y="0">r</tspan><tspan class="cls-28" x="61.64" y="0">y</tspan><tspan x="68.24" y="0" xml:space="preserve">:  </tspan></text><rect class="cls-29" x="31.63" y="78.85" width="69.53" height="18.71" rx="4"/><text class="cls-15" transform="translate(33.97 91.71)">@Member</text><text class="cls-2" transform="translate(32.38 185.22)">D<tspan class="cls-25" x="9.91" y="0">e</tspan><tspan x="17.3" y="0">af</tspan></text><text class="cls-15" transform="translate(31.57 203.34)">Desc<tspan class="cls-16" x="29.78" y="0">r</tspan><tspan class="cls-17" x="34.5" y="0">iption: D</tspan><tspan class="cls-25" x="85.21" y="0">e</tspan><tspan x="92.28" y="0">af </tspan><tspan class="cls-18" x="106.57" y="0">m</tspan><tspan x="119.33" y="0">ember on t</tspan><tspan class="cls-11" x="186.31" y="0">h</tspan><tspan x="194.46" y="0">e </tspan><tspan class="cls-30" x="204.85" y="0">v</tspan><tspan class="cls-31" x="211.17" y="0">oi</tspan><tspan class="cls-32" x="221.92" y="0">c</tspan><tspan x="228.57" y="0">e</tspan><tspan class="cls-16" x="0" y="16">c</tspan><tspan x="6.66" y="16">han</tspan><tspan class="cls-18" x="29.99" y="16">n</tspan><tspan class="cls-31" x="38.14" y="16">el </tspan><tspan class="cls-32" x="51.75" y="16">f</tspan><tspan x="55.71" y="16">or 1 minu</tspan><tspan class="cls-33" x="110.83" y="16">t</tspan><tspan class="cls-31" x="115.47" y="16">e.</tspan><tspan x="0" y="32">Quanti</tspan><tspan class="cls-4" x="41.45" y="32">t</tspan><tspan class="cls-22" x="46.2" y="32">y</tspan><tspan x="52.8" y="32">: </tspan><tspan class="cls-23" x="58.49" y="32">4</tspan></text><text class="cls-2" transform="translate(32.38 264.13)">Mu<tspan class="cls-34" x="19.7" y="0">t</tspan><tspan x="24.72" y="0">e</tspan></text><text class="cls-15" transform="translate(31.57 282.25)">Desc<tspan class="cls-16" x="29.78" y="0">r</tspan><tspan class="cls-17" x="34.5" y="0">iption: Mu</tspan><tspan class="cls-26" x="94.83" y="0">t</tspan><tspan x="99.48" y="0">e </tspan><tspan class="cls-18" x="109.87" y="0">m</tspan><tspan x="122.63" y="0">ember on t</tspan><tspan class="cls-11" x="189.61" y="0">h</tspan><tspan x="197.76" y="0">e </tspan><tspan class="cls-30" x="208.15" y="0">v</tspan><tspan class="cls-31" x="214.47" y="0">oi</tspan><tspan class="cls-32" x="225.22" y="0">c</tspan><tspan x="231.87" y="0">e</tspan><tspan class="cls-16" x="0" y="16">c</tspan><tspan x="6.66" y="16">han</tspan><tspan class="cls-18" x="29.99" y="16">n</tspan><tspan class="cls-31" x="38.14" y="16">el </tspan><tspan class="cls-32" x="51.75" y="16">f</tspan><tspan x="55.71" y="16">or 1 minu</tspan><tspan class="cls-33" x="110.83" y="16">t</tspan><tspan class="cls-31" x="115.47" y="16">e.</tspan><tspan x="0" y="32">Quanti</tspan><tspan class="cls-4" x="41.45" y="32">t</tspan><tspan class="cls-22" x="46.2" y="32">y</tspan><tspan x="52.8" y="32">: </tspan><tspan class="cls-23" x="58.49" y="32">2</tspan></text><path class="cls-12" d="M11.79,0A12,12,0,0,0,0,12V347.52a12,12,0,0,0,11.79,12Z"/></g></g></svg>