<svg xmlns="http://www.w3.org/2000/svg" viewBox="0 0 325 182.17"><defs><style>.cls-1{fill:#23272a;}.cls-19,.cls-2,.cls-7{font-size:12px;}.cls-15,.cls-19,.cls-2,.cls-3,.cls-7{fill:#fff;}.cls-2,.cls-3{font-family:Montserrat-Bold, Montserrat;font-weight:700;}.cls-3{font-size:16px;letter-spacing:0em;}.cls-4{letter-spacing:-0.01em;}.cls-5{letter-spacing:-0.02em;}.cls-6{letter-spacing:0em;}.cls-7{font-family:Montserrat-Italic, Montserrat;font-style:italic;}.cls-8{letter-spacing:-0.01em;}.cls-9{letter-spacing:0em;}.cls-10{letter-spacing:-0.01em;}.cls-11{letter-spacing:0em;}.cls-12{letter-spacing:0em;}.cls-13{letter-spacing:-0.01em;}.cls-14{letter-spacing:-0.01em;}.cls-15{font-size:8px;}.cls-15,.cls-19{font-family:Montserrat-Regular, Montserrat;}.cls-16{letter-spacing:0.02em;}.cls-17{letter-spacing:-0.02em;}.cls-18{fill:#7289da;}.cls-20{fill:#ef476f;}.cls-21{letter-spacing:0em;}.cls-22{letter-spacing:-0.02em;}.cls-23{letter-spacing:-0.02em;}.cls-24{letter-spacing:0.03em;}</style></defs><g id="Camada_2" data-name="Camada 2"><g id="Camada_1-2" data-name="Camada 1"><rect class="cls-1" width="325" height="182.17" rx="12"/><text class="cls-2" transform="translate(70.94 32.53)">Rhaast</text><text class="cls-3" transform="translate(31.97 70.85)">L<tspan class="cls-4" x="9.6" y="0">e</tspan><tspan class="cls-5" x="19.54" y="0">v</tspan><tspan class="cls-6" x="28.86" y="0">el</tspan></text><text class="cls-7" transform="translate(103.68 93.25)">‘s <tspan class="cls-8" x="11.56" y="0">e</tspan><tspan class="cls-9" x="18.62" y="0">xpe</tspan><tspan class="cls-10" x="40.42" y="0">r</tspan><tspan class="cls-11" x="45.13" y="0">ie</tspan><tspan class="cls-12" x="55.61" y="0">n</tspan><tspan class="cls-13" x="63.75" y="0">c</tspan><tspan class="cls-9" x="70.4" y="0">e l</tspan><tspan class="cls-14" x="84.02" y="0">e</tspan><tspan class="cls-8" x="91.15" y="0">v</tspan><tspan x="97.47" y="0" xml:space="preserve">el:  </tspan></text><text class="cls-15" transform="translate(32.44 163.75)">Se<tspan class="cls-16" x="9.75" y="0">r</tspan><tspan class="cls-17" x="13.08" y="0">v</tspan><tspan x="17.3" y="0">er na</tspan><tspan class="cls-12" x="37.57" y="0">m</tspan><tspan x="46.07" y="0">e • Hoje às 16:40</tspan></text><rect class="cls-18" x="32.44" y="80.1" width="69.53" height="18.71" rx="4"/><text class="cls-19" transform="translate(34.79 92.96)">@Member</text><circle class="cls-20" cx="43.63" cy="27.03" r="12"/><text class="cls-2" transform="translate(32.44 123.29)"><tspan class="cls-21">L</tspan><tspan class="cls-14" x="7.2" y="0">e</tspan><tspan class="cls-22" x="14.65" y="0">v</tspan><tspan x="21.65" y="0">el</tspan></text><text class="cls-2" transform="translate(154.41 122.79)"><tspan class="cls-23">X</tspan><tspan x="8.3" y="0">P</tspan></text><text class="cls-19" transform="translate(31.97 141.73)">14</text><text class="cls-19" transform="translate(154.41 139.38)">1981<tspan class="cls-24" x="23.63" y="0">4</tspan><tspan x="31.9" y="0">/22500</tspan></text><path class="cls-20" d="M0,12V170.17a12,12,0,0,0,12,12V0A12,12,0,0,0,0,12Z"/></g></g></svg>