<svg xmlns="http://www.w3.org/2000/svg" viewBox="0 0 325 578.53"><defs><style>.cls-1{fill:#23272a;}.cls-2,.cls-21,.cls-7{font-size:12px;}.cls-15,.cls-2,.cls-21,.cls-3,.cls-7{fill:#fff;}.cls-2,.cls-29,.cls-3,.cls-30{font-family:Montserrat-Bold, Montserrat;font-weight:700;}.cls-3{font-size:16px;letter-spacing:0em;}.cls-4{letter-spacing:-0.01em;}.cls-5{letter-spacing:-0.02em;}.cls-6{letter-spacing:0em;}.cls-7{font-family:Montserrat-Italic, Montserrat;font-style:italic;}.cls-8{letter-spacing:-0.02em;}.cls-9{letter-spacing:0em;}.cls-10{letter-spacing:-0.01em;}.cls-11{letter-spacing:-0.01em;}.cls-12{letter-spacing:-0.01em;}.cls-13{letter-spacing:-0.01em;}.cls-14{letter-spacing:0em;}.cls-15{font-size:8px;}.cls-15,.cls-21{font-family:Montserrat-Regular, Montserrat;}.cls-16{letter-spacing:0.02em;}.cls-17{letter-spacing:-0.02em;}.cls-18{fill:#ef476f;}.cls-19{letter-spacing:0em;}.cls-20{letter-spacing:0.01em;}.cls-22{letter-spacing:0em;}.cls-23{letter-spacing:0em;}.cls-24{letter-spacing:0.03em;}.cls-25{letter-spacing:-0.02em;}.cls-26{letter-spacing:-0.01em;}.cls-27{letter-spacing:-0.01em;}.cls-28{letter-spacing:0.01em;}.cls-30{letter-spacing:-0.05em;}.cls-31{letter-spacing:-0.01em;}.cls-32{fill:#15191c;}.cls-33{letter-spacing:-0.02em;}.cls-34{letter-spacing:-0.02em;}.cls-35{letter-spacing:-0.02em;}</style></defs><g id="Camada_2" data-name="Camada 2"><g id="Camada_1-2" data-name="Camada 1"><rect class="cls-1" width="325" height="578.53" rx="12"/><text class="cls-2" transform="translate(70.94 32.53)">Rhaast</text><text class="cls-3" transform="translate(31.97 70.85)">L<tspan class="cls-4" x="9.6" y="0">e</tspan><tspan class="cls-5" x="19.54" y="0">v</tspan><tspan class="cls-6" x="28.86" y="0">el</tspan></text><text class="cls-7" transform="translate(31.63 88.97)">Lists i<tspan class="cls-8" x="33.28" y="0">t</tspan><tspan class="cls-9" x="37.92" y="0">ems a</tspan><tspan class="cls-10" x="75.05" y="0">v</tspan><tspan x="81.37" y="0">ailable </tspan><tspan class="cls-11" x="125.85" y="0">f</tspan><tspan x="129.81" y="0">or pu</tspan><tspan class="cls-12" x="161.51" y="0">r</tspan><tspan class="cls-13" x="166.16" y="0">c</tspan><tspan class="cls-14" x="172.82" y="0">h</tspan><tspan x="180.97" y="0">ase.</tspan></text><text class="cls-15" transform="translate(31.63 560.07)">Se<tspan class="cls-16" x="9.75" y="0">r</tspan><tspan class="cls-17" x="13.08" y="0">v</tspan><tspan x="17.3" y="0">er na</tspan><tspan class="cls-14" x="37.57" y="0">m</tspan><tspan x="46.07" y="0">e • Hoje às 16:40</tspan></text><circle class="cls-18" cx="43.63" cy="27.03" r="12"/><text class="cls-2" transform="translate(32.44 123.29)">Ni<tspan class="cls-19" x="13.31" y="0">ck</tspan><tspan x="28.22" y="0">na</tspan><tspan class="cls-20" x="43.92" y="0">m</tspan><tspan x="56.58" y="0">e</tspan></text><text class="cls-21" transform="translate(31.63 141.41)">Desc<tspan class="cls-13" x="29.78" y="0">r</tspan><tspan class="cls-22" x="34.5" y="0">iption: Cha</tspan><tspan class="cls-14" x="99.13" y="0">n</tspan><tspan class="cls-22" x="107.28" y="0">ge a </tspan><tspan class="cls-23" x="136.13" y="0">m</tspan><tspan x="148.88" y="0">embe</tspan><tspan class="cls-24" x="184.25" y="0">r</tspan><tspan class="cls-25" x="189.44" y="0">’</tspan><tspan x="191.79" y="0">s ni</tspan><tspan class="cls-26" x="212.16" y="0">ck</tspan><tspan x="225.93" y="0">na</tspan><tspan class="cls-23" x="241.14" y="0">m</tspan><tspan x="253.89" y="0">e.</tspan><tspan x="0" y="16">Quanti</tspan><tspan class="cls-27" x="41.45" y="16">t</tspan><tspan class="cls-28" x="46.2" y="16">y</tspan><tspan x="52.8" y="16">: </tspan><tspan class="cls-29" x="58.49" y="16">95</tspan><tspan x="0" y="32">Requi</tspan><tspan class="cls-12" x="35.36" y="32">r</tspan><tspan x="40.02" y="32">ed l</tspan><tspan class="cls-27" x="61.78" y="32">e</tspan><tspan class="cls-10" x="68.9" y="32">v</tspan><tspan class="cls-9" x="75.23" y="32">el: </tspan><tspan class="cls-30" x="91.39" y="32">L</tspan><tspan class="cls-29" x="98.05" y="32">V 2</tspan><tspan class="cls-29"><tspan class="cls-27" x="0" y="48">P</tspan><tspan class="cls-19" x="8.66" y="48">r</tspan><tspan x="13.79" y="48">i</tspan><tspan class="cls-31" x="17.4" y="48">c</tspan><tspan class="cls-9" x="24.41" y="48">e:</tspan></tspan></text><rect class="cls-32" x="31.63" y="200.85" width="265.34" height="34.35" rx="4"/><text class="cls-21" transform="translate(39.66 222.81)">$ 1000</text><text class="cls-2" transform="translate(32.54 260.64)">Mu<tspan class="cls-33" x="19.7" y="0">t</tspan><tspan x="24.72" y="0">e</tspan></text><text class="cls-21" transform="translate(31.73 278.76)">Desc<tspan class="cls-13" x="29.78" y="0">r</tspan><tspan class="cls-22" x="34.5" y="0">iption: Mu</tspan><tspan class="cls-34" x="94.83" y="0">t</tspan><tspan x="99.48" y="0">e </tspan><tspan class="cls-23" x="109.87" y="0">m</tspan><tspan x="122.63" y="0">ember on t</tspan><tspan class="cls-14" x="189.61" y="0">h</tspan><tspan x="197.76" y="0">e </tspan><tspan class="cls-10" x="208.15" y="0">v</tspan><tspan class="cls-9" x="214.47" y="0">oi</tspan><tspan class="cls-11" x="225.22" y="0">c</tspan><tspan x="231.87" y="0">e</tspan><tspan class="cls-13" x="0" y="16">c</tspan><tspan x="6.66" y="16">han</tspan><tspan class="cls-23" x="29.99" y="16">n</tspan><tspan class="cls-9" x="38.14" y="16">el </tspan><tspan class="cls-11" x="51.75" y="16">f</tspan><tspan x="55.71" y="16">or 1 minu</tspan><tspan class="cls-8" x="110.83" y="16">t</tspan><tspan class="cls-9" x="115.47" y="16">e.</tspan><tspan x="0" y="32">Quanti</tspan><tspan class="cls-27" x="41.45" y="32">t</tspan><tspan class="cls-28" x="46.2" y="32">y</tspan><tspan x="52.8" y="32">: </tspan><tspan class="cls-29" x="58.49" y="32">99</tspan><tspan x="0" y="48">Requi</tspan><tspan class="cls-12" x="35.36" y="48">r</tspan><tspan x="40.02" y="48">ed l</tspan><tspan class="cls-27" x="61.78" y="48">e</tspan><tspan class="cls-10" x="68.9" y="48">v</tspan><tspan class="cls-9" x="75.23" y="48">el: </tspan><tspan class="cls-30" x="91.39" y="48">L</tspan><tspan class="cls-29" x="98.05" y="48">V 2</tspan><tspan class="cls-29"><tspan class="cls-27" x="0" y="64">P</tspan><tspan class="cls-19" x="8.66" y="64">r</tspan><tspan x="13.79" y="64">i</tspan><tspan class="cls-31" x="17.4" y="64">c</tspan><tspan class="cls-9" x="24.41" y="64">e:</tspan></tspan></text><rect class="cls-32" x="31.73" y="351.59" width="265.34" height="34.35" rx="4"/><text class="cls-21" transform="translate(38 372.94)">$ 1000</text><text class="cls-2" transform="translate(32.44 412.12)">D<tspan class="cls-35" x="9.91" y="0">e</tspan><tspan x="17.3" y="0">af</tspan></text><text class="cls-21" transform="translate(31.63 430.24)">Desc<tspan class="cls-13" x="29.78" y="0">r</tspan><tspan class="cls-22" x="34.5" y="0">iption: D</tspan><tspan class="cls-35" x="85.21" y="0">e</tspan><tspan x="92.28" y="0">af </tspan><tspan class="cls-23" x="106.57" y="0">m</tspan><tspan x="119.33" y="0">ember on t</tspan><tspan class="cls-14" x="186.31" y="0">h</tspan><tspan x="194.46" y="0">e </tspan><tspan class="cls-10" x="204.85" y="0">v</tspan><tspan class="cls-9" x="211.17" y="0">oi</tspan><tspan class="cls-11" x="221.92" y="0">c</tspan><tspan x="228.57" y="0">e</tspan><tspan class="cls-13" x="0" y="16">c</tspan><tspan x="6.66" y="16">han</tspan><tspan class="cls-23" x="29.99" y="16">n</tspan><tspan class="cls-9" x="38.14" y="16">el </tspan><tspan class="cls-11" x="51.75" y="16">f</tspan><tspan x="55.71" y="16">or 1 minu</tspan><tspan class="cls-8" x="110.83" y="16">t</tspan><tspan class="cls-9" x="115.47" y="16">e.</tspan><tspan x="0" y="32">Quanti</tspan><tspan class="cls-27" x="41.45" y="32">t</tspan><tspan class="cls-28" x="46.2" y="32">y</tspan><tspan x="52.8" y="32">: </tspan><tspan class="cls-29" x="58.49" y="32">96</tspan><tspan x="0" y="48">Requi</tspan><tspan class="cls-12" x="35.36" y="48">r</tspan><tspan x="40.02" y="48">ed l</tspan><tspan class="cls-27" x="61.78" y="48">e</tspan><tspan class="cls-10" x="68.9" y="48">v</tspan><tspan class="cls-9" x="75.23" y="48">el: </tspan><tspan class="cls-30" x="91.39" y="48">L</tspan><tspan class="cls-29" x="98.05" y="48">V 2</tspan><tspan class="cls-29"><tspan class="cls-27" x="0" y="64">P</tspan><tspan class="cls-19" x="8.66" y="64">r</tspan><tspan x="13.79" y="64">i</tspan><tspan class="cls-31" x="17.4" y="64">c</tspan><tspan class="cls-9" x="24.41" y="64">e:</tspan></tspan></text><rect class="cls-32" x="31.63" y="503.07" width="265.34" height="34.35" rx="4"/><text class="cls-21" transform="translate(37.89 524.42)">$ 1000</text><path class="cls-18" d="M0,12V566.53a12,12,0,0,0,12,12V0A12,12,0,0,0,0,12Z"/></g></g></svg>