<svg xmlns="http://www.w3.org/2000/svg" width="1079.996" height="1138.225" viewBox="0 0 1079.996 1138.225">
  <g id="Group_683" data-name="Group 683" transform="translate(-4379.002 1643)">
    <g id="background" transform="translate(3894.25 -1671.4)">
      <g id="Group_438" data-name="Group 438">
        <g id="Group_437" data-name="Group 437">
          <path id="Path_285" data-name="Path 285" d="M1086.9,136.1V419.7a1.5,1.5,0,0,0,3,0V136.1a1.5,1.5,0,0,0-3,0Z" fill="#e8e8e8"/>
        </g>
      </g>
      <g id="Group_440" data-name="Group 440">
        <g id="Group_439" data-name="Group 439">
          <path id="Path_286" data-name="Path 286" d="M1086.9,135q118.65,1.95,237.3,6.6c1.9.1,1.9-2.9,0-3q-118.65-4.65-237.3-6.6a1.5,1.5,0,0,0,0,3Z" fill="#e8e8e8"/>
        </g>
      </g>
      <g id="Group_442" data-name="Group 442">
        <g id="Group_441" data-name="Group 441">
          <path id="Path_287" data-name="Path 287" d="M1089.4,421.5c74.1,5.4,147.7,15.8,221.2,26.3,1.9.3,2.7-2.6.8-2.9-73.8-10.5-147.7-20.9-222-26.4-1.9-.1-1.9,2.9,0,3Z" fill="#e8e8e8"/>
        </g>
      </g>
      <g id="Group_444" data-name="Group 444">
        <g id="Group_443" data-name="Group 443">
          <path id="Path_288" data-name="Path 288" d="M1322.7,142.2V448.9a1.5,1.5,0,0,0,3,0V142.2a1.5,1.5,0,0,0-3,0Z" fill="#e8e8e8"/>
        </g>
      </g>
      <g id="Group_446" data-name="Group 446">
        <g id="Group_445" data-name="Group 445">
          <path id="Path_289" data-name="Path 289" d="M1308.8,447.6c4.9.7,9.8,1.6,14.6,2.5,1.9.4,2.7-2.5.8-2.9-4.9-1-9.7-1.8-14.6-2.5-1.9-.2-2.7,2.6-.8,2.9Z" fill="#e8e8e8"/>
        </g>
      </g>
      <g id="Group_448" data-name="Group 448">
        <g id="Group_447" data-name="Group 447">
          <path id="Path_290" data-name="Path 290" d="M1089.8,267.2c40.2.5,80.2,4.5,120,10,19.5,2.7,39,5.7,58.4,8.7,18.6,2.9,37.5,7.1,56.4,5.5,1.9-.2,1.9-3.2,0-3-19.6,1.6-39.3-2.9-58.5-5.9-19.8-3.1-39.6-6.1-59.4-8.8-38.8-5.2-77.7-9.1-116.9-9.6a1.551,1.551,0,0,0,0,3.1Z" fill="#e8e8e8"/>
        </g>
      </g>
      <g id="Group_450" data-name="Group 450">
        <g id="Group_449" data-name="Group 449">
          <path id="Path_291" data-name="Path 291" d="M1105.3,268.3q2.55,67.35,5.2,134.7c.1,1.9,3.1,1.9,3,0q-2.55-67.35-5.2-134.7c-.1-1.9-3.1-1.9-3,0Z" fill="#e8e8e8"/>
        </g>
      </g>
      <g id="Group_452" data-name="Group 452">
        <g id="Group_451" data-name="Group 451">
          <path id="Path_292" data-name="Path 292" d="M1114.1,404.7c68.2,8.3,136.5,15.5,204.8,22.6,1.9.2,1.9-2.8,0-3-68.3-7.2-136.6-14.4-204.8-22.6-1.9-.2-1.9,2.8,0,3Z" fill="#e8e8e8"/>
        </g>
      </g>
      <g id="Group_454" data-name="Group 454">
        <g id="Group_453" data-name="Group 453">
          <path id="Path_293" data-name="Path 293" d="M1091.3,418.9c7.5-4.3,14.9-8.6,22.4-13a1.5,1.5,0,0,0-1.5-2.6c-7.5,4.3-14.9,8.6-22.4,13a1.5,1.5,0,0,0,1.5,2.6Z" fill="#e8e8e8"/>
        </g>
      </g>
      <g id="Group_456" data-name="Group 456">
        <g id="Group_455" data-name="Group 455">
          <path id="Path_294" data-name="Path 294" d="M1111.4,250.8q91.2,7.05,182.5,14c1.9.1,1.9-2.9,0-3q-91.2-7.05-182.5-14c-1.9-.2-1.9,2.8,0,3Z" fill="#e8e8e8"/>
        </g>
      </g>
      <g id="Group_458" data-name="Group 458">
        <g id="Group_457" data-name="Group 457">
          <path id="Path_295" data-name="Path 295" d="M1104.4,229.4q99.3.45,198.6,5.7c1.9.1,1.9-2.9,0-3q-99.15-5.25-198.6-5.7a1.5,1.5,0,0,0,0,3Z" fill="#e8e8e8"/>
        </g>
      </g>
      <g id="Group_460" data-name="Group 460">
        <g id="Group_459" data-name="Group 459">
          <path id="Path_296" data-name="Path 296" d="M1116.2,198.5l136.8.3a1.5,1.5,0,0,0,0-3l-136.8-.3a1.5,1.5,0,0,0,0,3Z" fill="#e8e8e8"/>
        </g>
      </g>
      <g id="Group_462" data-name="Group 462">
        <g id="Group_461" data-name="Group 461">
          <path id="Path_297" data-name="Path 297" d="M1105.8,168.7q93.15-1.2,186.1,5c1.9.1,1.9-2.9,0-3q-92.85-6.15-186.1-5a1.5,1.5,0,0,0,0,3Z" fill="#e8e8e8"/>
        </g>
      </g>
      <g id="Group_464" data-name="Group 464">
        <g id="Group_463" data-name="Group 463">
          <path id="Path_298" data-name="Path 298" d="M1259.8,415.4c-1.3-2.9-.9-4.5,1.2-5a10.885,10.885,0,0,1,2.4-.7c1-.2,2-.4,2.9-.6a10.013,10.013,0,0,0,4.8-2.7,9.9,9.9,0,0,0,2.4-9,1.391,1.391,0,0,0-1.4-1.1c-8.3.7-7.6-12.3.9-9.7,1.5.5,2.4-1.5,1.5-2.5-6.6-7.1-19.3-24.4-10.6-33.9,2.3-2.5,6.4-4.1,9.5-2.1,1.9,1.2,3.1,3.5,4.1,5.5,1.4,2.5,2.6,5.3,5,6.9,5.4,3.6,10.9-1.4,11.8-6.8.8-5-1.6-10-1.6-15,0-3.5.7-7.4,3.3-10,2.7-2.7,7.3-3.6,10.5-1a1.511,1.511,0,0,0,2.5-1.5c-1-3.3-1.4-6.8.5-9.9,2.2-3.4,7.5-4.7,9.7-.5.9,1.7,3.5.2,2.6-1.5-2.3-4.3-7.9-5.3-12-2.8-5.2,3.2-5.3,10.2-3.7,15.4.8-.5,1.7-1,2.5-1.5-7.9-6.6-17.4.9-18.7,9.6a25.527,25.527,0,0,0,.2,7.8c.6,4.1,2.8,9.6.1,13.4-5.6,7.9-10.1-5-12.7-8.2-5.7-7.1-16-3.4-18.6,4.7-3.8,11.7,5.8,25.4,13.3,33.4.5-.8,1-1.7,1.5-2.5-4.7-1.5-10.4,1.2-11.2,6.4-.7,5.4,4.4,9.5,9.4,9.1a17.1,17.1,0,0,1-1.4-1.1c2,10.7-13.1,6-15.7,13.9a4.736,4.736,0,0,0,6.4,5.9c1.9-.7.4-3.3-1.4-2.4Z" fill="#e8e8e8"/>
        </g>
      </g>
      <g id="Group_466" data-name="Group 466">
        <g id="Group_465" data-name="Group 465">
          <path id="Path_299" data-name="Path 299" d="M1254.4,488.6v92a1.5,1.5,0,0,0,3,0v-92a1.5,1.5,0,0,0-3,0Z" fill="#e8e8e8"/>
        </g>
      </g>
      <g id="Group_468" data-name="Group 468">
        <g id="Group_467" data-name="Group 467">
          <path id="Path_300" data-name="Path 300" d="M1256.2,488.5q56.55,12.6,113,25.1c1.9.4,2.7-2.5.8-2.9q-56.55-12.6-113-25.1c-1.9-.4-2.7,2.5-.8,2.9Z" fill="#e8e8e8"/>
        </g>
      </g>
      <g id="Group_470" data-name="Group 470">
        <g id="Group_469" data-name="Group 469">
          <path id="Path_301" data-name="Path 301" d="M1257.5,583.2q49.35,16.05,99,31.2c1.9.6,2.6-2.3.8-2.9q-49.65-15.15-99-31.2c-1.8-.6-2.6,2.3-.8,2.9Z" fill="#e8e8e8"/>
        </g>
      </g>
      <g id="Group_472" data-name="Group 472">
        <g id="Group_471" data-name="Group 471">
          <path id="Path_302" data-name="Path 302" d="M1368.7,512.3V614.8a1.5,1.5,0,0,0,3,0V512.3a1.5,1.5,0,0,0-3,0Z" fill="#e8e8e8"/>
        </g>
      </g>
      <g id="Group_474" data-name="Group 474">
        <g id="Group_473" data-name="Group 473">
          <path id="Path_303" data-name="Path 303" d="M1354.7,614.5c5.3.7,10.6,1.5,15.8,2.2,1.9.3,2.7-2.6.8-2.9-5.3-.7-10.6-1.5-15.8-2.2-1.9-.2-2.7,2.7-.8,2.9Z" fill="#e8e8e8"/>
        </g>
      </g>
      <g id="Group_476" data-name="Group 476">
        <g id="Group_475" data-name="Group 475">
          <path id="Path_304" data-name="Path 304" d="M1264.8,500.4q-2.25,35.85-1,71.7c.1,1.9,3.1,1.9,3,0q-1.2-35.85,1-71.7c.1-1.9-2.9-1.9-3,0Z" fill="#e8e8e8"/>
        </g>
      </g>
      <g id="Group_478" data-name="Group 478">
        <g id="Group_477" data-name="Group 477">
          <path id="Path_305" data-name="Path 305" d="M1265,576.3c31.1,8.3,63.4,14.9,92.9,27.9,1.8.8,3.3-1.8,1.5-2.6-29.8-13.1-62.3-19.9-93.7-28.2-1.7-.5-2.5,2.4-.7,2.9Z" fill="#e8e8e8"/>
        </g>
      </g>
      <g id="Group_480" data-name="Group 480">
        <g id="Group_479" data-name="Group 479">
          <path id="Path_306" data-name="Path 306" d="M1265.4,500.4c32.3,5.5,64.5,11.6,96.6,18.1,1.9.4,2.7-2.5.8-2.9q-48.15-9.9-96.6-18.1c-1.9-.3-2.7,2.6-.8,2.9Z" fill="#e8e8e8"/>
        </g>
      </g>
      <g id="Group_482" data-name="Group 482">
        <g id="Group_481" data-name="Group 481">
          <path id="Path_307" data-name="Path 307" d="M1360.5,516.2c-2.3,28.4-3.3,56.9-3.2,85.4a1.5,1.5,0,0,0,3,0q-.3-42.75,3.2-85.4c.1-1.9-2.9-1.9-3,0Z" fill="#e8e8e8"/>
        </g>
      </g>
      <g id="Group_484" data-name="Group 484">
        <g id="Group_483" data-name="Group 483">
          <path id="Path_308" data-name="Path 308" d="M1267.1,536.9a228.219,228.219,0,0,0,35.8,13.8,1.5,1.5,0,0,0,.8-2.9,210.2,210.2,0,0,1-35.1-13.5c-1.7-.8-3.2,1.8-1.5,2.6Z" fill="#e8e8e8"/>
        </g>
      </g>
      <g id="Group_486" data-name="Group 486">
        <g id="Group_485" data-name="Group 485">
          <path id="Path_309" data-name="Path 309" d="M1311.9,508.7a343.652,343.652,0,0,0-11.8,41.4c-.4,1.9,2.5,2.7,2.9.8a354.41,354.41,0,0,1,11.8-41.4c.6-1.9-2.3-2.6-2.9-.8Z" fill="#e8e8e8"/>
        </g>
      </g>
      <g id="Group_488" data-name="Group 488">
        <g id="Group_487" data-name="Group 487">
          <path id="Path_310" data-name="Path 310" d="M1308.7,525.9c9-1.7,16.1,8.1,17.6,15.8,1.6,8.2-2.1,15.7-8.1,21.3-6.4,5.9-15.3,7.7-23.1,3.2-8-4.6-10.5-15.1-7-23.2.8-1.8-1.8-3.3-2.6-1.5-3.8,8.8-2,19.6,5.7,25.7,8.3,6.6,19.9,5.8,27.8-.9,8.3-7,12.9-17.3,9.5-27.9-2.7-8.6-10.9-17.1-20.6-15.3-1.9.3-1.1,3.2.8,2.8Z" fill="#e8e8e8"/>
        </g>
      </g>
      <g id="Group_490" data-name="Group 490">
        <g id="Group_489" data-name="Group 489">
          <path id="Path_311" data-name="Path 311" d="M1326.1,576.6a51.425,51.425,0,0,1,10.2,8.3c1.3,1.4,3.5-.7,2.1-2.1a56.965,56.965,0,0,0-10.8-8.8c-1.6-1-3.1,1.6-1.5,2.6Z" fill="#e8e8e8"/>
        </g>
      </g>
      <g id="Group_492" data-name="Group 492">
        <g id="Group_491" data-name="Group 491">
          <path id="Path_312" data-name="Path 312" d="M1335.7,561.5c3.3.8,6.5,1.5,9.8,2.3,1.9.4,2.7-2.5.8-2.9-3.3-.8-6.5-1.5-9.8-2.3-1.9-.4-2.7,2.4-.8,2.9Z" fill="#e8e8e8"/>
        </g>
      </g>
      <g id="Group_494" data-name="Group 494">
        <g id="Group_493" data-name="Group 493">
          <path id="Path_313" data-name="Path 313" d="M1332.8,529.3a18.769,18.769,0,0,0,10.9-4.1c1.5-1.2-.6-3.3-2.1-2.1a15.608,15.608,0,0,1-8.8,3.3,1.451,1.451,0,1,0,0,2.9Z" fill="#e8e8e8"/>
        </g>
      </g>
      <g id="Group_496" data-name="Group 496">
        <g id="Group_495" data-name="Group 495">
          <path id="Path_314" data-name="Path 314" d="M1313.7,496.7c-.1-2.2-.4-5.4,1.9-6.6,2.2-1.2,2.8,1,2.7,2.6-.1,2.9-1,5.7,0,8.5.7,1.8,3.6,1,2.9-.8-1.5-3.9,2.3-10.1-2.1-12.9-2.1-1.4-4.8-.6-6.5,1.1-2.1,2.2-2.1,5.3-2,8.1.1,1.9,3.1,1.9,3.1,0Z" fill="#e8e8e8"/>
        </g>
      </g>
      <g id="Group_498" data-name="Group 498">
        <g id="Group_497" data-name="Group 497">
          <path id="Path_315" data-name="Path 315" d="M633.5,29.9V195.7a1.5,1.5,0,0,0,3,0V29.9a1.5,1.5,0,0,0-3,0Z" fill="#e8e8e8"/>
        </g>
      </g>
      <g id="Group_500" data-name="Group 500">
        <g id="Group_499" data-name="Group 499">
          <path id="Path_316" data-name="Path 316" d="M632.9,196.6A182.991,182.991,0,0,0,550,282.2c-.8,1.7,1.8,3.3,2.6,1.5a181.105,181.105,0,0,1,81.8-84.5c1.7-.8.2-3.4-1.5-2.6Z" fill="#e8e8e8"/>
        </g>
      </g>
      <g id="Group_502" data-name="Group 502">
        <g id="Group_501" data-name="Group 501">
          <path id="Path_317" data-name="Path 317" d="M634.8,198.4a143.762,143.762,0,0,1,77.8,79.3c.7,1.8,3.6,1,2.9-.8a146.752,146.752,0,0,0-79.9-81.4c-1.8-.7-2.6,2.2-.8,2.9Z" fill="#e8e8e8"/>
        </g>
      </g>
      <g id="Group_504" data-name="Group 504">
        <g id="Group_503" data-name="Group 503">
          <path id="Path_318" data-name="Path 318" d="M557.8,285.5c48.2-21.9,102.2-13.7,152.5-5.4,1.9.3,2.7-2.6.8-2.9-51.3-8.4-105.8-16.5-154.9,5.7-1.6.8-.1,3.4,1.6,2.6Z" fill="#e8e8e8"/>
        </g>
      </g>
      <g id="Group_506" data-name="Group 506">
        <g id="Group_505" data-name="Group 505">
          <path id="Path_319" data-name="Path 319" d="M616.6,272.7c-2.9,6.3-4.1,13.9-1,20.4,3.4,7.2,11.8,10.4,19.4,10.6,7.1.2,14.6-2.8,18.2-9.3,3.3-6.1,2.9-13.5-1.9-18.7-1.3-1.4-3.4.7-2.1,2.1,4.1,4.4,4,11.2.7,16.1-3.5,5.3-10.3,7.1-16.4,6.6-6.3-.5-12.9-3.4-15.4-9.5-2.3-5.5-1.3-11.7,1.1-17,.8-1.6-1.8-3.1-2.6-1.3Z" fill="#e8e8e8"/>
        </g>
      </g>
      <g id="Group_508" data-name="Group 508">
        <g id="Group_507" data-name="Group 507">
          <path id="Path_320" data-name="Path 320" d="M487,367.5c19.4-12.4,38.9-24.8,58.3-37.1,1.6-1,.1-3.6-1.5-2.6-19.4,12.4-38.9,24.8-58.3,37.1-1.7,1.1-.2,3.7,1.5,2.6Z" fill="#e8e8e8"/>
        </g>
      </g>
      <g id="Group_510" data-name="Group 510">
        <g id="Group_509" data-name="Group 509">
          <path id="Path_321" data-name="Path 321" d="M497.6,426.8a662.432,662.432,0,0,0,47.1-47.7c1.3-1.4-.8-3.6-2.1-2.1a662.42,662.42,0,0,1-47.1,47.7c-1.4,1.3.7,3.4,2.1,2.1Z" fill="#e8e8e8"/>
        </g>
      </g>
      <g id="Group_512" data-name="Group 512">
        <g id="Group_511" data-name="Group 511">
          <path id="Path_322" data-name="Path 322" d="M576.3,417.2q-22.5,57.9-41.9,117.1c-.6,1.8,2.3,2.6,2.9.8Q556.65,476,579.2,418c.7-1.8-2.2-2.5-2.9-.8Z" fill="#e8e8e8"/>
        </g>
      </g>
      <g id="Group_514" data-name="Group 514">
        <g id="Group_513" data-name="Group 513">
          <path id="Path_323" data-name="Path 323" d="M638.6,389.9q17.55,46.35,35.2,92.6c.7,1.8,3.6,1,2.9-.8q-17.55-46.35-35.2-92.6c-.7-1.8-3.6-1-2.9.8Z" fill="#e8e8e8"/>
        </g>
      </g>
      <g id="Group_516" data-name="Group 516">
        <g id="Group_515" data-name="Group 515">
          <path id="Path_324" data-name="Path 324" d="M693.7,347a471.5,471.5,0,0,1,49.1,47.8c1.3,1.4,3.4-.7,2.1-2.1a481.859,481.859,0,0,0-49.1-47.8c-1.4-1.3-3.5.8-2.1,2.1Z" fill="#e8e8e8"/>
        </g>
      </g>
      <g id="Group_518" data-name="Group 518">
        <g id="Group_517" data-name="Group 517">
          <path id="Path_325" data-name="Path 325" d="M720.6,306c13.6,6.7,27.3,13.3,40.9,20,1.7.8,3.3-1.7,1.5-2.6-13.6-6.7-27.3-13.3-40.9-20-1.7-.8-3.2,1.7-1.5,2.6Z" fill="#e8e8e8"/>
        </g>
      </g>
      <g id="Group_520" data-name="Group 520">
        <g id="Group_519" data-name="Group 519">
          <path id="Path_326" data-name="Path 326" d="M635.5,776.5c22.1-19,50.6-26.6,78.3-33.6,14.1-3.6,28.1-7.2,41.9-12,15.9-5.5,31.4-12.2,46.8-18.9,1.8-.8.2-3.3-1.5-2.6-16.4,7.1-32.8,14.2-49.7,19.9-14.1,4.7-28.5,8.2-42.9,11.9-26.6,6.9-53.7,14.9-74.9,33.2-1.6,1.2.5,3.3,2,2.1Z" fill="#e8e8e8"/>
        </g>
      </g>
      <g id="Group_522" data-name="Group 522">
        <g id="Group_521" data-name="Group 521">
          <path id="Path_327" data-name="Path 327" d="M826.8,262.8a1410.914,1410.914,0,0,1,194.1,25.6c1.9.4,2.7-2.5.8-2.9a1421.3,1421.3,0,0,0-194.8-25.8,1.551,1.551,0,0,0-.1,3.1Z" fill="#e8e8e8"/>
        </g>
      </g>
      <g id="Group_524" data-name="Group 524">
        <g id="Group_523" data-name="Group 523">
          <path id="Path_328" data-name="Path 328" d="M826.9,260.5a54.127,54.127,0,0,0,.6-12.7c-.1-1.9-3.1-1.9-3,0a48.312,48.312,0,0,1-.5,12c-.3,1.8,2.6,2.6,2.9.7Z" fill="#e8e8e8"/>
        </g>
      </g>
      <g id="Group_526" data-name="Group 526">
        <g id="Group_525" data-name="Group 525">
          <path id="Path_329" data-name="Path 329" d="M826.6,250.7c65.2,6.7,130.7,12.6,194.9,26.4,1.9.4,2.7-2.5.8-2.9-64.5-13.8-130.2-19.8-195.7-26.5-1.9-.2-1.9,2.8,0,3Z" fill="#e8e8e8"/>
        </g>
      </g>
      <g id="Group_528" data-name="Group 528">
        <g id="Group_527" data-name="Group 527">
          <path id="Path_330" data-name="Path 330" d="M1020.2,275.1a39.752,39.752,0,0,0,.6,11.4c.4,1.9,3.3,1.1,2.9-.8a37.59,37.59,0,0,1-.5-10.6c.2-1.9-2.8-1.9-3,0Z" fill="#e8e8e8"/>
        </g>
      </g>
      <g id="Group_530" data-name="Group 530">
        <g id="Group_529" data-name="Group 529">
          <path id="Path_331" data-name="Path 331" d="M831.6,216.3a74.244,74.244,0,0,0,4,34c.7,1.8,3.6,1,2.9-.8a71.984,71.984,0,0,1-3.9-33.2c.2-2-2.8-1.9-3,0Z" fill="#e8e8e8"/>
        </g>
      </g>
      <g id="Group_532" data-name="Group 532">
        <g id="Group_531" data-name="Group 531">
          <path id="Path_332" data-name="Path 332" d="M831.1,216.6a123.3,123.3,0,0,0,38.2,4.3c1.9-.1,1.9-3.1,0-3a123.924,123.924,0,0,1-37.4-4.2,1.5,1.5,0,0,0-.8,2.9Z" fill="#e8e8e8"/>
        </g>
      </g>
      <g id="Group_534" data-name="Group 534">
        <g id="Group_533" data-name="Group 533">
          <path id="Path_333" data-name="Path 333" d="M866.8,220.8a51.729,51.729,0,0,1-4,29.8c-.8,1.7,1.8,3.3,2.6,1.5a56.135,56.135,0,0,0,4.3-32.1c-.3-1.9-3.2-1.1-2.9.8Z" fill="#e8e8e8"/>
        </g>
      </g>
      <g id="Group_536" data-name="Group 536">
        <g id="Group_535" data-name="Group 535">
          <path id="Path_334" data-name="Path 334" d="M842.6,215.4a43.339,43.339,0,0,1-7.9-35.8,23.346,23.346,0,0,0-2.5.7,62.16,62.16,0,0,1,18.5,37.4c.2,1.9,3.2,1.9,3,0a64.421,64.421,0,0,0-19.4-39.5,1.468,1.468,0,0,0-2.5.7A46.631,46.631,0,0,0,840,217c1.1,1.4,3.7-.1,2.6-1.6Z" fill="#e8e8e8"/>
        </g>
      </g>
      <g id="Group_538" data-name="Group 538">
        <g id="Group_537" data-name="Group 537">
          <path id="Path_335" data-name="Path 335" d="M850.4,203.6a76.079,76.079,0,0,1,6.9-20.3,65.237,65.237,0,0,1,5.3-8.7c1.4-1.9,1.4-3.1,2.3-.9a29.367,29.367,0,0,1,1,5.8,53.458,53.458,0,0,1-11.2,38.7c-1.2,1.5.9,3.6,2.1,2.1,10.3-13.1,15.5-31.7,10.8-48.1-2.2-7.7-7.4.5-9.5,3.7a79.229,79.229,0,0,0-10.6,26.9c-.3,1.9,2.6,2.7,2.9.8Z" fill="#e8e8e8"/>
        </g>
      </g>
      <g id="Group_540" data-name="Group 540">
        <g id="Group_539" data-name="Group 539">
          <path id="Path_336" data-name="Path 336" d="M895.2,257a10.167,10.167,0,0,0,.3-3.9c-.1-1.2-1.2-3.7-.8-4.7,1.5-4.1,10.9-1.1,13.7-.8,9.9,1.2,19.7,2.5,29.5,3.9,19,2.7,37.9,5.8,56.7,9.1a17.108,17.108,0,0,0-1.1-1.4c.3,2.1.5,4.2.8,6.3.2,1.9,3.2,1.9,3,0-.3-2.1-.5-4.2-.8-6.3-.1-.6-.4-1.3-1.1-1.4q-33.15-6-66.4-10.5c-10.2-1.4-20.8-3.6-31.1-3.9-2.3-.1-4.6.3-5.8,2.6-1.6,3.2,1,6.8.2,10.1-.5,2,2.4,2.8,2.9.9Z" fill="#e8e8e8"/>
        </g>
      </g>
      <g id="Group_542" data-name="Group 542">
        <g id="Group_541" data-name="Group 541">
          <path id="Path_337" data-name="Path 337" d="M926,245.8c-3.8-5.8,4.2-8.9,8.6-8.9,4.2,0,8.4,1,12.6,1.6,7.6,1.1,15.3,2.2,22.9,3.4,7.5,1.1,15.1,2.4,22.6,3.8,3.4.7,6.8,1.4,10.3,2.2,3,.7,15.2,2.2,12.6,7.8-.8,1.7,1.8,3.3,2.6,1.5,4.2-9.1-9.5-11.1-15.3-12.4-12.1-2.7-24.3-4.7-36.6-6.5-6.1-.9-12.1-1.8-18.2-2.6-5.4-.8-11.3-2.4-16.8-1.5-6.1.9-11.6,7.3-7.7,13.2.9,1.5,3.5,0,2.4-1.6Z" fill="#e8e8e8"/>
        </g>
      </g>
      <g id="Group_544" data-name="Group 544">
        <g id="Group_543" data-name="Group 543">
          <path id="Path_338" data-name="Path 338" d="M994.7,260.5a50.982,50.982,0,0,0,21.3,1c1.9-.3,1.1-3.2-.8-2.9a48.514,48.514,0,0,1-19.7-1c-1.9-.4-2.7,2.5-.8,2.9Z" fill="#e8e8e8"/>
        </g>
      </g>
      <g id="Group_546" data-name="Group 546">
        <g id="Group_545" data-name="Group 545">
          <path id="Path_339" data-name="Path 339" d="M551.5,285.6a590.482,590.482,0,0,0,62.4,3.9,1.5,1.5,0,0,0,0-3,618.406,618.406,0,0,1-62.4-3.9c-1.9-.2-1.9,2.8,0,3Z" fill="#e8e8e8"/>
        </g>
      </g>
      <g id="Group_548" data-name="Group 548">
        <g id="Group_547" data-name="Group 547">
          <path id="Path_340" data-name="Path 340" d="M655.6,288.2c19.5,0,38.6-2.4,57.7-6.2,1.9-.4,1.1-3.3-.8-2.9a285.611,285.611,0,0,1-56.9,6.1,1.5,1.5,0,0,0,0,3Z" fill="#e8e8e8"/>
        </g>
      </g>
      <g id="Group_550" data-name="Group 550">
        <g id="Group_549" data-name="Group 549">
          <path id="Path_341" data-name="Path 341" d="M583.4,353.7l-30,53.4a1.5,1.5,0,0,0,2.6,1.5l30-53.4c.9-1.7-1.7-3.2-2.6-1.5Z" fill="#e8e8e8"/>
        </g>
      </g>
      <g id="Group_552" data-name="Group 552">
        <g id="Group_551" data-name="Group 551">
          <path id="Path_342" data-name="Path 342" d="M650.9,335.3A351.866,351.866,0,0,1,668.7,367c.9,1.7,3.5.2,2.6-1.5-5.4-10.8-11.4-21.4-17.8-31.7a1.5,1.5,0,0,0-2.6,1.5Z" fill="#e8e8e8"/>
        </g>
      </g>
      <g id="Group_554" data-name="Group 554">
        <g id="Group_553" data-name="Group 553">
          <path id="Path_343" data-name="Path 343" d="M695.4,313.9c7.6,4.4,15.1,8.7,22.7,13.1a1.5,1.5,0,0,0,1.5-2.6c-7.6-4.4-15.1-8.7-22.7-13.1a1.5,1.5,0,0,0-1.5,2.6Z" fill="#e8e8e8"/>
        </g>
      </g>
    </g>
    <g id="bed" transform="translate(3894.25 -1671.4)">
      <g id="Group_556" data-name="Group 556">
        <g id="Group_555" data-name="Group 555">
          <path id="Path_344" data-name="Path 344" d="M894.8,947.9a2298.62,2298.62,0,0,0,218.8-71.3q53.1-20.25,105-43.2c17.6-7.7,35-15.7,52.4-23.9,17.1-8,33.9-16.7,51.2-24.1,19.8-8.5,41-15.2,62.8-13.8,21.9,1.4,41.7,11.7,60.8,21.7,1.7.9,3.2-1.7,1.5-2.6-16-8.4-32.4-17-50.3-20.6-17.4-3.4-35.1-1.3-52,3.7-18,5.3-34.9,13.6-51.7,21.7-17.5,8.5-35.2,16.8-52.9,24.8a2289.059,2289.059,0,0,1-219.9,86.4q-62.7,21-126.4,38.2a1.54,1.54,0,0,0,.7,3Z" fill="#191919"/>
        </g>
      </g>
      <g id="Group_558" data-name="Group 558">
        <g id="Group_557" data-name="Group 557">
          <path id="Path_345" data-name="Path 345" d="M1393.2,799.3c14.1,2.8,27.4-2.6,41.3-4.1,15.9-1.7,31.4,2.9,46.2,8.2a433.494,433.494,0,0,1,81.8,39.3,1.5,1.5,0,0,0,1.5-2.6,439.09,439.09,0,0,0-80.8-39c-13.8-5-28.3-9.6-43.2-9.3-15.5.4-30.5,7.6-46,4.6-1.9-.4-2.7,2.5-.8,2.9Z" fill="#191919"/>
        </g>
      </g>
      <g id="Group_560" data-name="Group 560">
        <g id="Group_559" data-name="Group 559">
          <path id="Path_346" data-name="Path 346" d="M798.8,1023.1c-10.9,17.4-14.8,37.7-17.1,57.8-2.7,23.5-4.8,47.1-7.1,70.6-.2,1.9,2.8,1.9,3,0,2.2-22.4,4.3-44.8,6.7-67.2,2.3-20.7,5.8-41.7,17.1-59.7,1-1.6-1.5-3.1-2.6-1.5Z" fill="#191919"/>
        </g>
      </g>
      <g id="Group_562" data-name="Group 562">
        <g id="Group_561" data-name="Group 561">
          <path id="Path_347" data-name="Path 347" d="M869.6,1066.5c-17.8,29.7-20.2,64.9-20.1,98.7a1.5,1.5,0,0,0,3,0c-.1-33.3,2.1-68,19.7-97.2a1.5,1.5,0,0,0-2.6-1.5Z" fill="#191919"/>
        </g>
      </g>
      <g id="Group_564" data-name="Group 564">
        <g id="Group_563" data-name="Group 563">
          <path id="Path_348" data-name="Path 348" d="M718.1,1055.7c17.4-19.1,37.5-37.9,59.6-51.4,23-14,49.6-16.5,75.8-18.4,1.9-.1,1.9-3.1,0-3-26.1,2-52.8,4.4-75.8,17.9-11.2,6.6-21.2,14.9-31,23.2a341.95,341.95,0,0,0-30.7,29.5c-1.3,1.5.8,3.6,2.1,2.2Z" fill="#191919"/>
        </g>
      </g>
      <g id="Group_566" data-name="Group 566">
        <g id="Group_565" data-name="Group 565">
          <path id="Path_349" data-name="Path 349" d="M1173.3,740.9q83.1,15.15,165.2,35.1a1.5,1.5,0,0,0,.8-2.9q-82.05-19.95-165.2-35.1c-1.9-.3-2.7,2.6-.8,2.9Z" fill="#191919"/>
        </g>
      </g>
    </g>
    <g id="pillows" transform="translate(3894.25 -1671.4)">
      <path id="Path_350" data-name="Path 350" d="M912.6,533.9a134.22,134.22,0,0,1,3.8,31.4c0,38.8-17.4,74.3-22.7,85a162.3,162.3,0,0,0-14.6,39,127.686,127.686,0,0,0-2.7,15.2c4,.4,10.1,1.1,17.3,2.2,16.2,2.4,23,4.5,32.5,6a136.458,136.458,0,0,0,34.7.5c-.4,3.7-1.1,9.2-2.2,15.7-2.6,16.2-3.9,24.2-7,30.3-4.8,9.4-10.1,12.1-8.7,16.2,1,3,4.8,4.4,14.1,6.5,15.3,3.5,23.5,3.9,31.4,5.4,8.8,1.7,9.1,3.1,28.2,10.3,16.5,6.2,26,9.8,37.9,12.5a195.48,195.48,0,0,0,49.8,4.3c14.6-.5,19.9-2.3,33.6-1.1a132.014,132.014,0,0,1,27.1,5.4c.9-5.6,2.2-14,3.2-24.4,2.2-22.2.5-25.9,3.8-36.8,2.5-8.5,3.8-7.1,13.5-27.6,6.3-13.4,9.5-20.1,11.9-28.2a126.206,126.206,0,0,0,4.9-39c-.6-20-5.2-16.2-7-37.9-.2-2.8-.6-8.9-4-10.2-2.5-1-5.5,1.1-9,3.4a204.459,204.459,0,0,1-19.4,11.3c-5,2.4-13.1,4.2-26.2.3,1.4-4.5,3.2-10.7,5.1-18.3a309.92,309.92,0,0,0,6.2-33.8s3.4-23.8-1.1-37.7c-.9-2.7-2.2-4.8-4.2-5.6s-3.9,0-5.9.6a42.513,42.513,0,0,1-12.7,1.7,36.405,36.405,0,0,0-3.9-5.6c-2.3-2.7-6.9-7.2-15.8-10.7-11-4.4-23.3-5.1-35.2-5.1-20.2,0-21.7,2.2-41.3,2.3-10.3,0-19,.1-30.7-1.7-20.4-3-21.9-7.4-33.2-6.2-7.9.8-15.2,4.6-29.8,12.1C925.1,526.3,917.8,530.7,912.6,533.9Z" fill="#fff"/>
      <g id="Group_568" data-name="Group 568">
        <g id="Group_567" data-name="Group 567">
          <path id="Path_351" data-name="Path 351" d="M1021.9,605.8c23.7-3.4,45.2,10.1,66.8,17.4a172.909,172.909,0,0,0,68.9,8.2c1.9-.2,1.9-3.2,0-3a172.354,172.354,0,0,1-73.3-9.9c-20.5-7.6-40.7-18.8-63.2-15.5-1.9.2-1.1,3,.8,2.8Z" fill="#191919"/>
        </g>
      </g>
      <g id="Group_570" data-name="Group 570">
        <g id="Group_569" data-name="Group 569">
          <path id="Path_352" data-name="Path 352" d="M1030.1,608.9c-8.1-3.4-16.5-16.3-26.2-9.5-4.4,3-6.2,8.6-7.7,13.4-2.4,7.6-4.2,15.4-6.2,23.2-4,16.2-10.2,31-17.3,46.1-6.5,13.6-11.9,27.1-14.7,42-2.6,13.9-3.9,28.6-11.1,41.1-2,3.6-7.8,8.9-3.4,12.9,4.2,3.9,12.5,6,17.8,7.4,7,1.9,14.1,2.3,21.4,2.6,8.9.3,16.5,2.5,24.5,6,14.5,6.2,28.9,12.7,44.1,17,18,5.1,35.2,5.2,53.8,4a181.343,181.343,0,0,1,58.7,5.3,1.566,1.566,0,0,0,1.8-1c7.3-18.5,1.9-38.7,7.1-57.6s18.6-34.2,24.5-52.9c5.8-18,6.8-37.4,4.6-56.1a171.328,171.328,0,0,0-5.2-26.6c-1.2-4.5-2.3-15.4-9.4-12.8-4.3,1.6-8.5,5-12.3,7.6-4.2,2.8-8.4,5.7-12.8,8.3-9.3,5.7-19.2,10.2-30.3,10.1a1.5,1.5,0,0,0,0,3c16.1.1,29.6-8.9,42.5-17.5,3.3-2.2,6.6-4.5,10.1-6.5a10.15,10.15,0,0,1,2.7-1.6c4.9-.8,3.3.9,4.4,2.8,1.2,2,1.6,5.2,2.2,7.4a170.312,170.312,0,0,1,5.3,27.6c1.9,18.2.8,36.9-5,54.4-5.7,17.3-17.6,31.6-23.3,48.8-6.6,19.8-.3,41.4-8.1,60.9.6-.3,1.2-.7,1.8-1a176.654,176.654,0,0,0-44-5.9c-15.5-.1-31,2.6-46.5,1-15.1-1.6-29.7-6.3-43.8-11.9-12.9-5.1-26.1-13.1-40-15-7.1-1-14.4-.4-21.5-1.6-6.5-1.1-15.7-2.8-20.9-6.8-2.3-1.8-2.7-3.1-1.5-5.8.6-1.4,1.9-2.7,2.6-4a50.559,50.559,0,0,0,3.6-7.4,104.613,104.613,0,0,0,5.2-18.4c2.6-13.1,4.2-26.2,8.9-38.8,5-13.4,12.1-26,17.6-39.2,6.4-15.3,9.1-31.6,13.9-47.5,2.1-6.9,5.7-19.2,15.4-14.8,5.5,2.5,9.3,7.7,14.9,10.1,2.1.5,3.6-2.1,1.8-2.8Z" fill="#191919"/>
        </g>
      </g>
      <g id="Group_572" data-name="Group 572">
        <g id="Group_571" data-name="Group 571">
          <path id="Path_353" data-name="Path 353" d="M1072.5,641.1a86.854,86.854,0,0,0,42,4c1.9-.3,1.1-3.2-.8-2.9a84.144,84.144,0,0,1-40.4-4c-1.9-.7-2.6,2.2-.8,2.9Z" fill="#191919"/>
        </g>
      </g>
      <g id="Group_574" data-name="Group 574">
        <g id="Group_573" data-name="Group 573">
          <path id="Path_354" data-name="Path 354" d="M1139.9,631.8a80.148,80.148,0,0,0,29.6-3.7c1.8-.6,1-3.5-.8-2.9a75.852,75.852,0,0,1-28.8,3.5c-2,0-1.9,3,0,3.1Z" fill="#191919"/>
        </g>
      </g>
      <g id="Group_576" data-name="Group 576">
        <g id="Group_575" data-name="Group 575">
          <path id="Path_355" data-name="Path 355" d="M915.8,534.6c8.4-5.1,16.7-10.2,25.1-15.2,8-4.8,15.8-8.5,25.4-8.2,10,.4,19.8,3.7,29.6,5.5a195.207,195.207,0,0,0,26.4,2.7c32.2.9,75.2-12.8,99.5,16.1,1.2,1.5,3.4-.7,2.1-2.1-24.6-29.2-67.1-16.4-99.7-16.9a184.88,184.88,0,0,1-31.4-3.3c-9.4-1.9-18.8-5-28.4-4.9-8.7.1-16.2,3.4-23.6,7.7-8.9,5.2-17.7,10.7-26.5,16.1-1.7.9-.2,3.5,1.5,2.5Z" fill="#191919"/>
        </g>
      </g>
      <g id="Group_578" data-name="Group 578">
        <g id="Group_577" data-name="Group 577">
          <path id="Path_356" data-name="Path 356" d="M1081.5,541.2a123.446,123.446,0,0,0,35.9-1c5.5-1,10.9-2.9,16.4-3.7,3-.4,6.6-.7,9.3.9,3.7,2.1,4,6.8,4.1,10.6.4,26.7-3.8,53.7-11.3,79.3a1.5,1.5,0,0,0,2.9.8,284.126,284.126,0,0,0,9.2-43.6c1-7.6,1.6-15.3,2-23,.3-6.4,1.4-14.1-.5-20.3-3.1-10.4-15.2-8-23.1-6a121.465,121.465,0,0,1-44.9,3.1c-1.9-.4-1.9,2.6,0,2.9Z" fill="#191919"/>
        </g>
      </g>
      <g id="Group_580" data-name="Group 580">
        <g id="Group_579" data-name="Group 579">
          <path id="Path_357" data-name="Path 357" d="M911,533.2c.3,16.7,6,32.8,4.9,49.7-1,14.9-6,29.1-11.8,42.7-11,25.8-25.6,50.5-29,78.8-.1.8.8,1.5,1.5,1.5,7.6-.2,14.7,1.8,22,3.6a208.575,208.575,0,0,0,20.9,4.1,192.991,192.991,0,0,0,42.3,1c1.9-.2,1.9-3.2,0-3a189.336,189.336,0,0,1-44.5-1.3c-13.5-2.1-26.8-7.6-40.6-7.3l1.5,1.5c3.6-29.4,19.6-54.9,30.6-81.9,5.2-12.7,9.3-25.9,10.3-39.6,1.1-16.8-4.6-32.9-4.9-49.7-.2-2.1-3.2-2.1-3.2-.1Z" fill="#191919"/>
        </g>
      </g>
      <path id="Path_358" data-name="Path 358" d="M1049.6,605.5c5.4.7,24.9,3.4,38.9-5.5,11.2-7.1,19.4-22.1,19.4-35.9,0-9.4-3.9-17.9,1-22.4,1.3-1.2,2.1-1,8-2.5,14.4-3.6,16.3-6.4,21.4-5,6,1.6,9.1,6.8,9.5,7.5,3.3,5.7,1.8,12,1,15.9-5.6,27-.3,27.8-8.5,58.3-1.6,5.8-3,10.5-4,13.5a68.384,68.384,0,0,0,16.4,0c5.7-.7,13.7-1.7,21.9-6.5s10.7-10,14.4-9c3.3.9,4.6,5.7,5.5,9,6.2,23.8,6,35.4,6,35.4-.5,26.4-.7,39.7-2.5,46.3-7.8,29-22.2,25.8-25.9,50.3-2.3,15.3,2.2,23.7-3,45.8a121.749,121.749,0,0,1-5.5,17.4,152.863,152.863,0,0,0-31.9-5.5c-20.3-1.3-28.1,2.3-47.8,2-17.2-.2-46-3.4-46.8-10.5-1.3-10.2,57.9-15.4,61.8-39.4,2.6-15.9-21.2-23.8-31.9-50.8-10.4-26.1-2-54,6.5-73.2,12.1,1.2,24.2,2.3,36.4,3.5-60.4-30-72-38.1-71.2-39.9C1039,603.6,1042.7,604.5,1049.6,605.5Z" fill="#6c6d6d" opacity="0.13"/>
      <path id="Path_359" data-name="Path 359" d="M1191.1,615.5c-3.2.2-1.8,18-8,47.8-.8,3.8-7.2,34.2-21.4,64.3-9,19.1-27.7,51.9-65.3,84.2q33.9,4.2,67.8,8.5a165.78,165.78,0,0,0,5-21.4c3.6-21.7.3-28.2,4-42.8,3.5-13.8,7.7-13.3,15.9-31.9a166.71,166.71,0,0,0,12-42.3C1205.5,647.8,1195.5,615.2,1191.1,615.5Z" fill="#6c6d6d" opacity="0.16"/>
      <path id="Path_360" data-name="Path 360" d="M1147.3,572.6c-2-.6-5.6,14.8-17.9,26.9-13.7,13.5-32.7,17.3-48.8,17.9a153.268,153.268,0,0,0,36.4,10,145.593,145.593,0,0,0,20.9,1.5C1148,584.7,1149,573.1,1147.3,572.6Z" fill="#6c6d6d" opacity="0.18"/>
    </g>
    <g id="leg_right_1_" transform="translate(3894.25 -1671.4)">
      <path id="Path_361" data-name="Path 361" d="M621.3,986.6c2.8,19,5.6,37.9,8.3,56.9q-63,82.95-54.8,90.8,8.85,8.4,100.8-70.5c-2.1-32.7-4.2-65.3-6.3-98C653.3,972.7,637.3,979.7,621.3,986.6Z" fill="#191919"/>
      <path id="Path_362" data-name="Path 362" d="M787,730.5a329.617,329.617,0,0,0-109.9,61.1c-18.5,15.6-37.3,31.7-52.7,59.5-13.2,23.8-17.1,44-22.9,75.6a515.434,515.434,0,0,0-8.4,100.7c13.2-1,27.2-2.4,42-4.6,18.7-2.7,36-6.1,51.9-9.9a323.814,323.814,0,0,1,8.4-76.3,337.909,337.909,0,0,1,16-50.4c41.5-38.4,80-56.4,108.4-65.6,34.3-11.2,62.7-12.5,84.7-38.2,13.1-15.2,27.3-43,17.6-58.8C902.9,692.6,801.7,725.7,787,730.5Z" fill="#fff" stroke="#191919" stroke-miterlimit="10" stroke-width="2"/>
      <path id="Path_363" data-name="Path 363" d="M910.1,715c-6.1,1.2-4.4,17.1-9.7,31.4-9.6,25.6-38.2,36.9-61.2,46C703.9,846.2,689,856.8,677.3,873.1c-11.1,15.5-15.9,32-25.4,65a394.278,394.278,0,0,0-14.6,83.4l49.8-8.1a335.02,335.02,0,0,1,1.6-35.2,343.691,343.691,0,0,1,22.7-93.1c6.3-5.2,15.1-12.2,26-20,22.2-15.9,38.2-27.4,60.1-36.3,17.1-7,18.5-4.5,61.2-18.9,11.8-4,18.2-6.4,26-11.4,18-11.5,26.9-26.3,30.9-33,6.7-11.4,11.6-19.7,9.7-30.3C923.5,724.4,915.4,713.9,910.1,715Z" fill="#6c6d6d" opacity="0.14"/>
      <path id="Path_364" data-name="Path 364" d="M765.6,842.8c-36.5,6.7-56,23.2-65,32.5-17,17.6-24,39.6-37.4,82.8-7.7,24.9-12.6,45.9-15.7,60.6,12.5-1.6,24.9-3.2,37.4-4.9a354.635,354.635,0,0,1,4.9-52.5,291.789,291.789,0,0,1,22.7-75.8C730.2,871.3,747.9,857,765.6,842.8Z" fill="#6c6d6d" opacity="0.16"/>
    </g>
    <g id="blanket" transform="translate(3894.25 -1671.4)">
      <path id="Path_365" data-name="Path 365" d="M640.4,819.2a58.668,58.668,0,0,1,18.3-13c22.4-9.8,45.5-1.6,59.4,3.2,31.1,10.8,64.1,16.4,93.9,30.2C857.1,860.5,916.3,888,978.2,899c69.4,12.3,84.2-6.4,178.1,7.6a637.764,637.764,0,0,1,80.9,17.3c-8,16.1-16.3,21.2-22.7,22.7-4.3,1-6.5.1-9.7,2.2-8,5.2-3.8,17-9.7,25.9-5.8,8.7-17,7.9-29.1,10.8-24.6,5.8-27,20.3-55,38.9-13.6,9-39.2,25.9-68,24.8-30.9-1.2-34.8-21.9-69.1-33.5-42.8-14.4-55.8,11.7-113.3,7.6-12.1-.9-71.7-5.1-113.3-46.4-28.4-28.1-23.2-48.6-55-80.9-24.3-24.7-51.5-37.5-70.2-44.3,2.3-4.8,4.9-9.7,7.7-14.8C633.3,830.5,636.9,824.7,640.4,819.2Z" fill="#fff" stroke="#191919" stroke-miterlimit="10" stroke-width="2"/>
      <g id="Group_582" data-name="Group 582">
        <g id="Group_581" data-name="Group 581">
          <path id="Path_366" data-name="Path 366" d="M652.7,819a104.847,104.847,0,0,1,40.1,9.2c1.3.6,2.5-1.3,1.1-1.9a108.881,108.881,0,0,0-41.2-9.6,1.15,1.15,0,0,0,0,2.3Z" fill="#191919"/>
        </g>
      </g>
      <g id="Group_584" data-name="Group 584">
        <g id="Group_583" data-name="Group 583">
          <path id="Path_367" data-name="Path 367" d="M685.8,875.7c23.6,13.5,36.1,38.7,52.5,59.3a181.539,181.539,0,0,0,65.1,51.1c1.3.6,2.4-1.3,1.1-1.9A181.085,181.085,0,0,1,737.2,930c-15.2-20-27.7-43.3-50.2-56.2-1.3-.8-2.5,1.2-1.2,1.9Z" fill="#191919"/>
        </g>
      </g>
      <g id="Group_586" data-name="Group 586">
        <g id="Group_585" data-name="Group 585">
          <path id="Path_368" data-name="Path 368" d="M1116.1,945.5a643.49,643.49,0,0,0,84.4-4.7c1.4-.2,1.4-2.4,0-2.3a643.489,643.489,0,0,1-84.4,4.7,1.15,1.15,0,0,0,0,2.3Z" fill="#191919"/>
        </g>
      </g>
      <g id="Group_588" data-name="Group 588">
        <g id="Group_587" data-name="Group 587">
          <path id="Path_369" data-name="Path 369" d="M1107.6,982.8a255.555,255.555,0,0,0,31.7,9.4,1.142,1.142,0,0,0,.6-2.2,262.7,262.7,0,0,1-31.7-9.4c-1.4-.5-2,1.7-.6,2.2Z" fill="#191919"/>
        </g>
      </g>
      <g id="Group_590" data-name="Group 590">
        <g id="Group_589" data-name="Group 589">
          <path id="Path_370" data-name="Path 370" d="M756.9,913.7c24.7,21.9,54.6,39.3,86.6,48a103.3,103.3,0,0,0,48.8,1.5c17.2-3.7,33.2-11.1,48.5-19.7,1.3-.7.1-2.7-1.1-1.9-14.6,8.2-29.9,15.3-46.2,19.1-17.1,4-34.2,3.2-51.1-1.6-31-8.8-59.8-25.6-83.9-46.9-1.1-1.1-2.7.5-1.6,1.5Z" fill="#191919"/>
        </g>
      </g>
      <g id="Group_592" data-name="Group 592">
        <g id="Group_591" data-name="Group 591">
          <path id="Path_371" data-name="Path 371" d="M896.2,900.5a33.241,33.241,0,0,1,17.4,9c5.2,5.2,10.7,17.3.5,20.7a1.141,1.141,0,0,0,.6,2.2c7.8-2.6,8.9-11.4,5.4-18-4.6-8.7-14-14.2-23.3-16-1.4-.3-2,1.9-.6,2.1Z" fill="#191919"/>
        </g>
      </g>
      <g id="Group_594" data-name="Group 594">
        <g id="Group_593" data-name="Group 593">
          <path id="Path_372" data-name="Path 372" d="M930.4,959.1c21.5-13.9,47.3-16.6,72.2-18.9,1.4-.1,1.4-2.4,0-2.3-25.3,2.3-51.5,5.1-73.3,19.2-1.2.8-.1,2.8,1.1,2Z" fill="#191919"/>
        </g>
      </g>
      <g id="Group_596" data-name="Group 596">
        <g id="Group_595" data-name="Group 595">
          <path id="Path_373" data-name="Path 373" d="M721,824.8c22.1,5.9,39.5,21,57.9,33.7a244.553,244.553,0,0,0,62,30.9c1.4.5,2-1.7.6-2.2a241.35,241.35,0,0,1-64.2-32.6c-17.6-12.4-34.6-26.4-55.8-32.1a1.186,1.186,0,0,0-.5,2.3Z" fill="#191919"/>
        </g>
      </g>
      <path id="Path_374" data-name="Path 374" d="M696.7,802.3a324.244,324.244,0,0,1,61.9,37.4c14.2,11,18.8,16.7,34.2,26.3a207.544,207.544,0,0,0,49.9,23.5c30,9.4,43,5.3,54.5,18.5,1.5,1.7,10.1,11.5,8.8,23.5-1.6,15-17.7,28.5-40.6,31.9a142.173,142.173,0,0,0,21.7-1.4,147.525,147.525,0,0,0,44.8-13.8c-3.5,4.1-7.1,8.8-6,10.2,1.5,1.9,11.2-3.6,18-6.9,12.5-6.1,20.8-6.9,50.3-11.5,65.1-10.1,71.4-13,91.9-11.1,15.8,1.5,34.2,5.4,34.2,8.8-.1,3.5-20.4,4.8-20.3,6.5.2,2.1,36.2,11.9,72-.9,8.1-2.9,28.4-11.3,35.5-3.7,2,2.1,3,5.6,6.5,6.5,4.2,1.1,8.6-2.6,11.5-5.1a39.758,39.758,0,0,0,11.5-16.6c-1.9-.6-4.6-1.4-7.8-2.3a547.593,547.593,0,0,0-56.3-12.5c-9.1-1.5-26.1-4.4-46.2-6-42.1-3.4-53.2,1.9-91.4.9a418.62,418.62,0,0,1-75.3-9.2c-32.1-7-55.2-16.2-93.7-31.9-33.5-13.6-37.3-17-62.3-27.2A673.931,673.931,0,0,0,696.7,802.3Z" fill="#6c6d6d" opacity="0.13"/>
      <path id="Path_375" data-name="Path 375" d="M987.6,1019.3a197.508,197.508,0,0,1,37.4-11.5c6-1.2,11.7-2.1,17.1-2.8-1.6,3.8-3.3,7.6-5.1,11.5-4.6,10.1-9.4,19.4-14.3,28.2Q1005.15,1032.1,987.6,1019.3Z" fill="#6c6d6d" opacity="0.18"/>
      <path id="Path_376" data-name="Path 376" d="M1168.5,962.1c-25.4,5.8-44.2,4.1-44.3,5.5-.1,1.2,12.6,3.5,68.8,8.8,1.7-3.9,3.5-8.2,5.1-12.9,1.5-4.4,2.7-8.6,3.7-12.5A175.447,175.447,0,0,1,1168.5,962.1Z" fill="#6c6d6d" opacity="0.15"/>
      <path id="Path_377" data-name="Path 377" d="M897.1,899.8c-.4.8,9.4,3,14.3,11.5,3.6,6.3,3.3,13.6,1.8,19.9,1-.4,6.8-2.8,8.3-8.3,1.5-5.7-2.7-10.6-5.1-13.4C909,900.7,897.5,898.9,897.1,899.8Z" fill="#6c6d6d" opacity="0.22"/>
      <path id="Path_378" data-name="Path 378" d="M1037.4,903.5a488.345,488.345,0,0,1,128.8,4.2,500.5,500.5,0,0,1,68.8,16.6,31.916,31.916,0,0,1-6.5,12,37.984,37.984,0,0,1-10.2,7.8c-15.3,7.9-39.2,0-40.6-.5a160.165,160.165,0,0,0,21.7-4.6c4.5-1.3,8.6-2.7,12.5-4.2a398.084,398.084,0,0,0-43.4-15.2A418.678,418.678,0,0,0,1037.4,903.5Z" fill="#6c6d6d" opacity="0.15"/>
    </g>
    <g id="arm_right" transform="translate(3894.25 -1671.4)">
      <path id="Path_400" data-name="Path 400" d="M834.4,515.8c-7.4-3.9-17,.4-22.3,2.8-9.4,4.2-20,12.8-32.1,41.1a235.588,235.588,0,0,0-18.1,74.6A125.518,125.518,0,0,1,718,644.8c-19.8.9-30.1-3.6-35.6,2.8-6.9,8-1,27.2,9.8,38.4,12.1,12.6,28.7,13.4,39.8,13.9,8.1.4,37.6.8,64.2-19.5,25.7-19.7,32.6-46.5,40.5-76.7C838.7,595.1,855.8,527,834.4,515.8Z" fill="#fff" stroke="#191919" stroke-miterlimit="10" stroke-width="2"/>
      <path id="Path_401" data-name="Path 401" d="M826.2,514.7c-8.7,3.1-3.8,28.1-6,56.3-.5,6-4,47.9-21.7,73.1C770,684.6,704,682.3,688.6,681.5a36.672,36.672,0,0,0,10.3,11.4c6,4.2,12.5,5.8,21.1,6.5,9,.7,23.3,1.9,42.2-3.8,9.8-3,34.7-10.5,51.4-33.6,4.6-6.3,7.2-12.5,12.5-24.9a257.461,257.461,0,0,0,14.6-47.6s3.4-16.3,3.2-56.3c0-4.5-1-8.4-3.8-11.9C836.9,516.9,830.3,513.2,826.2,514.7Z" fill="#6c6d6d" opacity="0.12"/>
      <path id="Path_402" data-name="Path 402" d="M837.6,587.8c-1.1-.3-4.1,15.8-17.9,40.6-9,16.3-20.9,37-42.8,52.5-22.4,15.8-43.5,17.8-43.3,18.4.2.8,42.9-.6,72-28.7C838.1,639.2,839.5,588.3,837.6,587.8Z" fill="#6c6d6d" opacity="0.25"/>
    </g>
    <g id="torso" transform="translate(3894.25 -1671.4)">
      <path id="Path_403" data-name="Path 403" d="M835.7,498.5a112.481,112.481,0,0,0-26,25.3c-23.1,30.4-25.8,63.5-26.7,78-2.1,32.2,6.7,39.1,7.9,89.5.4,16.7-.2,30.4-.7,39A163.536,163.536,0,0,0,866,760.6c45.9,5.8,81.2-9.8,94.6-16.6A178.048,178.048,0,0,0,989,710.2c10.2-15.8,17.3-32.7,26.9-72a897.312,897.312,0,0,0,17.4-92.1c-8-11.5-36.2-48.7-87.9-62C936.1,481.7,880.7,467.5,835.7,498.5Z" fill="#3a3a3a"/>
      <path id="Path_404" data-name="Path 404" d="M938.6,482.7a179.334,179.334,0,0,1,8.3,43.3c2.1,30.3-3.9,56.9-16.7,90.7-22,58.3-52.6,107.4-77.1,141.8a178.588,178.588,0,0,0,31.8,2.6A186.41,186.41,0,0,0,960,744.4a186.046,186.046,0,0,0,22.4-26.1c3.6-5,14.5-20.9,24.5-47.9,18.2-49,24.2-109.8,25.5-124.6a150.572,150.572,0,0,0-50.6-46.9A147.629,147.629,0,0,0,938.6,482.7Z" fill="#050505" opacity="0.09"/>
      <path id="Path_405" data-name="Path 405" d="M1029.8,563a748.773,748.773,0,0,1-40.1,90.2c-12.4,23.5-19.5,36.7-31.8,51.6-24.9,30.1-54.8,47.3-78.2,57.3a210.814,210.814,0,0,0,34.4-3.6,201.352,201.352,0,0,0,44.3-14.1,143.236,143.236,0,0,0,26.1-26.6c12-16.1,18.8-32.6,27.6-66.2A759.4,759.4,0,0,0,1029.8,563Z" fill="#6c6d6d" opacity="0.14"/>
    </g>
    <g id="leg_left" transform="translate(3894.25 -1671.4)">
      <path id="Path_406" data-name="Path 406" d="M795.6,896.6l-28.2,50.1q-100.65,27-98.9,38.3,1.8,12.15,122.8,5.9,27.45-40.65,55-81.4Z" fill="#191919"/>
      <path id="Path_407" data-name="Path 407" d="M972.8,723.7c25.7,15.2,29.7,59.7,17.8,90.6-19.2,49.6-77.3,58.5-79.8,58.8,22.8-26.2,34.1-39.3,34.1-39.4q-.15-.15-105.9,120.2c-6.9-.9-35.6-5.3-55.9-30.5a81.355,81.355,0,0,1-16.9-38.1q63.15-72.9,126.2-145.7C917,716.4,950.4,710.5,972.8,723.7Z" fill="#fff" stroke="#191919" stroke-miterlimit="10" stroke-width="2"/>
      <path id="Path_408" data-name="Path 408" d="M974.7,726.3c.8,13,.3,32.6-8.3,53.5-11,26.9-29.8,42.5-42.7,52.9-37.4,30.2-80.1,64.1-128.7,100.7a77.876,77.876,0,0,0,13.4,10.2,80.088,80.088,0,0,0,30,10.8L911,872.8a114.333,114.333,0,0,0,27.4-7.6c10.2-4.3,28.2-12.2,42.1-31.2,12-16.6,14.6-33.1,15.9-42.1,1.5-10.6,3.5-24-2.5-39.5A65.191,65.191,0,0,0,974.7,726.3Z" fill="#6c6d6d" opacity="0.16"/>
      <path id="Path_409" data-name="Path 409" d="M993.8,760A157.269,157.269,0,0,1,976,811c-20.8,36.8-51.4,55.1-65.6,62.5,11.2-1.8,34.6-7.2,55.4-26.1,5.9-5.4,17.7-16.3,24.9-35A90.25,90.25,0,0,0,993.8,760Z" fill="#6c6d6d" opacity="0.19"/>
      <path id="Path_410" data-name="Path 410" d="M943.5,833.3q-4.05-4.05-129.4,113.4c7.9,2.8,15.7,5.5,23.6,8.3Q947.35,837.25,943.5,833.3Z" fill="#6c6d6d" opacity="0.12"/>
    </g>
    <g id="book" transform="translate(3894.25 -1671.4)">
      <path id="Path_411" data-name="Path 411" d="M670,563.4h3.1c.3-1.1.6-2.3.9-3.4,1.2,2.5,3.2,6.6,5.7,11.7,11,22.3,13.2,26,15.2,32.7a105.161,105.161,0,0,1,4.1,23.5c1.9-1.3,4.7-3.1,8.3-5.1,19.4-10.6,35.6-10.7,50.2-13.3,10.9-2,26.2-6.4,44.1-17.1-1.1,1.5-2.2,3.1-3.3,4.6,1.7.6,3.5,1.3,5.2,1.9a26.964,26.964,0,0,1,3.4,6.1c5.8,14.3-2.8,30-11.1,44.4-33.9,59.6-37.4,62.7-43.5,65.7-2.5,1.3-27.7,13.6-45.6,2.2-3.7-2.3-10.4-7.8-19-46.7-5.9-26.5-6.6-41.3-12.2-76.1C673.4,581.3,671.4,570.5,670,563.4Z" fill="#fff" stroke="#191919" stroke-miterlimit="10" stroke-width="2"/>
      <g id="Group_626" data-name="Group 626">
        <g id="Group_625" data-name="Group 625">
          <path id="Path_412" data-name="Path 412" d="M675.7,568.9c8.5,18.2,16.9,36.7,19.5,56.7.1.5.8.5.8,0-2.6-20.2-11-38.8-19.6-57.1a.407.407,0,0,0-.7.4Z" fill="#191919"/>
        </g>
      </g>
      <g id="Group_628" data-name="Group 628">
        <g id="Group_627" data-name="Group 627">
          <path id="Path_413" data-name="Path 413" d="M672.5,565.7A239.391,239.391,0,0,1,685,598.4c.1.5.9.3.7-.2a242.444,242.444,0,0,0-12.6-32.9c-.2-.4-.8,0-.6.4Z" fill="#191919"/>
        </g>
      </g>
      <g id="Group_630" data-name="Group 630">
        <g id="Group_629" data-name="Group 629">
          <path id="Path_414" data-name="Path 414" d="M686.2,597.8a132.825,132.825,0,0,1,6.8,27.8c.1.5.8.5.8,0a134.631,134.631,0,0,0-6.8-28c-.2-.4-1-.2-.8.2Z" fill="#191919"/>
        </g>
      </g>
      <g id="Group_632" data-name="Group 632">
        <g id="Group_631" data-name="Group 631">
          <path id="Path_415" data-name="Path 415" d="M677.5,583.6a322.547,322.547,0,0,1,11.9,34.7c.1.5.9.3.7-.2a322.521,322.521,0,0,0-11.9-34.7c-.1-.5-.9-.3-.7.2Z" fill="#191919"/>
        </g>
      </g>
      <g id="Group_634" data-name="Group 634">
        <g id="Group_633" data-name="Group 633">
          <path id="Path_416" data-name="Path 416" d="M700.8,630.4a99.7,99.7,0,0,1,41.4-15.8c.5-.1.3-.8-.2-.7a100.531,100.531,0,0,0-41.6,15.8c-.4.3,0,1,.4.7Z" fill="#191919"/>
        </g>
      </g>
      <g id="Group_636" data-name="Group 636">
        <g id="Group_635" data-name="Group 635">
          <path id="Path_417" data-name="Path 417" d="M707,629.2c13-7.9,27.7-10.9,42.3-14.2a286.7,286.7,0,0,0,45.3-14.2c.4-.2.2-.9-.2-.7a284.28,284.28,0,0,1-47,14.6c-14.1,3.2-28.3,6.3-40.8,13.9-.3.2,0,.8.4.6Z" fill="#191919"/>
        </g>
      </g>
      <g id="Group_638" data-name="Group 638">
        <g id="Group_637" data-name="Group 637">
          <path id="Path_418" data-name="Path 418" d="M704.6,632.7c15.4-7.3,31.1-11.8,47.6-15.8,16.2-4,31.9-10.2,47.7-15.6.5-.2.3-.9-.2-.7-16.3,5.6-32.6,12.1-49.4,16-15.9,3.8-31.2,8.5-46.1,15.5-.4.2,0,.8.4.6Z" fill="#191919"/>
        </g>
      </g>
      <path id="Path_419" data-name="Path 419" d="M669.5,563.2c7.3,23.1,14.7,46.1,22,69.2l10.8,3.6q51.3-16.95,102.5-33.8c1.2,1,2.4,2,3.6,3.1q5.85,71.25,11.8,142.4c-1.4.9-2.7,1.7-4.1,2.6-34.7,5.3-69.3,10.6-104,15.9-5-1.2-9.9-2.4-14.9-3.6-4.4-19.5-8.9-38.9-13.3-58.4L664.4,565.9C666.1,564.9,667.8,564.1,669.5,563.2Z" fill="#fff" stroke="#191919" stroke-miterlimit="10" stroke-width="2"/>
      <g id="Group_640" data-name="Group 640">
        <g id="Group_639" data-name="Group 639">
          <path id="Path_420" data-name="Path 420" d="M689.8,633c1.6,43.3,4.7,86.7,7.1,130,.1,1.4,2.3,1.4,2.3,0-2.4-43.3-5.5-86.6-7.1-130-.1-1.4-2.3-1.4-2.3,0Z" fill="#191919"/>
        </g>
      </g>
      <g id="Group_642" data-name="Group 642">
        <g id="Group_641" data-name="Group 641">
          <path id="Path_421" data-name="Path 421" d="M700.2,635.8a326.38,326.38,0,0,1,2,37c0,1.4,2.2,1.4,2.3,0a326.38,326.38,0,0,0-2-37c-.2-1.5-2.5-1.5-2.3,0Z" fill="#191919"/>
        </g>
      </g>
      <path id="Path_422" data-name="Path 422" d="M727.5,639.2c.6,7.5,1.1,15,1.7,22.5,22.1-6.7,44.2-13.5,66.2-20.2-.7-7.8-1.4-15.6-2-23.4C771.4,625.2,749.5,632.2,727.5,639.2Z" fill="#707070"/>
      <path id="Path_423" data-name="Path 423" d="M762.4,617.2a110.323,110.323,0,0,1-54.8,100.3c-.4-8.2-.9-16.4-1.3-24.5-3.4,5.7-6.7,11.4-10.1,17.1.7,17.8,1.5,35.6,2.2,53.5,4.8,1,9.6,2,14.5,3.1,33.7-5.4,67.5-10.8,101.2-16.2,1.8-.7,3.5-1.5,5.3-2.2q-5.7-72.15-11.4-144.2C792.8,608.5,777.6,612.8,762.4,617.2Z" fill="#6c6d6d" opacity="0.16"/>
      <path id="Path_424" data-name="Path 424" d="M700.7,636.7c-.7,0-1.5,18.5-1,38.6.6,28.6,3.3,41.1,2.5,68.4-.3,8.9-.8,16.2-1.2,20.9,3.7.5,7.5,1,11.2,1.5-.7-4.9-1.7-12-2.7-20.5C701.7,682,701.8,636.7,700.7,636.7Z" fill="#6c6d6d" opacity="0.1"/>
    </g>
    <g id="fingers" transform="translate(3894.25 -1671.4)">
      <path id="Path_425" data-name="Path 425" d="M670.1,632.7c-1.1.4-1,2.4-1.9,11.7-.6,6.3-.8,6.4-.6,7.9.5,4.2,2,5,2.5,9.8.3,3.1-.3,3.5.2,6.1a17.49,17.49,0,0,0,3.1,7.1,10.76,10.76,0,0,0,1,4.4c1.6,3.1,5.3,5.8,7.3,4.8,1.1-.5,1.4-2.6,1.9-6.7.5-3.8.2-4,.6-8.4.4-3.6.7-4.3.4-6.1-.3-2.2-1.1-2.9-1.9-5.2-1.1-3.2-.6-4.4-1.3-7.7a29.821,29.821,0,0,0-5-11.5C675,636.6,671.9,632.1,670.1,632.7Z" fill="#fff"/>
      <g id="Group_644" data-name="Group 644">
        <g id="Group_643" data-name="Group 643">
          <path id="Path_426" data-name="Path 426" d="M669.3,631.7c-5.4,11.7,0,24.8,12.2,29.1,1.4.5,2-1.7.6-2.2a18.57,18.57,0,0,1-10.8-25.8c.6-1.2-1.4-2.4-2-1.1Z" fill="#191919"/>
        </g>
      </g>
      <g id="Group_646" data-name="Group 646">
        <g id="Group_645" data-name="Group 645">
          <path id="Path_427" data-name="Path 427" d="M669.7,633.6a37.211,37.211,0,0,1,12,25.3c.1,1.4,2.3,1.4,2.3,0A39.143,39.143,0,0,0,671.3,632c-1.1-1-2.7.6-1.6,1.6Z" fill="#191919"/>
        </g>
      </g>
      <g id="Group_648" data-name="Group 648">
        <g id="Group_647" data-name="Group 647">
          <path id="Path_428" data-name="Path 428" d="M666.8,645.7A20.739,20.739,0,0,0,683,671c1.4.3,2-1.9.6-2.2A18.448,18.448,0,0,1,669,646.2c.2-1.3-1.9-1.9-2.2-.5Z" fill="#191919"/>
        </g>
      </g>
      <g id="Group_650" data-name="Group 650">
        <g id="Group_649" data-name="Group 649">
          <path id="Path_429" data-name="Path 429" d="M668.9,660.5a15.483,15.483,0,0,0,12.3,19.1c1.4.3,2-1.9.6-2.2A13.209,13.209,0,0,1,671,661.1a1.092,1.092,0,1,0-2.1-.6Z" fill="#191919"/>
        </g>
      </g>
      <g id="Group_652" data-name="Group 652">
        <g id="Group_651" data-name="Group 651">
          <path id="Path_430" data-name="Path 430" d="M671.8,674.7a10.089,10.089,0,0,0,6.1,10.2c1.7.7,3.9.8,5.2-.7,1.4-1.6.8-4,0-5.7-.5-1.3-2.7-.7-2.2.6.5,1.1,1.5,3.3-.1,4-1.2.5-3.1-.7-4-1.4a7.775,7.775,0,0,1-2.8-7c.2-1.4-2-1.4-2.2,0Z" fill="#191919"/>
        </g>
      </g>
      <g id="Group_654" data-name="Group 654">
        <g id="Group_653" data-name="Group 653">
          <path id="Path_431" data-name="Path 431" d="M682.1,679.4c2.2,0,3.1-2.2,3.4-4.1a9.792,9.792,0,0,0-1.2-6.7c-.7-1.3-2.7-.1-1.9,1.1a7.579,7.579,0,0,1,1.1,3.8c0,.7-.2,3.6-1.4,3.6-1.4.1-1.4,2.3,0,2.3Z" fill="#191919"/>
        </g>
      </g>
      <g id="Group_656" data-name="Group 656">
        <g id="Group_655" data-name="Group 655">
          <path id="Path_432" data-name="Path 432" d="M684.9,670.2c1.4-1.3,1.4-3.8,1.1-5.6a10.609,10.609,0,0,0-2.9-6c-1-1.1-2.6.5-1.6,1.6a8.14,8.14,0,0,1,2.1,4c.2,1.1.5,3.5-.4,4.4-.9,1.1.7,2.7,1.7,1.6Z" fill="#191919"/>
        </g>
      </g>
    </g>
    <g id="hand_left" transform="translate(3894.25 -1671.4)">
      <path id="Path_433" data-name="Path 433" d="M1004.3,529.2c-25.6.4-42.2,39.6-47.2,51.4-7.2,17.1-5.9,24.2-16.3,68.5-3.6,15.6-7,28.2-9.2,36.3a97.12,97.12,0,0,1-50.5,9.6c-13.7-1.2-29.2-2.6-40.3-13.9-10.8-11-9.7-23.3-21.1-27.1-7.4-2.5-16.3-.2-17.4,3.2-.7,2.4,2.6,4.3,6.8,12.4a54.811,54.811,0,0,1,3.2,7.4,174.324,174.324,0,0,1-32.9,5.6c-20.1,1.4-33.5-1.2-37.5,5.9-1.6,2.8-2.2,8.3.5,12.1a10.21,10.21,0,0,0,4.5,3.5,9.779,9.779,0,0,0-1.6,8.6,9.539,9.539,0,0,0,5.7,5.9,10.042,10.042,0,0,0,.5,8.7,9.874,9.874,0,0,0,6.9,4.7,9.206,9.206,0,0,0,.2,6.1c1.5,3.6,5.4,5.2,8.8,6.3a80.921,80.921,0,0,0,33.4,3.3A84.869,84.869,0,0,0,838,731.8a113.583,113.583,0,0,0,47.6,25.9c8.5,2.2,34.9,8.8,63.9-2.1,30.8-11.5,46.3-35.8,59.7-56.8,14.4-22.6,19.7-41.7,26.7-66.8,9.9-35.6,14.7-53.8,5.8-72.6C1035.7,546,1021.2,528.9,1004.3,529.2Z" fill="#fff" stroke="#191919" stroke-miterlimit="10" stroke-width="2"/>
      <g id="Group_658" data-name="Group 658">
        <g id="Group_657" data-name="Group 657">
          <path id="Path_434" data-name="Path 434" d="M745.5,704.2a72.968,72.968,0,0,0,40.1,1.6c1.4-.3.8-2.5-.6-2.2a70.526,70.526,0,0,1-38.9-1.6,1.141,1.141,0,0,0-.6,2.2Z" fill="#191919"/>
        </g>
      </g>
      <g id="Group_660" data-name="Group 660">
        <g id="Group_659" data-name="Group 659">
          <path id="Path_435" data-name="Path 435" d="M750.9,719.3a84.764,84.764,0,0,0,38.8.5c1.4-.3.8-2.5-.6-2.2a83.747,83.747,0,0,1-37.6-.5,1.141,1.141,0,0,0-.6,2.2Z" fill="#191919"/>
        </g>
      </g>
      <g id="Group_662" data-name="Group 662">
        <g id="Group_661" data-name="Group 661">
          <path id="Path_436" data-name="Path 436" d="M757.1,732.4a70.447,70.447,0,0,0,35,1.7c1.4-.3.8-2.5-.6-2.2a67.9,67.9,0,0,1-33.8-1.7,1.141,1.141,0,0,0-.6,2.2Z" fill="#191919"/>
        </g>
      </g>
      <path id="Path_437" data-name="Path 437" d="M1027.5,538.3a305.332,305.332,0,0,1-13.7,77.9c-11.6,37-23.9,76.2-61,100.6-9.3,6.1-33.6,21.9-66.9,19.1a100.424,100.424,0,0,1-51-19.6,132.53,132.53,0,0,1-39.2,11.8,105.561,105.561,0,0,1-22.3.9,91.732,91.732,0,0,1-22.8-4.6c2.3,2.6,4.6,5.2,6.8,7.7a10.854,10.854,0,0,0,1.4,7.7c2,3.1,5.5,4.3,11.8,5.5,8.6,1.6,12.9,2.4,20.5,2.3,6.9-.2,16.6-.5,28.2-5a70.349,70.349,0,0,0,18.2-10.5,124.176,124.176,0,0,0,19.1,13.2c9.7,5.5,29.8,16.6,57.4,16.4,7.9-.1,26.2-.4,46-10.9,12.7-6.8,20.4-14.8,28.2-23.2,16.4-17.6,24.8-34.3,31.4-47.8,10.5-21.4,14.7-37.7,20.9-62.4,7.5-29.3,6.8-38.2,5.5-44.6C1042.9,556.7,1033.9,545.1,1027.5,538.3Z" fill="#6c6d6d" opacity="0.12"/>
      <path id="Path_438" data-name="Path 438" d="M1043,598.4a414.4,414.4,0,0,1-30.4,76.5c-22.6,43.7-38.4,54.7-43.9,58.3-18.8,12.2-37.3,14.6-45.1,15.5-47.9,5.2-84.1-20.8-85.6-17.8-1.2,2.4,20.7,20.7,51,27.3,9,2,35.9,7.5,65.1-5.5,21.6-9.6,33.6-24.5,42.8-36,13.2-16.4,19.4-31.1,26.4-48.3A305.423,305.423,0,0,0,1043,598.4Z" fill="#6c6d6d" opacity="0.2"/>
      <path id="Path_439" data-name="Path 439" d="M759.3,738.2a103.033,103.033,0,0,0,26,4.6c24.6,1.1,43.7-7.1,53.7-12.3-3.7,3.5-20.6,18.7-46,18.2A63.881,63.881,0,0,1,759.3,738.2Z" fill="#6c6d6d" opacity="0.12"/>
    </g>
    <path id="Path_440" data-name="Path 440" d="M831,364.5c-3.3,5.6-4.1,16-5.7,36.8-1.7,22.5-.5,32.7-1.3,49.4a299.812,299.812,0,0,1-7.7,54.5c9,17.1,19.8,23.6,25.7,26.3,29.8,13.8,67.1-8,91.8-22.5a222.917,222.917,0,0,0,27-18.6,119.83,119.83,0,0,1-8.3-21.2c-4.3-14.8-3.9-23.7-5.1-40.4-2.9-39.5-3-48.3-9-60.3-3-6-5.5-11.2-10.7-16.1C902.8,329.1,847.1,337.5,831,364.5Z" transform="translate(3894.25 -1671.4)" fill="#fff" stroke="#161616" stroke-miterlimit="10" stroke-width="2"/>
    <path id="Path_441" data-name="Path 441" d="M823.3,431A79.28,79.28,0,0,0,813,504.5c2.6,7.1,8.9,23.4,25.8,34.9a65.016,65.016,0,0,0,24.8,10.1c-3.4-3.7-6.7-7.4-10.1-11.1a45.161,45.161,0,0,0,23.7,5.6,46.329,46.329,0,0,0,25.3-9.1c7.7-5.9,10.9-12.6,16.2-24.2,7-15.2,11.9-26.1,11.6-40.4-.4-18.6-9.3-23-6.1-40.4.7-3.9,2.9-15.9,10.1-17.7,3.4-.8,7.1.9,9.1,3,4.3,4.5,3.9,13.7-2.5,21.2a26.848,26.848,0,0,0,15.2-9.6c7.6-10.2,5.7-24.9-1.5-33.3-1.8-2.1-5.1-6-10.1-6.6-6.7-.8-12.3,5-22.2,16.7-20.7,24.5-20.4,28.8-30.8,36.4a60.4,60.4,0,0,1-27.1,11.3c-5.6.7-14,1.7-23.2-2.5A39.127,39.127,0,0,1,823.3,431Z" transform="translate(3894.25 -1671.4)" fill="#161616"/>
    <g id="Group_664" data-name="Group 664" transform="translate(3894.25 -1671.4)">
      <g id="Group_663" data-name="Group 663">
        <path id="Path_442" data-name="Path 442" d="M853.8,402.8a195.875,195.875,0,0,0-4,39.7c0,2.9,0,7.3,3.6,8.2,3.8.9,9.4-3.8,12.2-5.7,1.6-1.1.1-3.7-1.5-2.6-2.5,1.7-10.8,7.8-11.3,2a116.344,116.344,0,0,1,.3-13.2,196.637,196.637,0,0,1,3.6-27.6c.4-1.8-2.5-2.6-2.9-.8Z" fill="#161616"/>
      </g>
    </g>
    <g id="Group_666" data-name="Group 666" transform="translate(3894.25 -1671.4)">
      <g id="Group_665" data-name="Group 665">
        <path id="Path_443" data-name="Path 443" d="M838.3,414a7.152,7.152,0,0,1-.1-7.7,25.129,25.129,0,0,1-2.7-.4,17.66,17.66,0,0,1,1.2,8.8c.7-.3,1.5-.6,2.2-.9-.3-.2-.6-.3-.9-.5-1.7-.9-3.2,1.7-1.5,2.6.3.2.6.3.9.5.8.4,2.1.1,2.2-.9a19.369,19.369,0,0,0-1.2-10.4,1.509,1.509,0,0,0-2.7-.4,10.078,10.078,0,0,0,.1,10.7,1.434,1.434,0,1,0,2.5-1.4Z" fill="#161616"/>
      </g>
    </g>
    <g id="Group_668" data-name="Group 668" transform="translate(3894.25 -1671.4)">
      <g id="Group_667" data-name="Group 667">
        <path id="Path_444" data-name="Path 444" d="M881.3,413.1a7.109,7.109,0,0,1-1-3.5,9.849,9.849,0,0,1,.2-1.7l.3-.9c.4-.6.1-.7-.9-.4-.1.1.7,3.2.7,3.5a14.974,14.974,0,0,1-.4,4.2,23.346,23.346,0,0,0,2.5-.7,2.656,2.656,0,0,1-1.1-2.2c-.1-1.9-3.1-1.9-3,0a5.841,5.841,0,0,0,2,4.3,1.512,1.512,0,0,0,2.5-.7,19.929,19.929,0,0,0,.2-7.3c-.3-1.6-.9-4.2-3-4-2,.2-2.6,2.9-2.8,4.5a10.036,10.036,0,0,0,1.3,6.3,1.434,1.434,0,1,0,2.5-1.4Z" fill="#161616"/>
      </g>
    </g>
    <g id="Group_670" data-name="Group 670" transform="translate(3894.25 -1671.4)">
      <g id="Group_669" data-name="Group 669">
        <path id="Path_445" data-name="Path 445" d="M878.6,407.7c.2,1.8.3,3.6.5,5.4.2,1.9,3.2,1.9,3,0-.2-1.8-.3-3.6-.5-5.4-.2-1.9-3.2-1.9-3,0Z" fill="#161616"/>
      </g>
    </g>
    <g id="Group_672" data-name="Group 672" transform="translate(3894.25 -1671.4)">
      <g id="Group_671" data-name="Group 671">
        <path id="Path_446" data-name="Path 446" d="M878.4,411.8c-.3,1.3-.4,2.8.6,3.7a2.416,2.416,0,0,0,3.5,0,1.485,1.485,0,0,0-2.1-2.1c-.2.3.2-.1.4-.2h.2c-.1,0,.2.1,0,0,.1.1.1.2.2.3s0-.2,0-.1V413c0-.2.1-.3.1-.5a1.39,1.39,0,0,0-1-1.8,1.69,1.69,0,0,0-1.9,1.1Z" fill="#161616"/>
      </g>
    </g>
    <g id="Group_674" data-name="Group 674" transform="translate(3894.25 -1671.4)">
      <g id="Group_673" data-name="Group 673">
        <path id="Path_447" data-name="Path 447" d="M835,405.4a15.229,15.229,0,0,0,.3,9.2c.6,1.8,3.5,1,2.9-.8a12.332,12.332,0,0,1-.3-7.6c.5-1.8-2.4-2.6-2.9-.8Z" fill="#161616"/>
      </g>
    </g>
    <g id="Group_676" data-name="Group 676" transform="translate(3894.25 -1671.4)">
      <g id="Group_675" data-name="Group 675">
        <path id="Path_448" data-name="Path 448" d="M837.7,410.6a7.727,7.727,0,0,1,.1-3.7c-1-.3-1.9-.5-2.9-.8a15.07,15.07,0,0,0-.1,5.6,1.456,1.456,0,0,0,2.8-.8,10.77,10.77,0,0,1,.1-4c.4-1.9-2.4-2.7-2.9-.8a13.513,13.513,0,0,0-.1,5.3c.5,1.9,3.3,1.1,3-.8Z" fill="#161616"/>
      </g>
    </g>
    <g id="Group_678" data-name="Group 678" transform="translate(3894.25 -1671.4)">
      <g id="Group_677" data-name="Group 677">
        <path id="Path_449" data-name="Path 449" d="M831.2,399.7a6.042,6.042,0,0,1,10.5-1.9c1,1.1,2.5-.5,1.6-1.6a8.268,8.268,0,0,0-14.2,2.9c-.6,1.4,1.6,2,2.1.6Z" fill="#161616"/>
      </g>
    </g>
    <g id="Group_680" data-name="Group 680" transform="translate(3894.25 -1671.4)">
      <g id="Group_679" data-name="Group 679">
        <path id="Path_450" data-name="Path 450" d="M873.6,399.7c3.6-5.8,12.1-2,14.2,3,.5,1.3,2.7.7,2.2-.6-2.8-6.9-13.6-11-18.3-3.6a1.124,1.124,0,0,0,1.9,1.2Z" fill="#161616"/>
      </g>
    </g>
    <g id="Group_682" data-name="Group 682" transform="translate(3894.25 -1671.4)">
      <g id="Group_681" data-name="Group 681">
        <path id="Path_451" data-name="Path 451" d="M790.2,370.9q82.5,10.95,164.9,21.8c5.7.8,5.7-8.3,0-9q-82.5-10.95-164.9-21.8c-5.7-.8-5.7,8.2,0,9Z" fill="#161616"/>
      </g>
    </g>
    <path id="Path_452" data-name="Path 452" d="M828.6,367.1a74.091,74.091,0,0,1,12.2-28.4c3.1-4.4,8.5-12.1,17.8-17.6,17.6-10.5,44.6-9.5,64.1,3.7a57.264,57.264,0,0,1,24.2,58.4Q887.8,375.1,828.6,367.1Z" transform="translate(3894.25 -1671.4)" fill="#848484"/>
    <path id="Path_453" data-name="Path 453" d="M882.5,314.8c15.4,3.1,26.9,15.6,28.3,30.3,1.2,12.1-4.7,24.2-15.2,31.4,17.3,2.2,34.5,4.5,51.8,6.7a49.925,49.925,0,0,0,.7-17.9c-2.4-16.8-12.5-27.4-17-32-3.5-3.5-16.3-16.2-36.4-18.5A54.549,54.549,0,0,0,882.5,314.8Z" transform="translate(3894.25 -1671.4)" fill="#686868"/>
    <path id="Path_454" data-name="Path 454" d="M892.6,384.5a76.356,76.356,0,0,1,3.1,22,77.423,77.423,0,0,1-10.2,37.3A45.9,45.9,0,0,0,898,435c3.2-3.2,4.4-5.5,7.8-10.5,0,0,5.7-8.4,14.2-18.6A161.578,161.578,0,0,1,935,390C920.8,388.1,906.7,386.3,892.6,384.5Z" transform="translate(3894.25 -1671.4)" fill="#6c6d6d" opacity="0.24"/>
    <path id="Path_455" data-name="Path 455" d="M933.2,412a11.352,11.352,0,0,0-5.1,4.4c-1.2,1.7-2.5,4.1-3.4,10.5-.8,5.5-1.6,10.5-.5,16.9.8,4.8,1.8,4.9,3.4,10.8a64.782,64.782,0,0,1,2.4,20.3c-.3,7.3-2,12.4-4.4,19.6A133.963,133.963,0,0,1,913.8,520c11-6.2,22.2-13,33.5-20.3,4.7-3,9.2-6,13.7-9.1a98.634,98.634,0,0,1-7.1-14.9,104.755,104.755,0,0,1-6.6-41.9c-1.9.8-3.8,1.6-5.6,2.4,5.9-9.3,5.6-18.9,1.2-22.5A10.023,10.023,0,0,0,933.2,412Z" transform="translate(3894.25 -1671.4)" fill="#6c6d6d" opacity="0.22"/>
    <path id="Path_456" data-name="Path 456" d="M945,417.4a66.614,66.614,0,0,1-4.4,12.7,77.044,77.044,0,0,1-4.9,8.8,40.969,40.969,0,0,1,10,18.6c2.3,9.8.2,17.7-2.2,26.4a91.648,91.648,0,0,1-11.8,26.2c9.4-6.4,18.8-12.7,28.2-19.1a138.212,138.212,0,0,1-9.8-31.3,134.429,134.429,0,0,1-2.2-26c-2.4.9-4.7,1.8-7.1,2.7a18.616,18.616,0,0,0,4.9-8.8A18.33,18.33,0,0,0,945,417.4Z" transform="translate(3894.25 -1671.4)" fill="#6c6d6d" opacity="0.21"/>
    <path id="Path_457" data-name="Path 457" d="M891.9,384.1c11.9,4.2,23.9,8.4,35.8,12.6,2.7-2.2,5.4-4.5,8.2-6.7C921.2,388,906.6,386,891.9,384.1Z" transform="translate(3894.25 -1671.4)" fill="#6c6d6d" opacity="0.19"/>
  </g>
</svg>
