<svg xmlns="http://www.w3.org/2000/svg" width="1296.111" height="871.203" viewBox="0 0 1296.111 871.203">
  <g id="pixeltrue-newsletter" transform="translate(-218.814 -129.651)">
    <g id="background">
      <g id="Group_2" data-name="Group 2">
        <g id="Group_1" data-name="Group 1">
          <path id="Path_1" data-name="Path 1" d="M1256.6,884.3a184.038,184.038,0,0,1-41.8-67.8c-.3.6-.7,1.2-1,1.8,2.3-.5,4.5-.9,6.8-1.4a1.48,1.48,0,0,0,.4-2.7c-8.6-4.6-9.6-19.4-11.5-27.9-2.5-11.1-4.8-22.2-6.8-33.3q-6.3-34.2-9.7-68.9c-.8.4-1.5.9-2.3,1.3a356.739,356.739,0,0,1,47.5,33.5c13.4,11.3,26.8,23.4,36.3,38.2,10.2,15.7,15.1,34.7,18.1,52.9,3.4,20.1,3.4,40.6-1.4,60.5a1.5,1.5,0,0,0,2.9.8c7.5-30.3,3.7-62.6-5.9-92-9.3-28.1-30.3-48.4-52.8-66.6a363.947,363.947,0,0,0-43.1-29.9,1.55,1.55,0,0,0-2.3,1.3q3.6,37.05,10.5,73.5c2.3,12.1,4.8,24.2,7.7,36.1,1.9,8.1,3.2,18.7,11.3,23.1a25.1,25.1,0,0,1,.4-2.7c-2.3.5-4.5.9-6.8,1.4a1.4,1.4,0,0,0-1,1.8,187.564,187.564,0,0,0,42.6,69.1c1.2,1.4,3.3-.7,1.9-2.1Z" fill="#e8e8e8"/>
        </g>
      </g>
      <g id="Group_4" data-name="Group 4">
        <g id="Group_3" data-name="Group 3">
          <path id="Path_2" data-name="Path 2" d="M1193.3,686.6a460.1,460.1,0,0,1,73.2,174.5c.4,1.9,3.3,1.1,2.9-.8A462.14,462.14,0,0,0,1195.8,685c-1-1.5-3.6,0-2.5,1.6Z" fill="#e8e8e8"/>
        </g>
      </g>
      <g id="Group_6" data-name="Group 6">
        <g id="Group_5" data-name="Group 5">
          <path id="Path_3" data-name="Path 3" d="M1205.3,772.8c15.1,3.3,31,7,41.5,19.3,1.2,1.5,3.4-.7,2.1-2.1-10.8-12.7-27.2-16.7-42.8-20.1-1.9-.4-2.7,2.5-.8,2.9Z" fill="#e8e8e8"/>
        </g>
      </g>
      <g id="Group_8" data-name="Group 8">
        <g id="Group_7" data-name="Group 7">
          <path id="Path_4" data-name="Path 4" d="M1245.1,773a85.2,85.2,0,0,1,6.7-40.8c.8-1.8-1.8-3.3-2.6-1.5a87.676,87.676,0,0,0-7.1,42.3c.2,1.9,3.2,1.9,3,0Z" fill="#e8e8e8"/>
        </g>
      </g>
      <g id="Group_10" data-name="Group 10">
        <g id="Group_9" data-name="Group 9">
          <path id="Path_5" data-name="Path 5" d="M1269.2,745.5c7.2-44.8,37.9-79.6,67.3-112.1-.8-.5-1.7-1-2.5-1.5-6.9,24.7,9.3,47.6,15.2,70.8a178.379,178.379,0,0,1,5,39.2c.2,6.5.1,13.1-.1,19.6a51.13,51.13,0,0,1-.8,9.6c-1,4.3-5.8,11-10.9,6.5l-1.8,2.4c8.8,4.6,5.6,17.8,4.2,25.5-1.8,10.4-4.8,20.3-11.5,28.7-9.7,12-23.6,20.9-28.2,36.3-.6,1.9,2.3,2.6,2.9.8,5.7-18.8,25.8-27.8,34.1-45.2,4.3-9,6.2-19.6,7.1-29.4.7-7.1,0-15.6-7.1-19.2-1.4-.7-3.2,1.2-1.8,2.4,3.1,2.8,7.4,2.8,10.9.5,3.9-2.6,5.1-7.4,5.5-11.9,1.6-15.1.9-31-.9-46a167.534,167.534,0,0,0-11.4-43c-5.9-14.8-12-30.5-7.5-46.6a1.526,1.526,0,0,0-2.5-1.5c-29.7,32.9-60.8,68.2-68.1,113.4-.3,1.8,2.6,2.6,2.9.7Z" fill="#e8e8e8"/>
        </g>
      </g>
      <g id="Group_12" data-name="Group 12">
        <g id="Group_11" data-name="Group 11">
          <path id="Path_6" data-name="Path 6" d="M1330.6,642.1a549.08,549.08,0,0,0-38.3,160.7c-.2,1.9,2.8,1.9,3,0a547.71,547.71,0,0,1,38.2-159.9c.7-1.7-2.2-2.5-2.9-.8Z" fill="#e8e8e8"/>
        </g>
      </g>
      <g id="Group_14" data-name="Group 14">
        <g id="Group_13" data-name="Group 13">
          <path id="Path_7" data-name="Path 7" d="M1044.8,799.2c24.5,5.3,48.4-6.5,72-11.2a213.578,213.578,0,0,1,78.9-.4c1.9.3,2.7-2.5.8-2.9a218.806,218.806,0,0,0-73.1-.9c-12.4,2-24.4,5.4-36.4,8.8-13.5,3.7-27.4,6.7-41.3,3.7-2-.4-2.8,2.4-.9,2.9Z" fill="#e8e8e8"/>
        </g>
      </g>
      <g id="Group_16" data-name="Group 16">
        <g id="Group_15" data-name="Group 15">
          <path id="Path_8" data-name="Path 8" d="M1351,790c14.2-2.7,28.2.7,41.9,4.1,13.4,3.2,26.9,6.1,40.6,8.5a612.955,612.955,0,0,0,80,8.4c1.9.1,1.9-2.9,0-3a605.639,605.639,0,0,1-84.9-9.3c-13.6-2.5-27-5.6-40.4-8.8-12.5-3-25.2-5.2-38-2.7-1.8.3-1,3.2.8,2.8Z" fill="#e8e8e8"/>
        </g>
      </g>
      <g id="Group_18" data-name="Group 18">
        <g id="Group_17" data-name="Group 17">
          <path id="Path_9" data-name="Path 9" d="M220.7,706.2c35.4-8.2,70.8-17.7,106.7-22.9a477.435,477.435,0,0,1,108.2-2.6c69.4,6,136.8,24.2,204.8,38.3,37.5,7.8,75.4,14.2,113.7,16.8,1.9.1,1.9-2.9,0-3-70.2-4.8-138.4-22.7-207-37.3-68.2-14.4-137.6-24.8-207.4-16.8-40.5,4.7-80.1,15.4-119.8,24.6-1.9.4-1.1,3.3.8,2.9Z" fill="#e8e8e8"/>
        </g>
      </g>
      <g id="Group_20" data-name="Group 20">
        <g id="Group_19" data-name="Group 19">
          <path id="Path_10" data-name="Path 10" d="M504.7,686.6c58.7-5.1,116.2-18.9,173.1-33.7q87.3-22.8,174.6-46c58.1-15.3,116.1-31,174.4-45.9,29-7.4,58.3-14.1,88.1-16.9a461.826,461.826,0,0,1,86.4.4c67,6.2,132.2,24.1,196.9,41.9a1.5,1.5,0,0,0,.8-2.9c-56.9-15.7-114.1-31.4-172.8-39.2-29.2-3.9-58.8-5.9-88.3-4.7-29,1.1-57.6,5.7-85.9,12.1-28.8,6.6-57.3,14.5-85.9,22.1l-87.6,23.1Q790,620.15,701.4,643.5c-64.7,17-129.8,34.2-196.7,40-1.9.3-1.9,3.3,0,3.1Z" fill="#e8e8e8"/>
        </g>
      </g>
      <g id="Group_22" data-name="Group 22">
        <g id="Group_21" data-name="Group 21">
          <path id="Path_11" data-name="Path 11" d="M343.6,866.4c24.4.9,48.9,1.8,73.3,2.7,23.8.9,47.7,2.3,71.5,2.5,23.2.2,45.6-4.3,68.4-8.4a671.3,671.3,0,0,1,72-9.1,702.823,702.823,0,0,1,80.8-1.2c1.9.1,1.9-2.9,0-3a694.143,694.143,0,0,0-141.1,8.3c-23.8,3.9-47.4,9.9-71.5,10.4-23.6.6-47.5-1.2-71.1-2.1l-82.2-3c-2-.2-2,2.8-.1,2.9Z" fill="#e8e8e8"/>
        </g>
      </g>
      <g id="Group_24" data-name="Group 24">
        <g id="Group_23" data-name="Group 23">
          <path id="Path_12" data-name="Path 12" d="M294.5,997.4c1.5,1.1,3,2.1,4.5,3.2,1.4,1,3-1.2,1.8-2.4-4.6-4.8-9.1-9.5-13.7-14.3-2.1-2.2-4.6-4.2-6.3-6.7-2.6-3.8.1-5.6.7-8.7.7-3.2-2.5-5-4.3-7-4-4.3-6.6-9.7-8.6-15.2-8.3-22.7-11.2-48.3-12-72.3l-1.5,1.5c25.2-2.3,39.8,21.5,48.2,41.6,9.4,22.3,18,45.6,19.1,70.1.1,1.9,3.1,1.9,3,0-1.2-26.2-10.6-51.6-21.2-75.4-8.8-19.9-24.7-41.6-49.2-39.4a1.538,1.538,0,0,0-1.5,1.5,308.216,308.216,0,0,0,3.8,38.4c2.1,12.4,4.5,25.2,9.1,36.9a48.291,48.291,0,0,0,6.6,12c2,2.5,5.4,4.7,4.2,8.4-.5,1.5-1.5,2.3-1.4,4.1.2,4.4,5,8,7.7,10.8,5,5.2,10.1,10.5,15.1,15.7l1.8-2.4c-1.5-1.1-3-2.1-4.5-3.2-1.5-.9-3,1.7-1.4,2.8Z" fill="#e8e8e8"/>
        </g>
      </g>
      <g id="Group_26" data-name="Group 26">
        <g id="Group_25" data-name="Group 25">
          <path id="Path_13" data-name="Path 13" d="M313.1,929.3A123.786,123.786,0,0,1,357,872.5a15.979,15.979,0,0,0-2.1-.5,155.041,155.041,0,0,1,11.4,40c.3-.6.7-1.2,1-1.8-2.4.7-4.8,1.4-7.3,2.1a1.522,1.522,0,0,0-.9,2.2c2.8,6.7,5.9,14.3,2.8,21.4-2.6,5.9-8.2,10.3-12.1,15.2a113.688,113.688,0,0,0-16.8,29c-.7,1.8,2.2,2.6,2.9.8,5.6-14.1,14-25.3,23.9-36.6,3.6-4.1,6.3-8.6,6.5-14.2.2-6-2.3-11.7-4.6-17.1-.3.7-.6,1.5-.9,2.2,2.4-.7,4.8-1.4,7.3-2.1a1.431,1.431,0,0,0,1-1.8,161.429,161.429,0,0,0-11.7-40.8,1.468,1.468,0,0,0-2.1-.5A127.816,127.816,0,0,0,310,928.6c-.4,1.7,2.4,2.5,3.1.7Z" fill="#e8e8e8"/>
        </g>
      </g>
      <g id="Group_28" data-name="Group 28">
        <g id="Group_27" data-name="Group 27">
          <path id="Path_14" data-name="Path 14" d="M265.5,890.2a199.418,199.418,0,0,1,47.2,104.3c.3,1.9,3.3,1.9,3,0A203.7,203.7,0,0,0,267.6,888c-1.3-1.4-3.4.7-2.1,2.2Z" fill="#e8e8e8"/>
        </g>
      </g>
      <g id="Group_30" data-name="Group 30">
        <g id="Group_29" data-name="Group 29">
          <path id="Path_15" data-name="Path 15" d="M326.7,960.9a217.659,217.659,0,0,1,19.8-47.6,1.5,1.5,0,0,0-2.6-1.5,224.115,224.115,0,0,0-20.1,48.3c-.6,1.9,2.3,2.7,2.9.8Z" fill="#e8e8e8"/>
        </g>
      </g>
      <g id="Group_32" data-name="Group 32">
        <g id="Group_31" data-name="Group 31">
          <path id="Path_16" data-name="Path 16" d="M266.5,835.7c35-6.8,70.8-9.4,106-2.7,16.4,3.1,32.6,6.7,49.2,8.6,17.5,2,35.2,2.8,52.8,3.5,1.9.1,1.9-2.9,0-3-17.6-.8-35.3-1.5-52.8-3.5-18.2-2.1-36-6.4-54.1-9.5-33.8-5.8-68.5-2.7-101.9,3.8-1.9.3-1.1,3.2.8,2.8Z" fill="#e8e8e8"/>
        </g>
      </g>
      <g id="Group_34" data-name="Group 34">
        <g id="Group_33" data-name="Group 33">
          <path id="Path_17" data-name="Path 17" d="M398.4,954.6c20-3.2,40-6.5,60.2-7.7,20.5-1.2,40.3.5,60.4,4.2a266.513,266.513,0,0,0,55,4.6c19.5-.5,39.2-1.4,58.2,3.7a1.5,1.5,0,0,0,.8-2.9c-18.4-5-37.3-4.4-56.2-3.9a274.818,274.818,0,0,1-30.1-.4c-10.3-.8-20.5-2.9-30.6-4.7a243.7,243.7,0,0,0-58.5-3.6c-20.1,1.3-40.1,4.5-60,7.7-1.9.4-1.1,3.3.8,3Z" fill="#e8e8e8"/>
        </g>
      </g>
      <g id="Group_36" data-name="Group 36">
        <g id="Group_35" data-name="Group 35">
          <path id="Path_18" data-name="Path 18" d="M948.1,978.5a930.7,930.7,0,0,1,113.1-9.4c36.9-.8,73.8.7,110.7,1.5a1.5,1.5,0,0,0,0-3c-37.5-.8-75.1-2.3-112.7-1.4a952.224,952.224,0,0,0-111.9,9.4c-1.9.3-1.1,3.1.8,2.9Z" fill="#e8e8e8"/>
        </g>
      </g>
      <g id="Group_38" data-name="Group 38">
        <g id="Group_37" data-name="Group 37">
          <path id="Path_19" data-name="Path 19" d="M1114.3,1000c14.3-6.1,29.7,1.3,44.4.6a37.008,37.008,0,0,0,9.3-1.6c4.1-1.4,7.9-3.6,12.3-3.8,7.6-.4,14.7,2.5,22.3,1.3,1.9-.3,1.1-3.2-.8-2.9-8.5,1.4-16.8-2.8-25.2-.9-3.8.8-7.2,2.8-10.9,3.9a41.179,41.179,0,0,1-11.6,1.1c-13.9-.6-27.8-5.9-41.4-.1-1.6.5-.1,3.1,1.6,2.4Z" fill="#e8e8e8"/>
        </g>
      </g>
      <g id="Group_40" data-name="Group 40">
        <g id="Group_39" data-name="Group 39">
          <path id="Path_20" data-name="Path 20" d="M1316.6,889.5c25.2-7.5,50.4-7.3,76.2-4.2,24.3,2.9,48.8,6.7,73.2,2.4,1.9-.3,1.1-3.2-.8-2.9-25.4,4.5-50.9-.1-76.2-2.9-24.9-2.8-49.2-2.5-73.3,4.8-1.7.5-1,3.4.9,2.8Z" fill="#e8e8e8"/>
        </g>
      </g>
      <g id="Group_42" data-name="Group 42">
        <g id="Group_41" data-name="Group 41">
          <path id="Path_21" data-name="Path 21" d="M1216.1,317.7c-18.6-10-30.7-29.4-27.9-50.9,2.5-19.7,18.3-36.7,37.6-41.3,19.7-4.6,41.7,4.7,52.4,21.8,11.5,18.3,9,42.5-5.1,58.7-16,18.4-44,21.2-64.2,8.2-1.6-1.1-3.1,1.5-1.5,2.6,18.8,12.2,44.8,11.4,62.2-3.1,17.3-14.4,23.7-39.4,15.1-60.3-8.2-19.9-29.2-32.9-50.7-32-21.2,1-40.4,16.3-46.8,36.4-8,24.9,5.4,50.5,27.5,62.4a1.433,1.433,0,0,0,1.4-2.5Z" fill="#e8e8e8"/>
        </g>
      </g>
      <g id="Group_44" data-name="Group 44">
        <g id="Group_43" data-name="Group 43">
          <path id="Path_22" data-name="Path 22" d="M353,536.4c10.2-9.1,24.5-2.9,32.1,6.3,3.9,4.7,6.2,10,9.2,15.2,1.9,3.5,4.7,7,8.9,7.8a8.552,8.552,0,0,0,8.2-3c1.4-1.6,2.3-3.7,3.7-5.3,3-3.5,6.9-3.1,10.1-.3,7,6.1,7.3,21.2,19.6,20.1,1.9-.2,1.9-3.2,0-3-12.8,1.2-11.3-20.3-23.6-22.4-3.6-.6-6.5,1-8.7,3.8-1.4,1.8-2.3,4.3-4.1,5.8-5.2,4.3-9.8-1.7-11.9-5.8-5.1-9.4-10.1-19.2-20.2-24.1-8.3-4-18.4-3.6-25.4,2.7-1.4,1.3.7,3.5,2.1,2.2Z" fill="#e8e8e8"/>
        </g>
      </g>
      <g id="Group_46" data-name="Group 46">
        <g id="Group_45" data-name="Group 45">
          <path id="Path_23" data-name="Path 23" d="M1026.1,401.8c-2-5.4-4.4-11.8-.8-17.1,3.3-4.7,8.9-2.3,13.6-3.8,6.2-2,10-8.1,11.7-14,2-6.9-.4-15.9,3.7-22,5-7.5,15.8,1.7,22.6-2.9,1.6-1.1.1-3.7-1.5-2.6-6.9,4.7-16.3-4.9-22.8,2.8-5.2,6.1-2.8,15.4-4.5,22.6-1.2,5-3.9,10.3-8.6,12.7-4.1,2.1-8.8,0-12.9,2.1-8.8,4.5-6,15.7-3.3,23,.5,1.7,3.4,1,2.8-.8Z" fill="#e8e8e8"/>
        </g>
      </g>
      <g id="Group_48" data-name="Group 48">
        <g id="Group_47" data-name="Group 47">
          <path id="Path_24" data-name="Path 24" d="M1036.9,331.7a14.223,14.223,0,0,1,2.9-14.7c4.6-5,9.9-3,15.6-5,3.4-1.2,5.4-4.1,6.7-7.3.8-2,1.3-4.1,2-6.1a12.856,12.856,0,0,1,2.5-4.6c1.8-1.7,6.1-3.1,7.2.7a1.505,1.505,0,0,0,2.9-.8c-1.3-4.2-6.2-5.7-10-3.7-7.2,3.7-4.6,14.7-11.3,18.4-3.7,2-8.3.8-12.2,2.4a17.411,17.411,0,0,0-6.4,5,17.009,17.009,0,0,0-2.8,16.5c.6,1.8,3.5,1,2.9-.8Z" fill="#e8e8e8"/>
        </g>
      </g>
      <g id="Group_50" data-name="Group 50">
        <g id="Group_49" data-name="Group 49">
          <path id="Path_25" data-name="Path 25" d="M1121.1,438.5a10.879,10.879,0,0,1,1.8-14c4.5-4.2,11-2.3,14.1,2.5,7.1,10.7-8.6,20.1-16.1,11.2-1.3-1.5-3.4.7-2.1,2.1,4.3,5.1,12.3,5.7,17.8,2.1,6.2-4,6.7-12.1,2.4-17.8-4.2-5.6-12-7.5-17.6-2.9-5.3,4.3-6.9,12.5-2.9,18.2,1.1,1.7,3.7.2,2.6-1.4Z" fill="#e8e8e8"/>
        </g>
      </g>
      <g id="Group_52" data-name="Group 52">
        <g id="Group_51" data-name="Group 51">
          <path id="Path_26" data-name="Path 26" d="M1132.4,455.1c-2.8-3.9-6.3-8.6-5.1-13.6,1.8-7.4,10.6-5.5,14.6-1.1,3.3,3.7,4.5,9.5.3,13-3.2,2.7-8.1,3.2-11,0-1.3-1.4-3.4.7-2.1,2.1,4,4.3,10.8,3.9,15.1.2,5.1-4.4,4.5-11.7.5-16.6-4-5-13.1-8.6-18.1-2.9-5.6,6.4-.9,14.7,3.2,20.4,1.1,1.6,3.7.1,2.6-1.5Z" fill="#e8e8e8"/>
        </g>
      </g>
      <g id="Group_54" data-name="Group 54">
        <g id="Group_53" data-name="Group 53">
          <path id="Path_27" data-name="Path 27" d="M459.9,663.5a133.172,133.172,0,0,0,34.2,5.8c1.9.1,1.9-2.9,0-3a125.707,125.707,0,0,1-33.4-5.7c-1.9-.6-2.7,2.3-.8,2.9Z" fill="#e8e8e8"/>
        </g>
      </g>
      <g id="Group_56" data-name="Group 56">
        <g id="Group_55" data-name="Group 55">
          <path id="Path_28" data-name="Path 28" d="M1209.9,583.5c68-.5,132,24.9,196.2,43.7,18.4,5.4,37,10.3,55.8,14,1.9.4,2.7-2.5.8-2.9-66.7-13.2-129.6-41.5-196.7-53a310.245,310.245,0,0,0-56.1-4.8,1.5,1.5,0,0,0,0,3Z" fill="#e8e8e8"/>
        </g>
      </g>
      <g id="Group_58" data-name="Group 58">
        <g id="Group_57" data-name="Group 57">
          <path id="Path_29" data-name="Path 29" d="M541.4,149.9c3.5,8.4,7.8,27,20.4,18.7,4.2-2.7,10.4-10.6,14.9-4.2,2.7,3.8,2.9,8.8,8,10.5,1.8.6,2.6-2.3.8-2.9-4.7-1.6-4.7-8.8-8.5-11.7a7.582,7.582,0,0,0-8.3-.4c-4,1.9-6.9,6.2-11.1,7.6-7.5,2.5-11.3-13.6-13.3-18.4-.8-1.7-3.7-1-2.9.8Z" fill="#e8e8e8"/>
        </g>
      </g>
      <g id="Group_60" data-name="Group 60">
        <g id="Group_59" data-name="Group 59">
          <path id="Path_30" data-name="Path 30" d="M572.5,151.7a10.852,10.852,0,0,1,16.6,4.2c1.7,4.1,3,6.5,7.8,6.8,2.3.1,4.8-.7,7.1-.3,4.8.8,4.8,5,5.6,8.9s2.6,7.3,6.8,7.8c1.9.2,1.9-2.8,0-3-5.5-.6-3.2-11.9-7.5-15.1-4.6-3.4-11.5,1.1-15.1-3.1-1.7-2-2.2-4.7-4-6.7a12.763,12.763,0,0,0-5.4-3.7,13.5,13.5,0,0,0-13.3,1.7c-1.7,1.1-.2,3.7,1.4,2.5Z" fill="#e8e8e8"/>
        </g>
      </g>
      <g id="Group_62" data-name="Group 62">
        <g id="Group_61" data-name="Group 61">
          <path id="Path_31" data-name="Path 31" d="M662.5,246a12.791,12.791,0,0,0,14.7-9.1c1.6-6-2.3-11.7-8-13.6-13.3-4.5-20.7,13.8-9.9,21.3,1.6,1.1,3.1-1.5,1.5-2.6-7.6-5.3-2.9-18.6,6.8-16.1,4.2,1.1,7.7,4.9,6.9,9.4a9.627,9.627,0,0,1-11.2,7.7c-1.9-.3-2.7,2.6-.8,3Z" fill="#e8e8e8"/>
        </g>
      </g>
      <g id="Group_64" data-name="Group 64">
        <g id="Group_63" data-name="Group 63">
          <path id="Path_32" data-name="Path 32" d="M672.2,251.1c-2.4-1.9-5.3-4-6.3-7.1-1.4-4.2,2.6-9.2,7.3-8a7.054,7.054,0,0,1,4.8,8.1c-1,3.8-5.3,5.7-8.9,4.8a1.5,1.5,0,0,0-.8,2.9,10.558,10.558,0,0,0,12.3-5.9c1.9-4.7-.7-10.4-5.3-12.4-4.6-1.9-9.9.6-11.9,5-2.8,6.1,2.3,11.2,6.8,14.7,1.3,1.2,3.5-.9,2-2.1Z" fill="#e8e8e8"/>
        </g>
      </g>
      <g id="Group_66" data-name="Group 66">
        <g id="Group_65" data-name="Group 65">
          <path id="Path_33" data-name="Path 33" d="M472.7,448.6c-4.6-4.1-5.5-10.3-1-14.9a8.984,8.984,0,0,1,13.4.3c7.7,8.6-3.4,19.8-12.5,13.9-1.6-1.1-3.1,1.5-1.5,2.6a13.308,13.308,0,0,0,17-2.5c4.3-5,3-12.5-1.6-16.9a11.984,11.984,0,0,0-16.9.4c-5.7,5.7-4.8,14,1,19.2,1.4,1.3,3.5-.8,2.1-2.1Z" fill="#e8e8e8"/>
        </g>
      </g>
      <g id="Group_68" data-name="Group 68">
        <g id="Group_67" data-name="Group 67">
          <path id="Path_34" data-name="Path 34" d="M899,165.9a111.2,111.2,0,0,1,23.9-33.7c1.4-1.3-.7-3.5-2.1-2.1a114.578,114.578,0,0,0-24.4,34.4c-.8,1.6,1.8,3.2,2.6,1.4Z" fill="#e8e8e8"/>
        </g>
      </g>
      <g id="Group_70" data-name="Group 70">
        <g id="Group_69" data-name="Group 69">
          <path id="Path_35" data-name="Path 35" d="M911.5,163.9a168.346,168.346,0,0,1,19.9-20.6c1.5-1.3-.7-3.4-2.1-2.1a176.1,176.1,0,0,0-19.9,20.6c-1.2,1.5.9,3.6,2.1,2.1Z" fill="#e8e8e8"/>
        </g>
      </g>
      <g id="Group_72" data-name="Group 72">
        <g id="Group_71" data-name="Group 71">
          <path id="Path_36" data-name="Path 36" d="M919.1,172.9c2.7-2.3,5.4-4.5,8.1-6.8,1.5-1.2-.7-3.4-2.1-2.1-2.7,2.3-5.4,4.5-8.1,6.8-1.5,1.2.6,3.3,2.1,2.1Z" fill="#e8e8e8"/>
        </g>
      </g>
    </g>
    <g id="color">
      <circle id="Ellipse_1" data-name="Ellipse 1" cx="14.6" cy="14.6" r="14.6" transform="translate(1046 152.5)" fill="#4f4f4f"/>
      <circle id="Ellipse_2" data-name="Ellipse 2" cx="8.7" cy="8.7" r="8.7" transform="translate(1045.2 187)" fill="#4f4f4f"/>
      <circle id="Ellipse_3" data-name="Ellipse 3" cx="10.7" cy="10.7" r="10.7" transform="translate(582.3 570.9)" fill="#4f4f4f"/>
      <circle id="Ellipse_4" data-name="Ellipse 4" cx="5.9" cy="5.9" r="5.9" transform="translate(604.5 609.8)" fill="#4f4f4f"/>
      <g id="Group_74" data-name="Group 74">
        <g id="Group_73" data-name="Group 73">
          <path id="Path_37" data-name="Path 37" d="M714.6,460.1c.9,8.7,3.7,16.4,13.6,16.2,3.4,0,6.3-1,8.9,1.6,2.4,2.4,1.7,4.8,2.7,7.8a7.328,7.328,0,0,0,2.6,3.9c1.8,1.3,8.6,1.3,8,4.3-.4,1.9,2.5,2.7,2.9.8.7-3.4-1.6-5.4-4.8-6.3-4.6-1.3-5.7-3.1-6.4-7.2a10.8,10.8,0,0,0-2-5.4c-2.6-3.1-6.8-2.7-10.4-2.6-3.9.2-7.6-.1-9.7-3.9-1.6-2.8-2-6.2-2.3-9.3-.3-1.8-3.3-1.8-3.1.1Z" fill="#707070"/>
        </g>
      </g>
      <g id="Group_76" data-name="Group 76">
        <g id="Group_75" data-name="Group 75">
          <path id="Path_38" data-name="Path 38" d="M724.8,496.9c5.2-5.5,11.4.1,13,5.6.7,2.2.8,4.3,2.4,6,3.6,4,10.2,1.8,13.5,6,1.2,1.5,3.3-.6,2.1-2.1-2.2-2.8-5.3-3.2-8.6-3.9-3.1-.7-4.8-1.8-6-4.9-.8-1.9-.9-3.9-2-5.8-3.4-6.1-11.4-8.5-16.5-3.1-1.4,1.5.7,3.6,2.1,2.2Z" fill="#707070"/>
        </g>
      </g>
      <g id="Group_78" data-name="Group 78">
        <g id="Group_77" data-name="Group 77">
          <path id="Path_39" data-name="Path 39" d="M1080,486.8c-1.9-3.6,2.1-6.3,5.1-4.1a1.57,1.57,0,0,0,2.3-1.3,4.647,4.647,0,0,1,6.3-4.7c1.8.7,2.6-2.2.8-2.9a7.6,7.6,0,0,0-10.1,7.6c.8-.4,1.5-.9,2.3-1.3-5.7-4.1-12.4,2.2-9.2,8.2.8,1.7,3.4.2,2.5-1.5Z" fill="#707070"/>
        </g>
      </g>
      <g id="Group_80" data-name="Group 80">
        <g id="Group_79" data-name="Group 79">
          <path id="Path_40" data-name="Path 40" d="M1097,485.2c-.7-1.7,4.1-2,4.9-2,2.5.1,4.9.5,7.4.7,1.9.2,1.9-2.8,0-3-3.9-.4-8.3-1.5-12.1.1-2.5,1.1-3.9,3.1-2.8,5.7.7,1.8,3.3.2,2.6-1.5Z" fill="#707070"/>
        </g>
      </g>
      <circle id="Ellipse_5" data-name="Ellipse 5" cx="11.8" cy="11.8" r="11.8" transform="translate(564.1 581.6)" fill="#2d2d2d"/>
      <circle id="Ellipse_6" data-name="Ellipse 6" cx="15.9" cy="15.9" r="15.9" transform="translate(671.7 131.1)" fill="#2d2d2d"/>
      <circle id="Ellipse_7" data-name="Ellipse 7" cx="20.1" cy="20.1" r="20.1" transform="translate(379.3 737.4)" fill="#2d2d2d"/>
      <circle id="Ellipse_8" data-name="Ellipse 8" cx="10.3" cy="10.3" r="10.3" transform="translate(1075.2 686.1)" fill="#2d2d2d"/>
    </g>
    <g id="legs">
      <path id="Path_41" data-name="Path 41" d="M970.9,941c21.2-5.1,42.5-10.3,63.7-15.4a243.687,243.687,0,0,0,57.8-2.7c22.8-3.8,66.5-14.5,66.2-26.3-.2-7.8-19.7-13.4-51.9-22.7a504.063,504.063,0,0,0-51.1-11.8c-13.2,6.5-27.4,12.9-42.7,19A566.15,566.15,0,0,1,954.2,901C959.7,914.4,965.3,927.7,970.9,941Z" fill="#161616" stroke="#161616" stroke-miterlimit="10" stroke-width="3"/>
      <path id="Path_42" data-name="Path 42" d="M918.5,920.7c21.2-5.1,42.5-10.3,63.7-15.4a243.686,243.686,0,0,0,57.8-2.7c22.8-3.8,66.5-14.5,66.2-26.3-.2-7.8-19.7-13.4-51.9-22.7a504.067,504.067,0,0,0-51.1-11.8c-13.2,6.5-27.4,12.9-42.7,19a566.15,566.15,0,0,1-58.7,19.9C907.3,894.2,912.9,907.5,918.5,920.7Z" fill="#161616" stroke="#161616" stroke-miterlimit="10" stroke-width="3"/>
      <path id="Path_43" data-name="Path 43" d="M809.1,736a438.774,438.774,0,0,0-38,23.4c-9.6,6.7-32,22.4-54.2,45.3-32.8,33.8-60.4,62.2-58.6,98.2,1.6,32.4,26.1,54.9,28.8,57.3,43.7,39,137.1,24.8,231.4-35.3-3.4-17.9-6.7-35.7-10.1-53.6a92.31,92.31,0,0,0,44.7-23.1c21.5-20.3,26.3-44.9,27.5-52.9a127.065,127.065,0,0,0-4.3-31.4c-9.5-35.6-32.1-58.1-44.1-68.4C901.1,700.9,854.3,711.8,809.1,736Z" fill="#fff" stroke="#161616" stroke-miterlimit="10" stroke-width="3"/>
      <path id="Path_44" data-name="Path 44" d="M880.6,754.7a440.548,440.548,0,0,0-38,23.4c-24.8,17.3-42.3,33.9-54.2,45.3-42.5,40.8-72.7,68.5-68.7,102.1,3.9,32.3,36.2,51.8,38.9,53.3,18.9,11,38.1,11.3,53.5,10.5,69.2-3.6,146.8-33.1,177.9-45.8-3.4-17.9-6.7-35.7-10.1-53.6,8.4-2.8,32.2-12.2,47.9-37a91.2,91.2,0,0,0,13.1-37.6c.7-5.7,1.5-17.7-4.8-42.6a269.441,269.441,0,0,0-24-61.3C984.5,716.3,930.6,727.7,880.6,754.7Z" fill="#fff" stroke="#161616" stroke-miterlimit="10" stroke-width="3"/>
      <g id="Group_82" data-name="Group 82">
        <g id="Group_81" data-name="Group 81">
          <path id="Path_45" data-name="Path 45" d="M871.5,909a316.337,316.337,0,0,0,109.2-16.6c1.8-.6,1-3.5-.8-2.9A309.448,309.448,0,0,1,871.5,906c-1.9-.1-1.9,2.9,0,3Z" fill="#161616"/>
        </g>
      </g>
      <g id="Group_84" data-name="Group 84">
        <g id="Group_83" data-name="Group 83">
          <path id="Path_46" data-name="Path 46" d="M861.8,898.5a22.649,22.649,0,0,0,10.9,9.6c1.8.7,3.3-1.8,1.5-2.6a20.343,20.343,0,0,1-9.8-8.5,1.5,1.5,0,0,0-2.6,1.5Z" fill="#161616"/>
        </g>
      </g>
      <path id="Path_47" data-name="Path 47" d="M924.8,824.4c-34.8,19.5-52.8,16.3-87.4,43.3-9,7.1-61.6,48.2-54.9,89.9.6,3.5,3.7,23.1,18.3,30.8,6.2,3.3,12.3,3.1,20.8,2.5a338.207,338.207,0,0,0,53.2-8.3c35-8.7,29.1-5.1,53.2-11.6a497.485,497.485,0,0,0,62.4-21.6c-3.3-17.5-6.7-34.9-10-52.4a111.667,111.667,0,0,0,27.5-18.3c7.4-6.7,28.5-25.7,33.3-55.7,2.6-16.1-.6-28.4-5.8-48.3a213.178,213.178,0,0,0-18.3-46.6C985.9,782.8,950.9,809.9,924.8,824.4Z" fill="#3d3d3d" opacity="0.12"/>
      <path id="Path_48" data-name="Path 48" d="M887.4,738.1c-1.4-2.4-45.4,17.6-95.7,54.1C729.5,837.3,695,864,693.5,902c-1.7,44.3,59,81.3,61.6,79,1.4-1.3-35.2-26.6-35.8-63.2-.4-23.9,14.8-42.8,41.6-69.9C829.4,778.6,889.1,741,887.4,738.1Z" fill="#3d3d3d" opacity="0.11"/>
      <path id="Path_49" data-name="Path 49" d="M1028.8,759.8a192.057,192.057,0,0,1-34.9,71.6c-44.3,56.3-107.2,69.3-125.6,72.4,3.1,3,6.1,6.4,9.2,10,16.6,20,24.8,41.4,29.1,58.2,27.2-9.4,54.4-18.9,81.5-28.3-4.2-16.6-8.3-33.3-12.5-49.9a106.647,106.647,0,0,0,35.8-24.1c5.5-5.7,18.8-19.6,25-41.6C1045.4,795.5,1032.8,767.7,1028.8,759.8Z" fill="#3d3d3d" opacity="0.12"/>
    </g>
    <g id="hand_r">
      <path id="Path_50" data-name="Path 50" d="M812.6,469.6c8.4,1.2,12,26.3,13.2,34.6,4.9,33.7-5.5,48.8-7.1,90.1-1.3,32.8,4.7,34.3,2,50.3-4,23.4-22.5,53.4-88.2,80.6-4.9,5.3-13.6,13.6-26.2,18.9-26.5,11.2-61.3,5.4-66-10.7-1.6-5.4-.1-12.9,3.6-16.4,6-5.8,15.2,2.5,30.4-3,.8-.3,7.6-2.8,7.4-4.6-.1-1.1-2.7-1.5-5.8-1.9-14.1-2-18.3-1.6-18.6-2.8-.5-2,10.3-8.9,24.3-12.9a132.114,132.114,0,0,1,43.4-4.9c15.7-17.7,31.5-35.4,47.2-53.1a316.107,316.107,0,0,1,7.4-92.2C785.9,514.8,800.8,467.9,812.6,469.6Z" fill="#fff" stroke="#161616" stroke-miterlimit="10" stroke-width="3"/>
      <path id="Path_51" data-name="Path 51" d="M813,469.1c-12.3.2-23.4,49.1-25.7,83.8-2.9,43.9,8.6,57.6,0,84.5-5.7,17.8-20.1,40.7-58.8,61.5-30.5,25.5-50.8,28.2-64.2,25-8.2-1.9-18.4-7.2-23-2.7-3.9,3.8-2.1,13.2,2,19.6,9.8,14.9,39.3,11.3,56.1,5.4a78.035,78.035,0,0,0,31.8-21.6c13.7-3.7,45.7-14.4,72.3-44.6,25.9-29.4,32-60.7,35.1-77.7C850.5,537.6,828,468.8,813,469.1Z" fill="#3d3d3d" opacity="0.12"/>
    </g>
    <g id="torso">
      <path id="Path_52" data-name="Path 52" d="M964.7,411.6c35.6,7.5,62.6,37.6,74.3,65.3,12.9,30.4,5.4,54.2-1.8,104.5A1034.061,1034.061,0,0,0,1027,727.7c-10.8,8.2-61.9,45.6-131.5,36.1-44.2-6-74.4-27.9-87.7-39a318.388,318.388,0,0,0,1.8-70.8c-3.8-42.2-14-58.7-15.9-92.1-1.2-21.1.6-52.2,16.8-91.2a416.417,416.417,0,0,1,38.1-23C898.6,421,929.9,404.3,964.7,411.6Z" fill="#686868"/>
      <path id="Path_53" data-name="Path 53" d="M930.1,458.3a269.4,269.4,0,0,1,15.3,126.6c-11.5,93.7-70.2,151.6-88.4,168.2a172.863,172.863,0,0,0,169.1-23.8,752.455,752.455,0,0,1,4.2-101.9c8.6-77.4,24.1-105.3,7.6-147.8-3.9-10.1-17-43.9-50.1-59.5a83.16,83.16,0,0,0-22.1-6.8,73.914,73.914,0,0,1-17.8,31.4A70.768,70.768,0,0,1,930.1,458.3Z" fill="#3d3d3d" opacity="0.14"/>
      <path id="Path_54" data-name="Path 54" d="M1041.4,494q-39.45,107.1-79,214.1-34.35,28.05-68.8,56.1a204.954,204.954,0,0,0,134.2-35.6c-.3-10.6-.5-26.2,0-45,1.4-47.2,2-70.8,8.5-99.4,6-26.4,14.1-46.5,8.5-76.5A103.729,103.729,0,0,0,1041.4,494Z" fill="#3d3d3d" opacity="0.21"/>
    </g>
    <g id="newsletters">
      <path id="Path_55" data-name="Path 55" d="M617.7,700.5q17.85,43.2,35.8,86.3,72.6-25.2,145.3-50.5c-11.6-27.7-23.2-55.5-34.7-83.2Z" fill="#fff" stroke="#161616" stroke-miterlimit="10" stroke-width="3"/>
      <path id="Path_56" data-name="Path 56" d="M602.1,605.3a323.879,323.879,0,0,1,54.7,50.5,333.754,333.754,0,0,1,35.8,50.5q28.5-44.25,56.9-88.4-33.15-36.9-66.3-73.7Q642.55,574.8,602.1,605.3Z" fill="#fff" stroke="#161616" stroke-miterlimit="10" stroke-width="3"/>
      <path id="Path_57" data-name="Path 57" d="M514.5,468.1v81.1q31.05-15.3,62.1-30.5,20.55-10.05,41.1-20c-3.9-19.7-7.7-39.3-11.6-59Q560.35,453.8,514.5,468.1Z" fill="#fff" stroke="#161616" stroke-miterlimit="10" stroke-width="3"/>
      <path id="Path_58" data-name="Path 58" d="M454.2,295.7q15.3,36.3,30.5,72.6,54.15-31.05,108.4-62.1-22.65-43.2-45.3-86.3a333.368,333.368,0,0,1-34.7,34.7A340.952,340.952,0,0,1,454.2,295.7Z" fill="#fff" stroke="#161616" stroke-miterlimit="10" stroke-width="3"/>
      <path id="Path_59" data-name="Path 59" d="M304.7,327.3c-3.2,18.6-6.3,37.2-9.5,55.8q55.2-12.6,110.5-25.3c-.7-20.4-1.4-40.7-2.1-61.1Q354.25,312,304.7,327.3Z" fill="#fff" stroke="#161616" stroke-miterlimit="10" stroke-width="3"/>
      <g id="Group_86" data-name="Group 86">
        <g id="Group_85" data-name="Group 85">
          <path id="Path_60" data-name="Path 60" d="M618.8,703q51.9,7.65,102.9,19.2c1.9.4,2.7-2.5.8-2.9-34.1-7.7-68.4-14.2-102.9-19.2-1.9-.2-2.7,2.7-.8,2.9Z" fill="#161616"/>
        </g>
      </g>
      <g id="Group_88" data-name="Group 88">
        <g id="Group_87" data-name="Group 87">
          <path id="Path_61" data-name="Path 61" d="M762.1,654.5a361.172,361.172,0,0,1-40.3,65.2c-1.2,1.5.9,3.6,2.1,2.1A362.835,362.835,0,0,0,764.7,656c.8-1.7-1.8-3.2-2.6-1.5Z" fill="#161616"/>
        </g>
      </g>
      <g id="Group_90" data-name="Group 90">
        <g id="Group_89" data-name="Group 89">
          <path id="Path_62" data-name="Path 62" d="M626.9,611.3A324.154,324.154,0,0,1,682.8,564c1.6-1.1.1-3.7-1.5-2.6a331.085,331.085,0,0,0-56.5,47.8c-1.4,1.3.8,3.5,2.1,2.1Z" fill="#161616"/>
        </g>
      </g>
      <g id="Group_92" data-name="Group 92">
        <g id="Group_91" data-name="Group 91">
          <path id="Path_63" data-name="Path 63" d="M641.4,620.3a284.25,284.25,0,0,1,41.5-37.6c1.5-1.1,0-3.7-1.5-2.6a281.993,281.993,0,0,0-42.1,38.1,1.485,1.485,0,1,0,2.1,2.1Z" fill="#161616"/>
        </g>
      </g>
      <g id="Group_94" data-name="Group 94">
        <g id="Group_93" data-name="Group 93">
          <path id="Path_64" data-name="Path 64" d="M654,637.1a405.125,405.125,0,0,1,53.6-50.3c1.5-1.2-.6-3.3-2.1-2.1A404.719,404.719,0,0,0,651.9,635c-1.3,1.4.9,3.5,2.1,2.1Z" fill="#161616"/>
        </g>
      </g>
      <g id="Group_96" data-name="Group 96">
        <g id="Group_95" data-name="Group 95">
          <path id="Path_65" data-name="Path 65" d="M675.4,657.4c5.7-9.2,13.3-17,20.8-24.8,8.2-8.3,16.4-16.7,24.6-25,1.4-1.4-.8-3.5-2.1-2.1-8.6,8.8-17.2,17.5-25.8,26.3-7.4,7.5-14.5,15.2-20.1,24.1-1,1.6,1.6,3.1,2.6,1.5Z" fill="#161616"/>
        </g>
      </g>
      <g id="Group_98" data-name="Group 98">
        <g id="Group_97" data-name="Group 97">
          <path id="Path_66" data-name="Path 66" d="M649.5,744.4a81.989,81.989,0,0,0,8.9,23.1c.9,1.7,3.5.2,2.6-1.5a79.3,79.3,0,0,1-8.6-22.4c-.4-1.9-3.3-1.1-2.9.8Z" fill="#161616"/>
        </g>
      </g>
      <g id="Group_100" data-name="Group 100">
        <g id="Group_99" data-name="Group 99">
          <path id="Path_67" data-name="Path 67" d="M651.9,746.2a84.839,84.839,0,0,1,32.3-11.3c-.6-.3-1.2-.7-1.8-1,2,6.5,3.9,12.9,5.9,19.4.6,1.8,3.5,1.1,2.9-.8-2-6.5-3.9-12.9-5.9-19.4a1.4,1.4,0,0,0-1.8-1,86.293,86.293,0,0,0-33,11.6,1.434,1.434,0,1,0,1.4,2.5Z" fill="#161616"/>
        </g>
      </g>
      <g id="Group_102" data-name="Group 102">
        <g id="Group_101" data-name="Group 101">
          <path id="Path_68" data-name="Path 68" d="M660.3,768.7c9.5-3.9,18.8-8.3,28-13,1.7-.9.2-3.5-1.5-2.6-8.9,4.6-18,8.8-27.3,12.7-1.8.8-1,3.7.8,2.9Z" fill="#161616"/>
        </g>
      </g>
      <g id="Group_104" data-name="Group 104">
        <g id="Group_103" data-name="Group 103">
          <path id="Path_69" data-name="Path 69" d="M736.8,723.6a127.727,127.727,0,0,1,34.9-12.5c1.9-.4,1.1-3.3-.8-2.9A128.482,128.482,0,0,0,735.3,721c-1.8.9-.2,3.5,1.5,2.6Z" fill="#161616"/>
        </g>
      </g>
      <g id="Group_106" data-name="Group 106">
        <g id="Group_105" data-name="Group 105">
          <path id="Path_70" data-name="Path 70" d="M740.4,732.2c6.7-2.9,13.4-5.8,20-8.7,1.8-.8.2-3.4-1.5-2.6-6.7,2.9-13.4,5.8-20,8.7-1.8.8-.2,3.3,1.5,2.6Z" fill="#161616"/>
        </g>
      </g>
      <g id="Group_108" data-name="Group 108">
        <g id="Group_107" data-name="Group 107">
          <path id="Path_71" data-name="Path 71" d="M523.5,478.6c23.8-7.9,47.6-17.5,72.3-22.3,1.9-.4,1.1-3.3-.8-2.9-24.6,4.9-48.5,14.4-72.3,22.3-1.8.6-1,3.5.8,2.9Z" fill="#161616"/>
        </g>
      </g>
      <g id="Group_110" data-name="Group 110">
        <g id="Group_109" data-name="Group 109">
          <path id="Path_72" data-name="Path 72" d="M523.1,491.5a434,434,0,0,1,70.6-25.4,1.5,1.5,0,0,0-.8-2.9,439.4,439.4,0,0,0-71.3,25.7c-1.7.8-.2,3.4,1.5,2.6Z" fill="#161616"/>
        </g>
      </g>
      <g id="Group_112" data-name="Group 112">
        <g id="Group_111" data-name="Group 111">
          <path id="Path_73" data-name="Path 73" d="M521.3,504.5c10-4.1,19.8-8.5,29.5-13.2,1.7-.8.2-3.4-1.5-2.6q-14.25,6.9-28.8,12.9c-1.7.7-1,3.6.8,2.9Z" fill="#161616"/>
        </g>
      </g>
      <g id="Group_114" data-name="Group 114">
        <g id="Group_113" data-name="Group 113">
          <path id="Path_74" data-name="Path 74" d="M526.8,515.3c21.1-10.7,42.7-20.5,64.7-29.2,1.8-.7,1-3.6-.8-2.9-22.3,8.8-44.1,18.7-65.4,29.5-1.8.9-.2,3.5,1.5,2.6Z" fill="#161616"/>
        </g>
      </g>
      <g id="Group_116" data-name="Group 116">
        <g id="Group_115" data-name="Group 115">
          <path id="Path_75" data-name="Path 75" d="M466.9,301.9a374.326,374.326,0,0,0,78.8-51.6c1.5-1.3-.7-3.4-2.1-2.1a375.136,375.136,0,0,1-78.2,51.2c-1.8.8-.3,3.4,1.5,2.5Z" fill="#161616"/>
        </g>
      </g>
      <g id="Group_118" data-name="Group 118">
        <g id="Group_117" data-name="Group 117">
          <path id="Path_76" data-name="Path 76" d="M473,314.9a340.1,340.1,0,0,0,34.3-22.8c1.5-1.1,0-3.8-1.5-2.6a340.1,340.1,0,0,1-34.3,22.8,1.5,1.5,0,0,0,1.5,2.6Z" fill="#161616"/>
        </g>
      </g>
      <g id="Group_120" data-name="Group 120">
        <g id="Group_119" data-name="Group 119">
          <path id="Path_77" data-name="Path 77" d="M480.6,324a692.825,692.825,0,0,0,73.9-45.7c1.6-1.1.1-3.7-1.5-2.6a682.966,682.966,0,0,1-73.9,45.7c-1.7.9-.2,3.5,1.5,2.6Z" fill="#161616"/>
        </g>
      </g>
      <g id="Group_122" data-name="Group 122">
        <g id="Group_121" data-name="Group 121">
          <path id="Path_78" data-name="Path 78" d="M487,339.5a485.245,485.245,0,0,0,80.7-46.2c1.6-1.1.1-3.7-1.5-2.6a477.315,477.315,0,0,1-80.7,46.2c-1.8.8-.3,3.3,1.5,2.6Z" fill="#161616"/>
        </g>
      </g>
      <path id="Path_79" data-name="Path 79" d="M626.1,588.7l32.1-7.2q22.8,48,45.6,95.9c15.2-19.7,30.4-39.3,45.6-59q-33.6-36.15-67.1-72.4Q654.1,567.45,626.1,588.7Z" fill="#3d3d3d" opacity="0.13"/>
      <path id="Path_80" data-name="Path 80" d="M547.5,461.1c-5.6,25.7-11.2,51.5-16.8,77.2q42.9-20.55,85.9-41.2c-4.2-18.2-8.3-36.5-12.5-54.7Q575.75,451.85,547.5,461.1Z" fill="#3d3d3d" opacity="0.21"/>
      <path id="Path_81" data-name="Path 81" d="M676.5,683.2,693.3,724c9.3,2.1,18.5,4.2,27.8,6.2,10.1,7,20.1,14.1,30.2,21.1,15.3-5.3,30.7-10.6,46-15.8-11.7-26.5-23.3-53.1-35-79.6-15.3,4.6-30.7,9.3-46,13.9l-24,38.4C687,699.8,681.8,691.5,676.5,683.2Z" fill="#3d3d3d" opacity="0.08"/>
      <path id="Path_82" data-name="Path 82" d="M323.5,328.5c-4.8,16.7-9.5,33.5-14.3,50.2l95.7-22.2c-1.1-19.2-2.1-38.4-3.2-57.6Q362.55,313.75,323.5,328.5Z" fill="#3d3d3d" opacity="0.15"/>
      <path id="Path_83" data-name="Path 83" d="M499.5,271.4c3.7,54,6.5,80.9,8.5,80.9.6,0,1.1-2.7,1.6-7.9,26.2-13.2,52.5-26.4,78.7-39.6-13.2-24.7-26.4-49.3-39.6-74C532.2,244.3,515.8,257.9,499.5,271.4Z" fill="#3d3d3d" opacity="0.11"/>
    </g>
    <g id="hand_l">
      <path id="Path_84" data-name="Path 84" d="M1016.2,451.9c13.5-1.8,29.9,37.4,36.9,60.8,11.8,39.6,7.6,74.3,3.6,106.5-4.3,34.3-6.4,51.5-14.6,69.5-26.5,58.2-93.1,80.5-119.2,87.7a126.139,126.139,0,0,1-37.3,18.9c-37.1,11.4-85.8,6.5-92.5-12.6-2.2-6.4-.1-15.2,5-19.3,8.5-6.8,21.2,2.9,42.6-3.6,1.1-.3,10.6-3.3,10.3-5.4-.2-1.3-3.7-1.7-8.1-2.2-19.7-2.3-25.6-1.9-26-3.3-.6-2.4,14.5-10.4,34-15.2a215.229,215.229,0,0,1,60.8-5.8Q948.6,694,985.5,660a973.6,973.6,0,0,1,8.7-134.1C1003.6,458.1,1011.7,452.5,1016.2,451.9Z" fill="#fff" stroke="#161616" stroke-miterlimit="10" stroke-width="3"/>
      <g id="Group_124" data-name="Group 124">
        <g id="Group_123" data-name="Group 123">
          <path id="Path_85" data-name="Path 85" d="M791.6,781.9c3.8,4.1,10.8,5.3,15.9,6.8a161.666,161.666,0,0,0,23,4.7c1.9.3,2.7-2.6.8-2.9a162.116,162.116,0,0,1-19.4-3.8c-5.5-1.4-14.3-2.6-18.2-7-1.3-1.3-3.4.8-2.1,2.2Z" fill="#161616"/>
        </g>
      </g>
      <g id="Group_126" data-name="Group 126">
        <g id="Group_125" data-name="Group 125">
          <path id="Path_86" data-name="Path 86" d="M793.3,772.8a85.816,85.816,0,0,0,41.2,12.7c1.9.1,1.9-2.9,0-3a81.186,81.186,0,0,1-39.7-12.3c-1.6-1-3.2,1.6-1.5,2.6Z" fill="#161616"/>
        </g>
      </g>
      <g id="Group_128" data-name="Group 128">
        <g id="Group_127" data-name="Group 127">
          <path id="Path_87" data-name="Path 87" d="M798.6,765.8a98.741,98.741,0,0,0,44.9,10.8,1.5,1.5,0,0,0,0-3,94.759,94.759,0,0,1-43.4-10.4c-1.7-.9-3.2,1.7-1.5,2.6Z" fill="#161616"/>
        </g>
      </g>
      <path id="Path_88" data-name="Path 88" d="M1011,456.3a278.059,278.059,0,0,1,24.4,92.1c2.6,30.5,6.9,82.5-24.4,134.3-30.8,50.9-77.5,71.1-94.8,78.5-17.4,7.5-46.6,19.7-84.5,15.7a142.914,142.914,0,0,1-36.3-8.7c-1.9,4.2-3.7,10.2-1.6,15.7,6.8,17.9,49.2,17.6,72,14.1,12.7-1.9,33.8-7,57.4-22.7,28.4-8.4,99-33.4,120.2-89.9,6.2-16.5,9.9-40.2,11.9-53.1,2.8-18.2,6.9-45.5,4.3-80.7,0,0-3.8-50.9-32-92.6-1.3-2-4.3-6.2-8.7-6.5C1015.5,452.3,1012.5,454.8,1011,456.3Z" fill="#3d3d3d" opacity="0.15"/>
      <path id="Path_89" data-name="Path 89" d="M1057.6,590.1c-3-.5-9.4,32.7-16.2,53.6-11.8,36.2-40.6,84.1-117,131.6A184.193,184.193,0,0,0,991,745.5c12.5-9,33.6-24.1,48.2-52,10.1-19.3,12.8-36.6,16.2-59C1058.5,614.8,1060.1,590.5,1057.6,590.1Z" fill="#3d3d3d" opacity="0.09"/>
    </g>
    <g id="head">
      <path id="Path_90" data-name="Path 90" d="M781.5,268.2c-.5,23.1-1,46.1-1.5,69.2-7,29.2,3.9,58.8,26.6,73.8,24.7,16.3,52.3,8.1,56.3,6.8a91.764,91.764,0,0,1-1.5,20.5,93.451,93.451,0,0,1-5.3,18.2c12.2,11.4,23.5,14.3,29.7,15.2,29.4,4.3,63-19.3,80.6-60.1a142.939,142.939,0,0,1-19-25.1,148.686,148.686,0,0,1-17.5-44.9c-5-23.2-.1-26.3-3.8-43.3-4.2-19.4-16.3-41.4-32.7-52.5C865.8,227.7,819.4,235.8,781.5,268.2Z" fill="#fff" stroke="#161616" stroke-miterlimit="10" stroke-width="3"/>
      <path id="Path_91" data-name="Path 91" d="M777.4,346.5c-7,3.8-7.5,15-8.2,29.8-.7,13.8-1.4,30.3,9,46.8a62.822,62.822,0,0,0,23,21.3c22.8,13,46,9,53.3,7.4-4.6-1.9-9.3-3.8-13.9-5.7a59.2,59.2,0,0,0,25.4-6.6c10.4-5.4,16.3-12.6,21.3-18.9a110.265,110.265,0,0,0,20.5-41.8c-2.6-4.5-12.6-22.7-7.4-45.1a59.475,59.475,0,0,1,13.1-25.4c6.1.4,9.4,2.9,10.7,4.1,6.7,6.1,7.5,18.6.8,30.4a36.567,36.567,0,0,0,13.1-18.1c3.5-10.6.7-19.5-.8-24.6-1.9-6.1-4.7-15.2-13.1-19.7a19.036,19.036,0,0,0-10.7-2.5c-14.4,1.4-17.4,24.5-34.2,45.8-12.6,15.9-38.5,37.7-64,34.8C796.1,356.3,786.9,341.3,777.4,346.5Z" fill="#161616" stroke="#161616" stroke-miterlimit="10" stroke-width="3"/>
      <g id="Group_130" data-name="Group 130">
        <g id="Group_129" data-name="Group 129">
          <path id="Path_92" data-name="Path 92" d="M812.6,306.6a358.582,358.582,0,0,1,.5,47.5c-.1,1.4,1.7,1.9,2.6,1.1,5-4.4,10-8.8,14.9-13.2,1.4-1.3-.7-3.4-2.1-2.1-5,4.4-10,8.8-14.9,13.2.9.4,1.7.7,2.6,1.1a358.582,358.582,0,0,0-.5-47.5c-.2-2-3.2-2-3.1-.1Z" fill="#161616"/>
        </g>
      </g>
      <g id="Group_132" data-name="Group 132">
        <g id="Group_131" data-name="Group 131">
          <path id="Path_93" data-name="Path 93" d="M791,322c-.4-1.1-1.7-5.5.7-5.5,1.4,0,1.4,2.4,1.4,3.3s0,2.4-.7,3.2c-.7.9-1.7.2-2-.8a8.084,8.084,0,0,1,0-3.1c.3-1.9-2.6-2.7-2.9-.8-.5,3.2-.1,8.4,4.4,8.1,3.2-.2,4.1-4,4.1-6.7,0-2.8-1.2-6.7-4.8-6.3-4.7.6-4.4,6-3.3,9.3.8,1.9,3.7,1.1,3.1-.7Z" fill="#161616"/>
        </g>
      </g>
      <g id="Group_134" data-name="Group 134">
        <g id="Group_133" data-name="Group 133">
          <path id="Path_94" data-name="Path 94" d="M793.1,321.1a2.55,2.55,0,0,1,0-3.1l-2.4-.3a3.153,3.153,0,0,1,.1,3.8l2.4.3c-.3-.5-2.4-3.4-.7-3.5-.2,0,0-.3-.1.2,0,.4.1.9.1,1.4,0,.3-.2,1.6-.7,1.3-1.6-1.1-3.1,1.5-1.5,2.6,1.8,1.2,4.1,0,4.8-1.8.7-1.7.7-5.1-1.1-6.2a3.575,3.575,0,0,0-4.7,1.4c-1.2,2.1,0,4.4,1.2,6.2a1.572,1.572,0,0,0,2.4.3,6.157,6.157,0,0,0,.4-7.4,1.572,1.572,0,0,0-2.4-.3,5.609,5.609,0,0,0,0,7.3c1.3,1.3,3.4-.8,2.2-2.2Z" fill="#161616"/>
        </g>
      </g>
      <g id="Group_136" data-name="Group 136">
        <g id="Group_135" data-name="Group 135">
          <path id="Path_95" data-name="Path 95" d="M849.2,317.9c-1-.9-2.2-3-.4-3.9s2.1,1.5,2.1,2.7c0,.7.2,3.5-1,3.5-1.1,0-1.7-2.3-2-3a1.506,1.506,0,0,0-2.9.8c.8,2.6,2.8,6.1,6,5,3.1-1,3.2-5.6,2.7-8.2-.6-3.1-3.7-5.1-6.6-3.3-3.2,2-2.5,6.2,0,8.5,1.4,1.3,3.5-.8,2.1-2.1Z" fill="#161616"/>
        </g>
      </g>
      <g id="Group_138" data-name="Group 138">
        <g id="Group_137" data-name="Group 137">
          <path id="Path_96" data-name="Path 96" d="M851.3,318.7a7.4,7.4,0,0,1-.2-3.9c-.7.3-1.5.6-2.2.9a1.312,1.312,0,0,1,0,2.1c.7.3,1.5.6,2.2.9-.6-1.3-1.1-2.7-1.7-4a1.474,1.474,0,0,0-1.8-1c-.7.2-1.4,1.1-1,1.8.6,1.3,1.1,2.7,1.7,4,.4.9,1.3,1.5,2.2.9a4.391,4.391,0,0,0,0-7.3,1.469,1.469,0,0,0-2.2.9,11.349,11.349,0,0,0,.2,5.5,1.457,1.457,0,0,0,2.8-.8Z" fill="#161616"/>
        </g>
      </g>
      <g id="Group_140" data-name="Group 140">
        <g id="Group_139" data-name="Group 139">
          <path id="Path_97" data-name="Path 97" d="M786.7,303.8c3.2-5.9,11.1-6.7,15.1-1.1,1.1,1.6,3.7.1,2.6-1.5-5.3-7.3-15.9-7-20.3,1.1-.9,1.7,1.7,3.2,2.6,1.5Z" fill="#161616"/>
        </g>
      </g>
      <g id="Group_142" data-name="Group 142">
        <g id="Group_141" data-name="Group 141">
          <path id="Path_98" data-name="Path 98" d="M839.2,303.5c4.3-7.1,14.4-6.5,17.5,1.3.7,1.8,3.6,1,2.9-.8-4.1-10.2-17.3-11.5-23-2-1,1.6,1.6,3.1,2.6,1.5Z" fill="#161616"/>
        </g>
      </g>
      <g id="Group_144" data-name="Group 144">
        <g id="Group_143" data-name="Group 143">
          <path id="Path_99" data-name="Path 99" d="M744.4,277.1q78,4.5,155.7,12.6c5.8.6,5.7-8.4,0-9q-77.7-8.25-155.7-12.6c-5.8-.3-5.8,8.7,0,9Z" fill="#161616"/>
        </g>
      </g>
      <path id="Path_100" data-name="Path 100" d="M778.1,270.5c.8-7.7,4.1-27.5,20-43.7,21.5-21.9,59-29.5,88.6-12,23.2,13.8,36.7,40.1,35.1,68C873.9,278.8,826,274.6,778.1,270.5Z" fill="#606060"/>
      <path id="Path_101" data-name="Path 101" d="M923.5,341.7c-.1.8-1.4,7.5-7.4,10.5a13.386,13.386,0,0,1-7.4,1.3c6.1,7.8,31.1,41.6,23.2,83a91.946,91.946,0,0,1-10,27.1,109.581,109.581,0,0,0,43.3-50.7A208.628,208.628,0,0,1,928,342.1C926.4,342,925,341.8,923.5,341.7Z" fill="#3d3d3d" opacity="0.11"/>
      <path id="Path_102" data-name="Path 102" d="M812.5,307.2c-3.6,13.8-7.3,27.7-10.9,41.5,4.1,1.6,8.2,3.2,12.2,4.8C813.4,338,813,322.6,812.5,307.2Z" fill="#3d3d3d" opacity="0.12"/>
      <path id="Path_103" data-name="Path 103" d="M843.8,209.3c-10.3,9.4-4.6,37.8,13.5,67.9,21.4,1.9,42.8,3.9,64.2,5.8.7-8.8.8-25.9-9.1-42.3C895.5,212.8,856.5,197.8,843.8,209.3Z" fill="#444" opacity="0.69"/>
    </g>
  </g>
</svg>
