<svg xmlns="http://www.w3.org/2000/svg" width="1299.75" height="1037.021" viewBox="0 0 1299.75 1037.021">
  <g id="pixeltrue-support_1_" data-name="pixeltrue-support (1)" transform="translate(-243.975 -116.979)">
    <g id="background">
      <g id="Group_146" data-name="Group 146">
        <g id="Group_145" data-name="Group 145">
          <path id="Path_104" data-name="Path 104" d="M497.2,978.6h703.5a1.5,1.5,0,0,0,0-3H497.2a1.5,1.5,0,0,0,0,3Z" fill="#e8e8e8"/>
        </g>
      </g>
      <g id="Group_148" data-name="Group 148">
        <g id="Group_147" data-name="Group 147">
          <path id="Path_105" data-name="Path 105" d="M1219.2,916.4a334.157,334.157,0,0,0,8.7,85.7c.4,1.9,3.3,1.1,2.9-.8a327.444,327.444,0,0,1-8.5-84.9c-.1-1.9-3.1-1.9-3.1,0Z" fill="#e8e8e8"/>
        </g>
      </g>
      <g id="Group_150" data-name="Group 150">
        <g id="Group_149" data-name="Group 149">
          <path id="Path_106" data-name="Path 106" d="M1338.3,918.7a238.786,238.786,0,0,1-5,79.5c-.4,1.9,2.4,2.7,2.9.8a238.344,238.344,0,0,0,5.1-80.3c-.2-1.9-3.2-1.9-3,0Z" fill="#e8e8e8"/>
        </g>
      </g>
      <g id="Group_152" data-name="Group 152">
        <g id="Group_151" data-name="Group 151">
          <path id="Path_107" data-name="Path 107" d="M1229.1,1004.9a187.956,187.956,0,0,0,105.1-3.6c1.8-.6,1-3.5-.8-2.9a185.088,185.088,0,0,1-103.5,3.6c-1.9-.4-2.7,2.5-.8,2.9Z" fill="#e8e8e8"/>
        </g>
      </g>
      <g id="Group_154" data-name="Group 154">
        <g id="Group_153" data-name="Group 153">
          <path id="Path_108" data-name="Path 108" d="M1220.6,917.8a277.805,277.805,0,0,0,118-.5c1.9-.4,1.1-3.3-.8-2.9a275.188,275.188,0,0,1-116.4.5c-1.9-.4-2.7,2.5-.8,2.9Z" fill="#e8e8e8"/>
        </g>
      </g>
      <g id="Group_156" data-name="Group 156">
        <g id="Group_155" data-name="Group 155">
          <path id="Path_109" data-name="Path 109" d="M1244.3,918.9c-5.2-11.7-.5-26,3.4-37.5a140.541,140.541,0,0,1,16.7-33.6l-2.4.3a24.084,24.084,0,0,0,7.9,5.9,1.518,1.518,0,0,0,2.2-1.7c-1.2-5.4-3.3-10.7-.9-16.1,1.7-3.8,4.1-7.6,6.1-11.2a15.979,15.979,0,0,1-2.1.5c2.1,1.3,4.2,2.5,6.3,3.8,1.4.9,2.6-.8,2.1-2.1-2.1-4.6-3.5-9.2-.6-13.8,1.7-2.8,3.9-5.3,5.8-7.9,4.2-5.6,8.6-11.2,13-16.7,8.4-10.5,17.1-20.7,26.1-30.7l-2.4-.3a115.746,115.746,0,0,1,23.1,57.9,107.52,107.52,0,0,1-1,30.5,109.81,109.81,0,0,1-3.8,15c-.3,1-.7,2-1,2.9-1.1,2.8-2.9,4-5.8,4.6-2,.4-3.1.1-4.8,1.4a1.572,1.572,0,0,0-.3,2.4c2.2,2.3,3.1,2.7,2.3,5.8a39.885,39.885,0,0,1-2.6,6.1c-1.8,4-3.8,7.9-5.9,11.7a164.128,164.128,0,0,1-14.7,22.2c-1.2,1.5.9,3.6,2.1,2.1a178.3,178.3,0,0,0,25.3-44.5,1.439,1.439,0,0,0-.4-1.5c-1.3-1.3-2.6-2.7-4-4l-.3,2.4c2.3-1.6,4.9-.5,7.3-1.5a6.486,6.486,0,0,0,3.7-3.9,80.37,80.37,0,0,0,4.8-15.1,114.41,114.41,0,0,0,2.5-33.5,117.6,117.6,0,0,0-23.8-62.5,1.563,1.563,0,0,0-2.4-.3q-16.65,18.45-32,38c-4.6,5.8-9.5,11.6-13.5,17.9-3.6,5.7-1.9,11.1.6,16.9l2.1-2.1c-2.1-1.3-4.2-2.5-6.3-3.8a1.577,1.577,0,0,0-2.1.5c-2.5,4.6-6.4,9.7-7.8,14.8-1.2,4.5,1.3,10.4,2.3,14.8.7-.6,1.5-1.1,2.2-1.7a20.462,20.462,0,0,1-7.3-5.4,1.512,1.512,0,0,0-2.4.3,145.608,145.608,0,0,0-18.1,37.7c-3.6,11.6-7.1,24.8-2,36.4a1.568,1.568,0,0,0,2.8-1.4Z" fill="#e8e8e8"/>
        </g>
      </g>
      <g id="Group_158" data-name="Group 158">
        <g id="Group_157" data-name="Group 157">
          <path id="Path_110" data-name="Path 110" d="M1325.7,780.8c-4,45.3-35,81.6-47.9,124.2-.6,1.9,2.3,2.6,2.9.8,12.9-42.9,44-79.3,48-125,.2-2-2.9-1.9-3,0Z" fill="#e8e8e8"/>
        </g>
      </g>
      <g id="Group_160" data-name="Group 160">
        <g id="Group_159" data-name="Group 159">
          <path id="Path_111" data-name="Path 111" d="M1287.9,804.9q4.8,24.75,11.1,49a1.5,1.5,0,0,0,2.9-.8c-4.2-16.2-7.9-32.6-11.1-49-.3-1.9-3.2-1.1-2.9.8Z" fill="#e8e8e8"/>
        </g>
      </g>
      <g id="Group_162" data-name="Group 162">
        <g id="Group_161" data-name="Group 161">
          <path id="Path_112" data-name="Path 112" d="M1321.7,815.5a105.277,105.277,0,0,0,22.7-22.5c1.2-1.5-1.4-3-2.6-1.5a99.636,99.636,0,0,1-21.6,21.4c-1.5,1.2,0,3.8,1.5,2.6Z" fill="#e8e8e8"/>
        </g>
      </g>
      <g id="Group_164" data-name="Group 164">
        <g id="Group_163" data-name="Group 163">
          <path id="Path_113" data-name="Path 113" d="M1312.4,772.7c2.7,8.6,4.3,19.1,10.9,25.6,1.4,1.4,3.5-.8,2.1-2.1-6.1-6.1-7.7-16.4-10.2-24.3-.5-1.8-3.4-1-2.8.8Z" fill="#e8e8e8"/>
        </g>
      </g>
      <g id="Group_166" data-name="Group 166">
        <g id="Group_165" data-name="Group 165">
          <path id="Path_114" data-name="Path 114" d="M1238.3,918.1c-6.1-4.8-9.8-11.5-12.9-18.5-3.5-8.2-6.5-16.6-9.2-25.1a295.591,295.591,0,0,1-11-50c-4.5-35.4-.9-71.2-5.2-106.7-.9.3-1.9.5-2.8.8,11.2,25.2,37.4,40.3,59.2,55.3a15.991,15.991,0,0,1-.5-2.1l-9,12.9a1.516,1.516,0,0,0,1.3,2.3,31.734,31.734,0,0,0,11-1.8c-.6-.2-1.1-.5-1.7-.7l11.1,17.1a11.021,11.021,0,0,0,.2-1.8,38.081,38.081,0,0,0-4.8,5.7,1.522,1.522,0,0,0,.9,2.2c8.2,1.2,11.1,9,13.2,16,.6,1.8,3.5,1.1,2.9-.8-2.5-7.9-6.1-16.8-15.3-18.1.3.7.6,1.5.9,2.2a25.8,25.8,0,0,1,4.3-5,1.377,1.377,0,0,0,.2-1.8L1260,783.1a1.557,1.557,0,0,0-1.7-.7,29.81,29.81,0,0,1-10.2,1.6c.4.8.9,1.5,1.3,2.3l9-12.9a1.6,1.6,0,0,0-.5-2.1c-21.4-14.7-47.1-29.4-58.1-54.2-.6-1.3-3-.7-2.8.8,4.4,36.8.5,74,5.7,110.7a289.181,289.181,0,0,0,12.3,52c4.6,13.7,9.4,30.4,21.1,39.7,1.6,1.1,3.7-1,2.2-2.2Z" fill="#e8e8e8"/>
        </g>
      </g>
      <g id="Group_168" data-name="Group 168">
        <g id="Group_167" data-name="Group 167">
          <path id="Path_115" data-name="Path 115" d="M1197.8,720.8c8.1,22.4,14.9,46,25.8,67.3,5.4,10.5,11.3,20.8,16.4,31.5,5.5,11.6,10.4,23.4,15.4,35.1.7,1.8,3.3.2,2.6-1.5-4.7-11.2-9.5-22.4-14.6-33.4-5-10.8-10.8-21.1-16.4-31.6-11.2-21.4-18.1-45.4-26.4-68.1-.6-1.9-3.5-1.1-2.8.7Z" fill="#e8e8e8"/>
        </g>
      </g>
      <g id="Group_170" data-name="Group 170">
        <g id="Group_169" data-name="Group 169">
          <path id="Path_116" data-name="Path 116" d="M1201.6,796.8c10.8,1.3,22.6,1.9,30.8,10,1.4,1.4,3.5-.8,2.1-2.1-8.8-8.6-21.3-9.4-32.9-10.8-1.9-.3-1.9,2.7,0,2.9Z" fill="#e8e8e8"/>
        </g>
      </g>
      <g id="Group_172" data-name="Group 172">
        <g id="Group_171" data-name="Group 171">
          <path id="Path_117" data-name="Path 117" d="M1230.5,756.3a103.392,103.392,0,0,0-3.5,20c-.4,5.8-1.1,12.6.9,18.2.6,1.8,3.5,1,2.9-.8-1.9-5.3-1.2-11.9-.8-17.5a104.4,104.4,0,0,1,3.4-19.2c.5-1.8-2.4-2.6-2.9-.7Z" fill="#e8e8e8"/>
        </g>
      </g>
      <g id="Group_174" data-name="Group 174">
        <g id="Group_173" data-name="Group 173">
          <path id="Path_118" data-name="Path 118" d="M1208.4,851.3c7.8.2,15.3.3,22.9,2.4,7.5,2.1,14.9,4.3,22.4,6.5a1.5,1.5,0,0,0,.8-2.9c-8-2.3-15.9-4.8-24-6.9-7.3-1.9-14.6-1.8-22.1-2-1.9-.2-1.9,2.8,0,2.9Z" fill="#e8e8e8"/>
        </g>
      </g>
      <g id="Group_176" data-name="Group 176">
        <g id="Group_175" data-name="Group 175">
          <path id="Path_119" data-name="Path 119" d="M1317.8,915.3a74.41,74.41,0,0,1,20,0c-.3-.7-.6-1.5-.9-2.2-.6.9-6.6,1-7.8,1.1-2.7.4-5.5.8-8.2,1.4-.4.1-3.1.4-3.2.7.2-.5,4.2-.4,4.8-.4,2.9,0,5.8.3,8.7.5v-3a22.255,22.255,0,0,0-7.2.9,1.483,1.483,0,0,0,.4,2.9,42.943,42.943,0,0,0,11.2-1.8,1.5,1.5,0,0,0-.8-2.9,40.386,40.386,0,0,1-10.4,1.7c.1,1,.3,2,.4,2.9a22.93,22.93,0,0,1,6.4-.8c1.9,0,1.9-2.9,0-3-4.4-.2-10.8-1.8-14.8.7-1.6,1-3.9,3.6-1.8,5.2.9.7,1.9.3,3,.2,3-.6,5.9-1.3,8.9-1.8,3.5-.6,10.5.3,12.9-3a1.522,1.522,0,0,0-.9-2.2,76.26,76.26,0,0,0-20.8-.1c-1.8.2-1.8,3.2.1,3Z" fill="#e8e8e8"/>
        </g>
      </g>
      <g id="Group_178" data-name="Group 178">
        <g id="Group_177" data-name="Group 177">
          <path id="Path_120" data-name="Path 120" d="M1221.9,917.2a20.727,20.727,0,0,1,4.2-.8,13.355,13.355,0,0,1,2,0,10.747,10.747,0,0,1,1.8,0c-.1-.5-.3-1-.4-1.5a.349.349,0,0,1-.1.2c.6-.3,1.2-.7,1.8-1h-.2l1,1c0-.1,0-.2-.1-.2-.5-1.9-3.3-1.1-2.9.8,0,.1,0,.2.1.2a1.438,1.438,0,0,0,1,1h.2a1.475,1.475,0,0,0,1.8-1,.349.349,0,0,1,.1-.2,1.439,1.439,0,0,0-.4-1.5c-1.1-1.1-3.5-.9-4.9-.9a24.187,24.187,0,0,0-6,.9c-1.6.6-.8,3.5,1,3Z" fill="#e8e8e8"/>
        </g>
      </g>
      <g id="Group_180" data-name="Group 180">
        <g id="Group_179" data-name="Group 179">
          <path id="Path_121" data-name="Path 121" d="M1224.2,937.3c36.5,6.3,74.4,9.3,110.4-1.5a1.505,1.505,0,0,0-.8-2.9c-35.4,10.6-72.8,7.7-108.8,1.5-1.9-.3-2.7,2.6-.8,2.9Z" fill="#e8e8e8"/>
        </g>
      </g>
      <g id="Group_182" data-name="Group 182">
        <g id="Group_181" data-name="Group 181">
          <path id="Path_122" data-name="Path 122" d="M1349.9,978.4h192.4a1.5,1.5,0,0,0,0-3H1349.9a1.5,1.5,0,0,0,0,3Z" fill="#e8e8e8"/>
        </g>
      </g>
      <g id="Group_184" data-name="Group 184">
        <g id="Group_183" data-name="Group 183">
          <path id="Path_123" data-name="Path 123" d="M1301.4,1042.7h181.3a1.5,1.5,0,0,0,0-3H1301.4a1.5,1.5,0,0,0,0,3Z" fill="#e8e8e8"/>
        </g>
      </g>
      <g id="Group_186" data-name="Group 186">
        <g id="Group_185" data-name="Group 185">
          <path id="Path_124" data-name="Path 124" d="M1328.9,1042.4c-7.2,6-14.4,11.9-21.5,17.9-1.5,1.2.6,3.3,2.1,2.1,7.2-6,14.4-11.9,21.5-17.9,1.5-1.2-.7-3.4-2.1-2.1Z" fill="#e8e8e8"/>
        </g>
      </g>
      <g id="Group_188" data-name="Group 188">
        <g id="Group_187" data-name="Group 187">
          <path id="Path_125" data-name="Path 125" d="M1308.3,1063.5a1.5,1.5,0,0,0,0-3,1.5,1.5,0,0,0,0,3Z" fill="#e8e8e8"/>
        </g>
      </g>
      <g id="Group_190" data-name="Group 190">
        <g id="Group_189" data-name="Group 189">
          <path id="Path_126" data-name="Path 126" d="M1338.8,1060.5H1156.1a1.5,1.5,0,0,0,0,3h182.7a1.5,1.5,0,0,0,0-3Z" fill="#e8e8e8"/>
        </g>
      </g>
      <g id="Group_192" data-name="Group 192">
        <g id="Group_191" data-name="Group 191">
          <path id="Path_127" data-name="Path 127" d="M1155.8,1091.5c10.8-9,21.9-17.6,33.3-25.9,1.5-1.1.1-3.7-1.5-2.6q-17.4,12.6-33.9,26.3c-1.5,1.3.6,3.4,2.1,2.2Z" fill="#e8e8e8"/>
        </g>
      </g>
      <g id="Group_194" data-name="Group 194">
        <g id="Group_193" data-name="Group 193">
          <path id="Path_128" data-name="Path 128" d="M245.4,1036.9H517.2a1.5,1.5,0,0,0,0-3H245.4a1.5,1.5,0,0,0,0,3Z" fill="#e8e8e8"/>
        </g>
      </g>
      <g id="Group_196" data-name="Group 196">
        <g id="Group_195" data-name="Group 195">
          <path id="Path_129" data-name="Path 129" d="M282.3,1063c9.5-8.1,19.1-16.2,28.6-24.3,1.5-1.3-.7-3.4-2.1-2.1-9.5,8.1-19.1,16.2-28.6,24.3-1.5,1.2.7,3.4,2.1,2.1Z" fill="#e8e8e8"/>
        </g>
      </g>
      <g id="Group_198" data-name="Group 198">
        <g id="Group_197" data-name="Group 197">
          <path id="Path_130" data-name="Path 130" d="M247.9,1065.9H444.7a1.5,1.5,0,0,0,0-3H247.9a1.5,1.5,0,0,0,0,3Z" fill="#e8e8e8"/>
        </g>
      </g>
      <g id="Group_200" data-name="Group 200">
        <g id="Group_199" data-name="Group 199">
          <path id="Path_131" data-name="Path 131" d="M421.8,1065.3c-7.5,8.4-15.2,16.6-23,24.8-1.3,1.4.8,3.5,2.1,2.1,7.8-8.2,15.4-16.4,23-24.8,1.4-1.4-.8-3.5-2.1-2.1Z" fill="#e8e8e8"/>
        </g>
      </g>
      <g id="Group_202" data-name="Group 202">
        <g id="Group_201" data-name="Group 201">
          <path id="Path_132" data-name="Path 132" d="M370.6,1094.9h173a1.5,1.5,0,0,0,0-3h-173a1.5,1.5,0,0,0,0,3Z" fill="#e8e8e8"/>
        </g>
      </g>
      <g id="Group_204" data-name="Group 204">
        <g id="Group_203" data-name="Group 203">
          <path id="Path_133" data-name="Path 133" d="M329.7,986.6H403a1.5,1.5,0,0,0,0-3H329.7a1.5,1.5,0,0,0,0,3Z" fill="#e8e8e8"/>
        </g>
      </g>
      <g id="Group_206" data-name="Group 206">
        <g id="Group_205" data-name="Group 205">
          <path id="Path_134" data-name="Path 134" d="M421.5,996.4h22.6a1.5,1.5,0,0,0,0-3H421.5a1.5,1.5,0,0,0,0,3Z" fill="#e8e8e8"/>
        </g>
      </g>
      <g id="Group_208" data-name="Group 208">
        <g id="Group_207" data-name="Group 207">
          <path id="Path_135" data-name="Path 135" d="M367.2,461.7v49a1.5,1.5,0,0,0,3,0v-49a1.5,1.5,0,0,0-3,0Z" fill="#e8e8e8"/>
        </g>
      </g>
      <g id="Group_210" data-name="Group 210">
        <g id="Group_209" data-name="Group 209">
          <path id="Path_136" data-name="Path 136" d="M316.9,513.1H437.5a1.5,1.5,0,0,0,0-3H316.9a1.5,1.5,0,0,0,0,3Z" fill="#e8e8e8"/>
        </g>
      </g>
      <g id="Group_212" data-name="Group 212">
        <g id="Group_211" data-name="Group 211">
          <path id="Path_137" data-name="Path 137" d="M401.1,514.5v37.7a1.5,1.5,0,0,0,3,0V514.5a1.5,1.5,0,0,0-3,0Z" fill="#e8e8e8"/>
        </g>
      </g>
      <g id="Group_214" data-name="Group 214">
        <g id="Group_213" data-name="Group 213">
          <path id="Path_138" data-name="Path 138" d="M367.8,557.4h96.1a1.5,1.5,0,0,0,0-3H367.8a1.5,1.5,0,1,0,0,3Z" fill="#e8e8e8"/>
        </g>
      </g>
      <g id="Group_216" data-name="Group 216">
        <g id="Group_215" data-name="Group 215">
          <path id="Path_139" data-name="Path 139" d="M1174.8,426.6v11.9a1.5,1.5,0,0,0,3,0V426.6a1.5,1.5,0,0,0-3,0Z" fill="#e8e8e8"/>
        </g>
      </g>
      <g id="Group_218" data-name="Group 218">
        <g id="Group_217" data-name="Group 217">
          <path id="Path_140" data-name="Path 140" d="M1177.2,429h206.4a1.5,1.5,0,0,0,0-3H1177.2a1.5,1.5,0,0,0,0,3Z" fill="#e8e8e8"/>
        </g>
      </g>
      <g id="Group_220" data-name="Group 220">
        <g id="Group_219" data-name="Group 219">
          <path id="Path_141" data-name="Path 141" d="M1179,440h204.5a1.5,1.5,0,0,0,0-3H1179a1.5,1.5,0,0,0,0,3Z" fill="#e8e8e8"/>
        </g>
      </g>
      <g id="Group_222" data-name="Group 222">
        <g id="Group_221" data-name="Group 221">
          <path id="Path_142" data-name="Path 142" d="M1383.1,426.6a46.166,46.166,0,0,0,.5,12.3c.3,1.9,3.2,1.1,2.9-.8a40.355,40.355,0,0,1-.4-11.5c.2-1.9-2.8-1.9-3,0Z" fill="#e8e8e8"/>
        </g>
      </g>
      <g id="Group_224" data-name="Group 224">
        <g id="Group_223" data-name="Group 223">
          <path id="Path_143" data-name="Path 143" d="M1191.3,426.7V343a1.5,1.5,0,0,0-3,0v83.7a1.5,1.5,0,0,0,3,0Z" fill="#e8e8e8"/>
        </g>
      </g>
      <g id="Group_226" data-name="Group 226">
        <g id="Group_225" data-name="Group 225">
          <path id="Path_144" data-name="Path 144" d="M1191.3,343.5a28.133,28.133,0,0,1,25.4,1.8,1.5,1.5,0,0,0,1.5-2.6,31.133,31.133,0,0,0-27.7-2.1c-1.8.7-1,3.6.8,2.9Z" fill="#e8e8e8"/>
        </g>
      </g>
      <g id="Group_228" data-name="Group 228">
        <g id="Group_227" data-name="Group 227">
          <path id="Path_145" data-name="Path 145" d="M1216.2,344.6v80.5a1.5,1.5,0,0,0,3,0V344.6a1.5,1.5,0,0,0-3,0Z" fill="#e8e8e8"/>
        </g>
      </g>
      <g id="Group_230" data-name="Group 230">
        <g id="Group_229" data-name="Group 229">
          <path id="Path_146" data-name="Path 146" d="M1219.6,367a19.6,19.6,0,0,1,18.2,1.4,1.5,1.5,0,0,0,1.5-2.6,22.551,22.551,0,0,0-20.5-1.7c-1.8.7-1,3.6.8,2.9Z" fill="#e8e8e8"/>
        </g>
      </g>
      <g id="Group_232" data-name="Group 232">
        <g id="Group_231" data-name="Group 231">
          <path id="Path_147" data-name="Path 147" d="M1237.2,368.3v56.3a1.5,1.5,0,0,0,3,0V368.3a1.5,1.5,0,0,0-3,0Z" fill="#e8e8e8"/>
        </g>
      </g>
      <g id="Group_234" data-name="Group 234">
        <g id="Group_233" data-name="Group 233">
          <path id="Path_148" data-name="Path 148" d="M1191.7,366.5a44.745,44.745,0,0,1,25.1,1.6c1.8.6,2.6-2.3.8-2.9a48.55,48.55,0,0,0-26.7-1.6c-1.8.4-1,3.3.8,2.9Z" fill="#e8e8e8"/>
        </g>
      </g>
      <g id="Group_236" data-name="Group 236">
        <g id="Group_235" data-name="Group 235">
          <path id="Path_149" data-name="Path 149" d="M1217.5,401.2a40.641,40.641,0,0,1,19.3-.5c1.9.4,2.7-2.5.8-2.9a43.5,43.5,0,0,0-20.9.5,1.506,1.506,0,0,0,.8,2.9Z" fill="#e8e8e8"/>
        </g>
      </g>
      <g id="Group_238" data-name="Group 238">
        <g id="Group_237" data-name="Group 237">
          <path id="Path_150" data-name="Path 150" d="M1275,425.7V408.9a1.5,1.5,0,0,0-3,0v16.8a1.5,1.5,0,0,0,3,0Z" fill="#e8e8e8"/>
        </g>
      </g>
      <g id="Group_240" data-name="Group 240">
        <g id="Group_239" data-name="Group 239">
          <path id="Path_151" data-name="Path 151" d="M1273.5,409.8h97.4a1.5,1.5,0,0,0,0-3h-97.4a1.5,1.5,0,0,0,0,3Z" fill="#e8e8e8"/>
        </g>
      </g>
      <g id="Group_242" data-name="Group 242">
        <g id="Group_241" data-name="Group 241">
          <path id="Path_152" data-name="Path 152" d="M1371.9,411.4a1.5,1.5,0,0,0,0-3,1.5,1.5,0,0,0,0,3Z" fill="#e8e8e8"/>
        </g>
      </g>
      <g id="Group_244" data-name="Group 244">
        <g id="Group_243" data-name="Group 243">
          <path id="Path_153" data-name="Path 153" d="M1370.4,409.9v15.3a1.5,1.5,0,0,0,3,0V409.9a1.5,1.5,0,0,0-3,0Z" fill="#e8e8e8"/>
        </g>
      </g>
      <g id="Group_246" data-name="Group 246">
        <g id="Group_245" data-name="Group 245">
          <path id="Path_154" data-name="Path 154" d="M1293.9,407.8V392a1.5,1.5,0,0,0-3,0v15.8a1.5,1.5,0,0,0,3,0Z" fill="#e8e8e8"/>
        </g>
      </g>
      <g id="Group_248" data-name="Group 248">
        <g id="Group_247" data-name="Group 247">
          <path id="Path_155" data-name="Path 155" d="M1292.4,393h95.8a1.5,1.5,0,0,0,0-3h-95.8a1.5,1.5,0,0,0,0,3Z" fill="#e8e8e8"/>
        </g>
      </g>
      <g id="Group_250" data-name="Group 250">
        <g id="Group_249" data-name="Group 249">
          <path id="Path_156" data-name="Path 156" d="M1387.2,391.5v13.2a1.5,1.5,0,0,0,3,0V391.5a1.5,1.5,0,0,0-3,0Z" fill="#e8e8e8"/>
        </g>
      </g>
      <g id="Group_252" data-name="Group 252">
        <g id="Group_251" data-name="Group 251">
          <path id="Path_157" data-name="Path 157" d="M1369.8,410.3h17.4a1.5,1.5,0,0,0,0-3h-17.4a1.5,1.5,0,0,0,0,3Z" fill="#e8e8e8"/>
        </g>
      </g>
      <g id="Group_254" data-name="Group 254">
        <g id="Group_253" data-name="Group 253">
          <path id="Path_158" data-name="Path 158" d="M1387,404.8a6.469,6.469,0,0,0,.1,3.1,1.456,1.456,0,0,0,2.8-.8,3.93,3.93,0,0,1-.1-1.5c.1-.8-.2-1.7-1-1.8a1.431,1.431,0,0,0-1.8,1Z" fill="#e8e8e8"/>
        </g>
      </g>
      <g id="Group_256" data-name="Group 256">
        <g id="Group_255" data-name="Group 255">
          <path id="Path_159" data-name="Path 159" d="M1315.2,392.2a40.9,40.9,0,0,1,.9,15.6c-.2,1.9,2.8,1.9,3,0a45.315,45.315,0,0,0-1-16.4c-.5-1.8-3.4-1-2.9.8Z" fill="#e8e8e8"/>
        </g>
      </g>
      <g id="Group_258" data-name="Group 258">
        <g id="Group_257" data-name="Group 257">
          <path id="Path_160" data-name="Path 160" d="M1337.8,409.6a38.237,38.237,0,0,1-.9,14.7,1.5,1.5,0,0,0,2.9.8,40.753,40.753,0,0,0,.9-16.3c-.2-1.9-3.1-1.1-2.9.8Z" fill="#e8e8e8"/>
        </g>
      </g>
      <g id="Group_260" data-name="Group 260">
        <g id="Group_259" data-name="Group 259">
          <path id="Path_161" data-name="Path 161" d="M1318.2,531.3v23.6a1.5,1.5,0,0,0,3,0V531.3a1.5,1.5,0,0,0-3,0Z" fill="#e8e8e8"/>
        </g>
      </g>
      <g id="Group_262" data-name="Group 262">
        <g id="Group_261" data-name="Group 261">
          <path id="Path_162" data-name="Path 162" d="M1295,555.3h60a1.5,1.5,0,0,0,0-3h-60a1.5,1.5,0,0,0,0,3Z" fill="#e8e8e8"/>
        </g>
      </g>
      <g id="Group_264" data-name="Group 264">
        <g id="Group_263" data-name="Group 263">
          <path id="Path_163" data-name="Path 163" d="M1260.9,218.9V273a1.5,1.5,0,0,0,3,0V218.9a1.5,1.5,0,0,0-3,0Z" fill="#e8e8e8"/>
        </g>
      </g>
      <g id="Group_266" data-name="Group 266">
        <g id="Group_265" data-name="Group 265">
          <path id="Path_164" data-name="Path 164" d="M1264.7,218.8H1333a1.5,1.5,0,0,0,0-3h-68.3a1.5,1.5,0,0,0,0,3Z" fill="#e8e8e8"/>
        </g>
      </g>
      <g id="Group_268" data-name="Group 268">
        <g id="Group_267" data-name="Group 267">
          <path id="Path_165" data-name="Path 165" d="M1333.1,218.4v52.1a1.5,1.5,0,0,0,3,0V218.4a1.5,1.5,0,0,0-3,0Z" fill="#e8e8e8"/>
        </g>
      </g>
      <g id="Group_270" data-name="Group 270">
        <g id="Group_269" data-name="Group 269">
          <path id="Path_166" data-name="Path 166" d="M1262,274.7h72.6a1.5,1.5,0,0,0,0-3H1262a1.5,1.5,0,0,0,0,3Z" fill="#e8e8e8"/>
        </g>
      </g>
      <g id="Group_272" data-name="Group 272">
        <g id="Group_271" data-name="Group 271">
          <path id="Path_167" data-name="Path 167" d="M1267.6,225.1v41a1.5,1.5,0,0,0,3,0v-41a1.5,1.5,0,0,0-3,0Z" fill="#e8e8e8"/>
        </g>
      </g>
      <g id="Group_274" data-name="Group 274">
        <g id="Group_273" data-name="Group 273">
          <path id="Path_168" data-name="Path 168" d="M1269.8,226.3H1326a1.5,1.5,0,0,0,0-3h-56.2a1.5,1.5,0,0,0,0,3Z" fill="#e8e8e8"/>
        </g>
      </g>
      <g id="Group_276" data-name="Group 276">
        <g id="Group_275" data-name="Group 275">
          <path id="Path_169" data-name="Path 169" d="M1324.9,225.1v38a1.5,1.5,0,0,0,3,0v-38a1.5,1.5,0,0,0-3,0Z" fill="#e8e8e8"/>
        </g>
      </g>
      <g id="Group_278" data-name="Group 278">
        <g id="Group_277" data-name="Group 277">
          <path id="Path_170" data-name="Path 170" d="M1269.8,267.6h55.9a1.5,1.5,0,0,0,0-3h-55.9a1.5,1.5,0,0,0,0,3Z" fill="#e8e8e8"/>
        </g>
      </g>
      <g id="Group_280" data-name="Group 280">
        <g id="Group_279" data-name="Group 279">
          <path id="Path_171" data-name="Path 171" d="M1305.2,249.6c-7.9-6,3.9-18.5,9.4-11,5.1,6.8-3.2,15-10.3,11.2-1.7-.9-3.2,1.7-1.5,2.6,4.6,2.5,10.7,1.8,14-2.5,3.4-4.3,3-11.1-1.3-14.7-4.5-3.7-10.9-1.2-14,3a9.963,9.963,0,0,0,2.2,14c1.6,1.1,3-1.5,1.5-2.6Z" fill="#e8e8e8"/>
        </g>
      </g>
      <g id="Group_282" data-name="Group 282">
        <g id="Group_281" data-name="Group 281">
          <path id="Path_172" data-name="Path 172" d="M1295.7,264.4c-.4-7.9,9.3-10.9,15.4-10.9,7.5,0,9.9,6.7,13,12.4.9,1.7,3.5.2,2.6-1.5-2.1-3.8-4.1-8.8-7.6-11.6-3.2-2.5-7.2-2.4-11-2-7,.8-15.9,5.1-15.4,13.6.1,1.9,3.1,1.9,3,0Z" fill="#e8e8e8"/>
        </g>
      </g>
      <g id="Group_284" data-name="Group 284">
        <g id="Group_283" data-name="Group 283">
          <path id="Path_173" data-name="Path 173" d="M1271.1,257.2c2.2-4.1,10.3-2.5,13.3-.9a11.6,11.6,0,0,1,5.7,7.9c.4,1.9,3.3,1.1,2.9-.8a14.859,14.859,0,0,0-10-11c-4.4-1.4-11.9-1.5-14.4,3.2-1,1.8,1.6,3.3,2.5,1.6Z" fill="#e8e8e8"/>
        </g>
      </g>
      <g id="Group_286" data-name="Group 286">
        <g id="Group_285" data-name="Group 285">
          <path id="Path_174" data-name="Path 174" d="M1276.9,249.8c-3.3-.1-2.5-5-1.1-6.7a5.163,5.163,0,0,1,8.3,6.1,4.6,4.6,0,0,1-4.1,1.7c-.6,0-3.1.1-3.5-.4-1.1-1.6-3.7-.1-2.6,1.5,1.2,1.8,3.7,1.9,5.7,1.9a7.994,7.994,0,0,0,6.4-2.3c3.2-3.5,2.1-9.4-1.7-12a8.245,8.245,0,0,0-11.9,3.2c-1.8,3.9-.5,9.8,4.5,9.9,2,.2,2-2.8,0-2.9Z" fill="#e8e8e8"/>
        </g>
      </g>
    </g>
    <g id="icons">
      <g id="Group_288" data-name="Group 288">
        <g id="Group_287" data-name="Group 287">
          <path id="Path_175" data-name="Path 175" d="M664.9,484.7c4.7,3.8,10.5,2.2,14.9-1.5,6.2-5.1,9.3-13.8,10.5-21.5,3.1-19.6-4.8-38.2-7.9-57.2-5.6-35.3,9.8-73.1,38.4-94.3,13.9-10.4,36.8-21.5,31.4-42.8a1.5,1.5,0,0,0-2.9.8c5.1,20.3-18.5,30.6-31.4,40.4a100.062,100.062,0,0,0-27.7,33.3,104.493,104.493,0,0,0-11.7,40.5c-1.3,17.1,3.2,33,6.9,49.5,2.2,10,3.6,20.5,1.7,30.7a40.224,40.224,0,0,1-5,13.4c-2.8,4.4-9.5,11.2-15.1,6.7-1.4-1.3-3.6.8-2.1,2Z" fill="#e8e8e8"/>
        </g>
      </g>
      <g id="Group_290" data-name="Group 290">
        <g id="Group_289" data-name="Group 289">
          <path id="Path_176" data-name="Path 176" d="M751.1,266.2c-11.3.5-21.2-8.3-20.6-19.9.6-12.1,14.9-23.3,27-20.1,10.8,2.9,19.1,14.8,16.4,25.9s-15.2,13.5-24.8,15.1c-1.9.3-1.1,3.2.8,2.9,12.4-2,26.8-6.4,27.6-21.4.6-12.2-10.3-25.4-22.8-25.9-13.2-.6-26.5,10.2-27.2,23.6-.6,13.2,10.7,23.4,23.6,22.9,1.9-.2,1.9-3.2,0-3.1Z" fill="#e8e8e8"/>
        </g>
      </g>
      <g id="Group_292" data-name="Group 292">
        <g id="Group_291" data-name="Group 291">
          <path id="Path_177" data-name="Path 177" d="M736.3,258.4c4.8-12.1,30.4-14.1,33.4.3.4,1.9,3.3,1.1,2.9-.8-3.7-17.6-33.4-15-39.2-.3-.7,1.8,2.2,2.5,2.9.8Z" fill="#e8e8e8"/>
        </g>
      </g>
      <g id="Group_294" data-name="Group 294">
        <g id="Group_293" data-name="Group 293">
          <path id="Path_178" data-name="Path 178" d="M751.3,244.9a4.948,4.948,0,0,1-1.5-6.6c1.6-2.7,5-3,7.6-1.6a3.822,3.822,0,0,1,1.2,5.5c-1.5,2.3-4.7,2.6-7.2,2-1.9-.4-2.7,2.5-.8,2.9,4,.9,8.8,0,10.8-3.9a6.8,6.8,0,0,0-3.1-9.4c-4-1.8-8.8-1-11.1,2.9-2.3,3.7-.8,8.3,2.6,10.7,1.6,1.3,3.1-1.3,1.5-2.5Z" fill="#e8e8e8"/>
        </g>
      </g>
      <g id="Group_296" data-name="Group 296">
        <g id="Group_295" data-name="Group 295">
          <path id="Path_179" data-name="Path 179" d="M793.7,214.1c10.5-27.8,40.7-42,68.8-43.9,18.6-1.3,37.2,1.6,55.4,5.1,17.2,3.4,35.1,8.8,52.7,8.2,14.5-.5,29.4-6.5,36.2-20,.9-1.7-1.7-3.2-2.6-1.5-7.9,15.6-26.1,19.6-42.2,18.3-18.8-1.5-37.3-7.1-55.8-10.2-30-5-62-5.7-88.7,11.2-12.1,7.7-21.7,18.5-26.8,32-.6,1.8,2.3,2.6,3,.8Z" fill="#e8e8e8"/>
        </g>
      </g>
      <g id="Group_298" data-name="Group 298">
        <g id="Group_297" data-name="Group 297">
          <path id="Path_180" data-name="Path 180" d="M1018.9,161.8h79.3a1.5,1.5,0,0,0,0-3h-79.3a1.5,1.5,0,1,0,0,3Z" fill="#e8e8e8"/>
        </g>
      </g>
      <g id="Group_300" data-name="Group 300">
        <g id="Group_299" data-name="Group 299">
          <path id="Path_181" data-name="Path 181" d="M1017.8,158.6c-4.7-4.6.4-12.4,4.1-15.9,4.5-4.4,10.7-6.1,16.7-3.7a1.479,1.479,0,0,0,1.7-.7c3.6-8.4,12.1-14.5,21.4-14.1,9.7.4,17.9,7.7,20.3,16.9a1.522,1.522,0,0,0,2.2.9c4.4-2.7,8.9.5,10.7,4.6,1.6,3.8,1.2,8.1.8,12.2-.2,1.9,2.8,1.9,3,0,.6-6,1-13.1-3.8-17.7-3.4-3.2-8.1-4.2-12.1-1.7.7.3,1.5.6,2.2.9-2.7-10-11.3-18-21.8-19-10.8-1.1-21.2,5.6-25.4,15.5.6-.2,1.1-.5,1.7-.7-8-3.2-16.4.2-21.6,6.8-3.9,4.9-7.3,12.8-2,17.9,1.2,1.3,3.3-.8,1.9-2.2Z" fill="#e8e8e8"/>
        </g>
      </g>
      <g id="Group_302" data-name="Group 302">
        <g id="Group_301" data-name="Group 301">
          <path id="Path_182" data-name="Path 182" d="M1074.7,173.3c12.3-1.4,19.5,11.5,21.4,21.9,2,10.7.1,21.4-1,32.1-1.7,16.1-.6,35.5,14.7,44.9,1.6,1,3.2-1.6,1.5-2.6-20.9-12.8-12.2-41.3-11.4-60.9.6-14.9-5.3-40.6-25.2-38.4-1.9.2-1.9,3.2,0,3Z" fill="#e8e8e8"/>
        </g>
      </g>
      <g id="Group_304" data-name="Group 304">
        <g id="Group_303" data-name="Group 303">
          <path id="Path_183" data-name="Path 183" d="M1126.4,255.3c-9,22.7-17.9,45.4-26.9,68-.7,1.8,2.2,2.6,2.9.8,9-22.7,17.9-45.4,26.9-68,.7-1.8-2.2-2.5-2.9-.8Z" fill="#e8e8e8"/>
        </g>
      </g>
      <g id="Group_306" data-name="Group 306">
        <g id="Group_305" data-name="Group 305">
          <path id="Path_184" data-name="Path 184" d="M1127.8,257.2a278.951,278.951,0,0,1,46.6,1.4,23.075,23.075,0,0,1-1.4-1.9,689.6,689.6,0,0,0-18.2,72c-.4,1.9,2.5,2.7,2.9.8a715.628,715.628,0,0,1,18.2-72,1.519,1.519,0,0,0-1.4-1.9,278.947,278.947,0,0,0-46.6-1.4c-2,.1-2,3.1-.1,3Z" fill="#e8e8e8"/>
        </g>
      </g>
      <g id="Group_308" data-name="Group 308">
        <g id="Group_307" data-name="Group 307">
          <path id="Path_185" data-name="Path 185" d="M1100.2,326.2c9.2.4,18.3.9,27.5,1.5,8.9.5,18.4.3,26.8,3.7,1.8.7,2.6-2.2.8-2.9-8-3.3-17.1-3.1-25.6-3.6-9.8-.6-19.6-1.1-29.5-1.6-1.9-.2-1.9,2.8,0,2.9Z" fill="#e8e8e8"/>
        </g>
      </g>
      <g id="Group_310" data-name="Group 310">
        <g id="Group_309" data-name="Group 309">
          <path id="Path_186" data-name="Path 186" d="M1129.2,267.2a250.269,250.269,0,0,1,28.7,2.2c1.9.3,2.7-2.6.8-2.9a242.72,242.72,0,0,0-29.5-2.4,1.551,1.551,0,0,0,0,3.1Z" fill="#e8e8e8"/>
        </g>
      </g>
      <g id="Group_312" data-name="Group 312">
        <g id="Group_311" data-name="Group 311">
          <path id="Path_187" data-name="Path 187" d="M1126.3,274a125.213,125.213,0,0,1,16.2.4c1.9.2,1.9-2.8,0-3a109.6,109.6,0,0,0-16.2-.4c-1.9.1-1.9,3.1,0,3Z" fill="#e8e8e8"/>
        </g>
      </g>
      <g id="Group_314" data-name="Group 314">
        <g id="Group_313" data-name="Group 313">
          <path id="Path_188" data-name="Path 188" d="M1119.7,287.5c11.5-.7,22.4-1.7,33.7,1.1a1.5,1.5,0,0,0,.8-2.9c-11.6-2.8-22.7-1.9-34.5-1.2-2,.1-2,3.1,0,3Z" fill="#e8e8e8"/>
        </g>
      </g>
      <g id="Group_316" data-name="Group 316">
        <g id="Group_315" data-name="Group 315">
          <path id="Path_189" data-name="Path 189" d="M1120.2,296.3a119.011,119.011,0,0,1,19.8.1c1.9.2,1.9-2.8,0-3a119.011,119.011,0,0,0-19.8-.1c-1.9.2-2,3.2,0,3Z" fill="#e8e8e8"/>
        </g>
      </g>
      <g id="Group_318" data-name="Group 318">
        <g id="Group_317" data-name="Group 317">
          <path id="Path_190" data-name="Path 190" d="M1115,307.9a132.332,132.332,0,0,1,26.7.9c1.9.3,1.9-2.7,0-3a132.577,132.577,0,0,0-26.7-.9c-1.9.1-1.9,3.1,0,3Z" fill="#e8e8e8"/>
        </g>
      </g>
      <g id="Group_320" data-name="Group 320">
        <g id="Group_319" data-name="Group 319">
          <path id="Path_191" data-name="Path 191" d="M617.4,173.7c4,5.4,9.8,7.6,15.7,10.3a56.866,56.866,0,0,1,18.6,13.2c11.8,12.7,15.7,29.8,16,46.7.7,31.7-10,64.9,4.4,94.9.8,1.7,3.4.2,2.6-1.5-15.1-31.6-1.7-67-4.3-100.2-1.1-14.4-5.2-28.5-14.5-39.7a57.7,57.7,0,0,0-15.8-13.3c-6.7-3.8-15.4-5.5-20.1-11.9-1.1-1.5-3.7,0-2.6,1.5Z" fill="#e8e8e8"/>
        </g>
      </g>
      <g id="Group_322" data-name="Group 322">
        <g id="Group_321" data-name="Group 321">
          <path id="Path_192" data-name="Path 192" d="M583.2,131.4q-3.9-4.95.6-6.9a14.38,14.38,0,0,1,4.1-1.5,23.936,23.936,0,0,1,6-.4c6,.3,12.1,1.9,11.8,9.2a121.119,121.119,0,0,1-4,25.4c-2.2,8.5-4.9,16.8-7.8,25.1a37.335,37.335,0,0,1-2,5.6c-1.8,3.1-4.6,3-7.6,3-3.7,0-8.4.5-12-.5-4-1.1-4.9-5.1-1-7.7,1.8-1.2,4.3-1.4,6.4-1.4,2.7,0,5.1.6,7.4-1.2,4.4-3.4,5.1-12.6,6.1-17.5,1.5-7.1,4-15.8,3.5-23-.4-5.5-5.8-5.7-9.7-8a1.5,1.5,0,0,0-1.5,2.6c3.1,1.8,7.6,2,8.2,6.1.7,4.8-1.3,11.3-2.2,16.1-.9,4.6-1.9,9.2-3.1,13.7-.9,3.4-1.3,7.5-5.8,8.4-1.8.4-4-.2-5.9.1-4.8.7-9.5,4.1-8.8,9.5.9,6.8,9,5.6,14,5.8,6.2.2,12.4,1.1,15.2-5.5,3.5-8.2,6-17.2,8.4-25.7a138.285,138.285,0,0,0,5.1-27c.6-7.1.9-12.8-7-14.7-6.9-1.7-16.4-2.5-21.8,3.1-3.6,3.7-2.7,11,3.5,10.5,1.8-.4,1.8-3.4-.1-3.2Z" fill="#e8e8e8"/>
        </g>
      </g>
      <g id="Group_324" data-name="Group 324">
        <g id="Group_323" data-name="Group 323">
          <path id="Path_193" data-name="Path 193" d="M571.1,142.1l-.3-.3a1.674,1.674,0,0,0-1.5-.4c-2.9,1-4,5.7-4.8,8.3a34.711,34.711,0,0,0-1,14.7c.2,1.9,3.2,1.9,3,0a36.246,36.246,0,0,1,.1-10.4c.3-1.8,3.4-8.8,2.3-9.8a1.522,1.522,0,0,0,2.2-2.1Z" fill="#e8e8e8"/>
        </g>
      </g>
      <g id="Group_326" data-name="Group 326">
        <g id="Group_325" data-name="Group 325">
          <path id="Path_194" data-name="Path 194" d="M561,131.1c-9.2,11.7-15.1,25.8-11.2,40.8a1.5,1.5,0,0,0,2.9-.8c-3.6-13.8,2-27.1,10.4-37.9,1.2-1.5-.9-3.6-2.1-2.1Z" fill="#e8e8e8"/>
        </g>
      </g>
      <g id="Group_328" data-name="Group 328">
        <g id="Group_327" data-name="Group 327">
          <path id="Path_195" data-name="Path 195" d="M548.4,117.6a100.1,100.1,0,0,0-19.9,70.7c.2,1.9,3.2,1.9,3,0A97.735,97.735,0,0,1,551,119.1c1.1-1.5-1.5-3-2.6-1.5Z" fill="#e8e8e8"/>
        </g>
      </g>
      <g id="Group_330" data-name="Group 330">
        <g id="Group_329" data-name="Group 329">
          <path id="Path_196" data-name="Path 196" d="M527.1,219.8A65.649,65.649,0,0,0,506.5,235c-5.8,6.6-7.6,13.7-8.5,22.3-2,19.7-9.3,41.3-29.1,49.6-1.8.7-1,3.6.8,2.9,15.8-6.6,25-21.6,28.9-37.8,2.3-9.7,1.2-21.2,6.3-29.9,5.2-8.9,14.6-15.4,23.7-19.8,1.8-.7.3-3.3-1.5-2.5Z" fill="#e8e8e8"/>
        </g>
      </g>
      <g id="Group_332" data-name="Group 332">
        <g id="Group_331" data-name="Group 331">
          <path id="Path_197" data-name="Path 197" d="M426.6,360c-6.6.2-14.1-2.6-16.5-9.4-2.8-8,3.2-15.8,9.6-19.9,12.4-8,29.1-11.1,43.5-11.3,7.3-.1,15.6,0,22,3.9,8.2,5,9.6,14.4,3.2,21.5-9.7,10.8-26.4,11.9-39.8,12.9-1.9.1-1.9,3.1,0,3,13.4-1,28.4-2.2,39.2-11.2,9.9-8.2,10.6-21.8-1-28.9-12-7.3-30.3-4.9-43.3-2.1-12.5,2.7-29.6,7.6-35.2,20.5-5.8,13.2,5.3,24.2,18.5,23.8,1.8.1,1.8-2.9-.2-2.8Z" fill="#e8e8e8"/>
        </g>
      </g>
      <g id="Group_334" data-name="Group 334">
        <g id="Group_333" data-name="Group 333">
          <path id="Path_198" data-name="Path 198" d="M426.1,361.2c-2.5,4-4.9,8-7.4,11.9-.8,1.3.8,2.7,2.1,2.1,6.1-3.3,12.7-5.4,18.9-8.3a78.636,78.636,0,0,0,9.9-5.3c1.1-.7,2.4-1.1,2.7-2.5a1.431,1.431,0,0,0-1-1.8.367.367,0,0,1-.3-.1c-.7-.1-1.7.2-1.8,1v.2c-.4,1.9,2.5,2.7,2.9.8V359c-.6.3-1.2.7-1.8,1a.367.367,0,0,1,.3.1c-.3-.6-.7-1.2-1-1.8-.3,1-5.9,3.3-7.1,4a97.644,97.644,0,0,1-9.3,4.2,129.63,129.63,0,0,0-13.7,6.1l2.1,2.1c2.5-4,4.9-8,7.4-11.9.7-1.7-1.9-3.2-2.9-1.6Z" fill="#e8e8e8"/>
        </g>
      </g>
      <g id="Group_336" data-name="Group 336">
        <g id="Group_335" data-name="Group 335">
          <path id="Path_199" data-name="Path 199" d="M429.4,343.9c-.1-.2-.1-.6.2-.6.8,0-.1,1-.2,1.1-.5.3-2.2.7-2.1-.3.1-1.2,2.4-2.5,2.8-.7a1.1,1.1,0,0,1-.8,1.2.592.592,0,0,1-.7-.1c-.1-.1-.3-.2-.1-.2,1.9.1,1.9-2.9,0-3a3.006,3.006,0,0,0-3,3.8,3.688,3.688,0,0,0,4.5,2.4,4.264,4.264,0,0,0,3.2-4,4.169,4.169,0,0,0-3.2-3.9c-3.7-.9-7.6,4.5-4.4,7.2,2.6,2.2,7.8.2,7.5-3.5a3.461,3.461,0,0,0-4.4-2.9,3.545,3.545,0,0,0-1.8,5c.8,1.7,3.4.2,2.5-1.5Z" fill="#e8e8e8"/>
        </g>
      </g>
      <g id="Group_338" data-name="Group 338">
        <g id="Group_337" data-name="Group 337">
          <path id="Path_200" data-name="Path 200" d="M451.5,341.2c-.1-.6-.4-1.4.2-1.9a1.676,1.676,0,0,1,1.2-.3c1,.2.8,1.3.1,1.8a.708.708,0,0,1-1.1-.1c-.3-.4-.2-.5.1-.7.2-.1-.4,0,.1-.1,1.2-.2-.8,1.2-.5.2-.6,1.9,2.3,2.6,2.9.8a2.713,2.713,0,0,0-3-3.3,2.674,2.674,0,1,0,3,3.9,2.941,2.941,0,0,0-1.5-4.3,3.272,3.272,0,0,0-4.2,2.3,3.824,3.824,0,0,0,2.9,4.5c3.6.8,6.6-4.1,4-6.8a4.581,4.581,0,0,0-5-.7c-2.2,1.1-2.3,3.4-1.9,5.5.1,1.9,3,1.1,2.7-.8Z" fill="#e8e8e8"/>
        </g>
      </g>
      <g id="Group_340" data-name="Group 340">
        <g id="Group_339" data-name="Group 339">
          <path id="Path_201" data-name="Path 201" d="M473.7,334.5c.4,0,.8.1,1.3.1v-.1c.1-.1.1-.3.2-.4a1.47,1.47,0,0,1,.6-.5.952.952,0,0,1,1.3.3c.4.8-.3,2.3-1.3,1.7-.6-.4-.7-1.4.2-1.2a.52.52,0,0,1,.4.2h0c0-.2,0,.1-.1.1-.3.2-.4.4-.7.2a1.577,1.577,0,0,0-2.1.5,1.685,1.685,0,0,0,.5,2.1c2.9,2.1,6.8-2.1,4.5-4.9-2.1-2.5-6.6-.9-6.4,2.4a4.06,4.06,0,0,0,3,3.6,3.967,3.967,0,0,0,4.2-1.8c2-3.1-.8-7.4-4.5-6.2a4.289,4.289,0,0,0-3,4.2c.2,2.1,3.2,3.2,4.3,1.1a1.39,1.39,0,1,0-2.4-1.4Z" fill="#e8e8e8"/>
        </g>
      </g>
      <g id="Group_342" data-name="Group 342">
        <g id="Group_341" data-name="Group 341">
          <path id="Path_202" data-name="Path 202" d="M534.1,247.3A109.3,109.3,0,0,0,566,220.6c1.2-1.5-.9-3.6-2.1-2.1a106.779,106.779,0,0,1-31.3,26.2c-1.7.9-.2,3.5,1.5,2.6Z" fill="#e8e8e8"/>
        </g>
      </g>
      <g id="Group_344" data-name="Group 344">
        <g id="Group_343" data-name="Group 343">
          <path id="Path_203" data-name="Path 203" d="M683.7,249.9a173.644,173.644,0,0,0-2.5,38.1c.1,1.9,3.1,1.9,3,0a166.424,166.424,0,0,1,2.4-37.3c.3-1.9-2.6-2.7-2.9-.8Z" fill="#e8e8e8"/>
        </g>
      </g>
      <g id="Group_346" data-name="Group 346">
        <g id="Group_345" data-name="Group 345">
          <path id="Path_204" data-name="Path 204" d="M668.4,542.2a48.734,48.734,0,0,1,19.5-39c1.5-1.1,0-3.7-1.5-2.6a51.581,51.581,0,0,0-20.9,41.6c-.1,1.9,2.9,1.9,2.9,0Z" fill="#e8e8e8"/>
        </g>
      </g>
    </g>
    <g id="chair">
      <path id="Path_205" data-name="Path 205" d="M835.9,946a401.367,401.367,0,0,0,8.1,47.3,405.961,405.961,0,0,0,19.2,60.3,27.026,27.026,0,0,1-27.9,5c-3.6-12.5-7.1-25.5-10.3-39-6.6-27.8-11.4-54.3-14.9-79Q823.15,943.3,835.9,946Z" fill="#191919"/>
      <path id="Path_206" data-name="Path 206" d="M1060.4,936.6a390.487,390.487,0,0,1-7.2,47.3,397.889,397.889,0,0,1-19.1,62.9,20.965,20.965,0,0,0,29.2,0c2.3-12.1,4.5-24.3,6.7-36.5,4.8-26.7,9.1-53,13.2-79C1075.6,933,1068,934.8,1060.4,936.6Z" fill="#191919"/>
      <path id="Path_207" data-name="Path 207" d="M881.6,896.7c2.3,15.3,5,31.1,8.1,47.3,4.5,23.5,9.6,45.9,15,67.1a28.9,28.9,0,0,1-25.1,2.3c-3-14.2-5.9-28.6-8.8-43-5.3-26.7-10.2-53-14.9-79C864.5,893.1,873,894.9,881.6,896.7Z" fill="#191919"/>
      <path id="Path_208" data-name="Path 208" d="M1022.7,893.7c-2.7,15.1-5.1,30.9-7.2,47.3q-4.35,33.9-6.1,64.8a23.216,23.216,0,0,0,11.4,3.7,22.909,22.909,0,0,0,12.3-3.2,306.556,306.556,0,0,1-.8-38.9,319.189,319.189,0,0,1,13.2-79C1037.9,890.1,1030.3,891.9,1022.7,893.7Z" fill="#191919"/>
      <path id="Path_209" data-name="Path 209" d="M1200.4,559.1c17.5,31.2,4,65.7-28.8,151.4-15.8,41.2-44.7,116.9-85.5,224.8a459.133,459.133,0,0,1-188.6,26.9,452.027,452.027,0,0,1-118-24.2c-4.5-8.1-20.1-38.4-8.4-67.8,6.5-16.3,19.6-28,47.4-41.8,27.4-13.6,75.7-32.7,145.9-36.2-27.5-136.9,19.6-249.1,92.9-275C1105.4,500.3,1176.3,516.2,1200.4,559.1Z" fill="#fff" stroke="#191919" stroke-miterlimit="10" stroke-width="2"/>
      <g id="Group_348" data-name="Group 348">
        <g id="Group_347" data-name="Group 347">
          <path id="Path_210" data-name="Path 210" d="M1194,570.4c-29,36.7-35.6,86-46.7,130.1-11.9,47.2-25.6,94.3-46.1,138.6a403.634,403.634,0,0,1-40.5,69.3c-1.1,1.6,1.5,3.1,2.6,1.5,27.9-38,47.6-81.1,62.8-125.5,15.4-45.2,25.6-91.8,37.6-137.9,6.8-26.2,15.5-52.4,32.5-73.9,1.1-1.6-1-3.7-2.2-2.2Z" fill="#191919"/>
        </g>
      </g>
      <g id="Group_350" data-name="Group 350">
        <g id="Group_349" data-name="Group 349">
          <path id="Path_211" data-name="Path 211" d="M780.1,916.3a421.25,421.25,0,0,0,269.1,7.1c1.8-.6,1.1-3.5-.8-2.9a416.739,416.739,0,0,1-267.5-7.1c-1.8-.7-2.6,2.2-.8,2.9Z" fill="#191919"/>
        </g>
      </g>
      <g id="Group_352" data-name="Group 352">
        <g id="Group_351" data-name="Group 351">
          <path id="Path_212" data-name="Path 212" d="M1014.9,837.7a76.485,76.485,0,0,1,40.7,31.6c1,1.6,3.6.1,2.6-1.5a80.145,80.145,0,0,0-42.5-33c-1.9-.6-2.7,2.3-.8,2.9Z" fill="#191919"/>
        </g>
      </g>
    </g>
    <g id="leg_r">
      <path id="Path_213" data-name="Path 213" d="M714.1,967.2c8,12,16,24.1,23.9,36.1-51.2,46-57.8,59.1-54,62.3,7.6,6.3,62.1-21.7,67.7-24.6a376.218,376.218,0,0,0,45.8-27.7,215.69,215.69,0,0,0-15-32.4,241.524,241.524,0,0,0-27.4-38.7C741.4,950.4,727.7,958.8,714.1,967.2Z" fill="#191919"/>
      <path id="Path_214" data-name="Path 214" d="M1013.3,731.5a86.514,86.514,0,0,1,8,32.3,88.47,88.47,0,0,1-10.7,45.6A113.7,113.7,0,0,1,996,825s-16.1,14.2-41.7,25.1c-26.1,11.2-102,24.7-205.1,27.3a171.235,171.235,0,0,0,18,45.4A188.273,188.273,0,0,0,784,947.4c-3.8,5-14.6,17.7-36.1,25.7-20.7,7.7-39.7,6.8-47.2,6.2a243.136,243.136,0,0,1-32.2-35.8c-30.3-41.7-37.4-82-38.7-107.9a317.263,317.263,0,0,1,32.9-20.7c30-16.5,57.5-25.5,80.1-32.2,38.9-11.4,76.1-19.3,161.7-33.8C931.3,744.4,968.4,738.2,1013.3,731.5Z" fill="#fff" stroke="#191919" stroke-miterlimit="10" stroke-width="2"/>
      <path id="Path_215" data-name="Path 215" d="M918.3,748.7c-2.9,19.1-11.1,43.9-36.5,59.3-24.7,15-45.4,8.9-94.9,20.9-35.6,8.6-82.7,20-95.8,45.3-13.7,26.6,12.2,64.1,57.5,94.9a58.674,58.674,0,0,0,13.7-3.5c13.1-5.2,19.5-13.7,21.9-17.4a189.291,189.291,0,0,1-17.3-24.4,168.432,168.432,0,0,1-19.2-46.7c53-2.2,97.5-6.8,131.3-11.2,40.7-5.3,68.9-10.6,95.8-25.8,22.5-12.7,31.5-25.2,34.7-30,9.7-14.7,10.5-28.1,10.9-35.6,1-18.3-5-33.2-10-42.6Z" fill="#6c6d6d" opacity="0.19"/>
      <path id="Path_216" data-name="Path 216" d="M1011.4,734c-2,18.6-9.1,48-37.4,71.2-17.4,14.3-36.1,20.7-109.5,40.5-32.4,8.7-71.6,19-116.2,30.2a1090.48,1090.48,0,0,0,135.9-9.8c34.3-4.7,51.1-8.8,68.5-16.3,16.5-7.1,49.8-21.5,63.4-51.8C1029.2,768.6,1016,742.2,1011.4,734Z" fill="#6c6d6d" opacity="0.19"/>
      <path id="Path_217" data-name="Path 217" d="M748.6,877.4a250.274,250.274,0,0,0,2.7,44.9,262.22,262.22,0,0,0,10.5,43.9,75.916,75.916,0,0,0,11.1-8,74.019,74.019,0,0,0,10.5-11.1,217.907,217.907,0,0,1-17.2-26.3A190.829,190.829,0,0,1,748.6,877.4Z" fill="#6c6d6d" opacity="0.22"/>
    </g>
    <g id="leg_l">
      <path id="Path_218" data-name="Path 218" d="M744,1024.6c7.7,15.1,15.3,30.2,23,45.4-49.2,57.8-55.6,74.2-51.9,78.2,7.3,8,59.7-27.3,65.1-30.9a370.613,370.613,0,0,0,44.1-34.8A321.252,321.252,0,0,0,783.5,993Q763.7,1008.9,744,1024.6Z" fill="#191919"/>
      <path id="Path_219" data-name="Path 219" d="M1031.6,728.4a136.03,136.03,0,0,1,7.7,40.6,138.58,138.58,0,0,1-10.3,57.3,141.724,141.724,0,0,1-14,19.7,161.5,161.5,0,0,1-40,31.6c-25.1,14-98.1,31.1-197.1,34.3a253.8,253.8,0,0,0,17.3,57,244.971,244.971,0,0,0,16.2,30.9,81.489,81.489,0,0,1-80.1,40,284.008,284.008,0,0,1-30.9-45c-29.2-52.4-36-103.1-37.2-135.6a318.893,318.893,0,0,1,31.6-26c28.9-20.7,55.2-32.1,77-40.5,37.3-14.3,73.2-24.2,155.5-42.5C952.7,744.5,988.5,736.8,1031.6,728.4Z" fill="#fff" stroke="#191919" stroke-miterlimit="10" stroke-width="2"/>
      <path id="Path_220" data-name="Path 220" d="M940.3,750c-2.8,24-10.7,55.1-35.1,74.5-23.7,18.9-43.7,11.2-91.2,26.3-34.2,10.8-79.5,25.2-92.1,57-13.2,33.4,11.7,80.6,55.2,119.2a45.222,45.222,0,0,0,13.2-4.4c12.6-6.5,18.7-17.2,21-21.9a248.529,248.529,0,0,1-35.1-89.4,1130.633,1130.633,0,0,0,126.3-14c39.2-6.6,66.2-13.3,92.1-32.4,21.6-16,30.3-31.7,33.3-37.7,9.3-18.5,10.1-35.3,10.5-44.7a128.775,128.775,0,0,0-9.6-53.5Q984.55,739.35,940.3,750Z" fill="#6c6d6d" opacity="0.19"/>
      <path id="Path_221" data-name="Path 221" d="M1029.7,731.5c-1.9,23.3-8.7,60.3-35.9,89.5-16.8,18-34.7,26-105.2,50.9-31.2,11-68.8,23.9-111.7,38a808.266,808.266,0,0,0,130.7-12.3c33-5.9,49.2-11,65.8-20.4,15.9-9,47.8-27,61-65.2C1046.9,775,1034.2,741.9,1029.7,731.5Z" fill="#6c6d6d" opacity="0.19"/>
      <path id="Path_222" data-name="Path 222" d="M777.2,911.8a407.261,407.261,0,0,0,2.6,56.4,414.253,414.253,0,0,0,10.1,55.1,80.946,80.946,0,0,0,10.7-10.1,89.947,89.947,0,0,0,10.1-13.9,275.691,275.691,0,0,1-16.5-33.1A278.828,278.828,0,0,1,777.2,911.8Z" fill="#6c6d6d" opacity="0.22"/>
    </g>
    <g id="hand_r">
      <path id="Path_223" data-name="Path 223" d="M738.3,573c-1.9-.9-5.7-2.6-5.6-4.5.2-3.1,10.5-5.2,18.2-5.1,5.2,0,14.8,1.1,26,8.9C766.4,575.6,750.9,578.6,738.3,573Z" fill="#fff" stroke="#191919" stroke-miterlimit="10" stroke-width="2"/>
      <path id="Path_224" data-name="Path 224" d="M978.8,443.3c-19-2.5-36.1,26-37.7,28.6-5.8,9.9-6.5,16.5-10.5,34.6-9.7,44.1-14.9,66.5-29.3,80a62.793,62.793,0,0,1-32.2,15.6c-17.1,2.7-32.6-3.7-62.8-16.6-25.5-10.9-28.6-14.9-42.5-16.5-7.1-.8-27.8-3.1-41.5,10.2-8.8,8.5-12.7,22.1-9.5,24.9,4.1,3.6,20.9-9.1,21.1-8.8.1.2-5,2.6-9.2,7.8-2.1,2.5-5.7,7.9-4.4,9.3,2.3,2.8,16.4-14.2,31.9-11.2,10.6,2,12.6,11.6,24.9,13.4a30.341,30.341,0,0,0,17.5-3,131.726,131.726,0,0,0,34.9,27.2c9.8,5.2,44.4,23.1,86.7,12.7,44.9-11,67.5-46.1,74.6-57.1,4-6.3,33.4-53.3,19.2-106C1007.5,479.9,998.4,445.9,978.8,443.3Z" fill="#fff" stroke="#191919" stroke-miterlimit="10" stroke-width="2"/>
      <path id="Path_225" data-name="Path 225" d="M976.8,443.6c-6.5,3.4,6.1,27,4.5,60.8-1.5,32.5-15.4,56.5-21.6,67.5-8.4,14.7-19.5,33.9-41.6,46.4-29.7,16.8-66.5,14.3-92.7,2.9-7.8-3.4-15.7-14.4-32.9-21.1-7.5-2.9-13.4-4.1-20.3-5.5-16.9-3.3-31.9-6.3-45.8.7-6.6,3.4-12.1,8.6-11.7,9.3s8.1-3.2,14.9-6.9c-8.2,10.9-9.5,14-8.9,14.6.7.6,3.2-1.7,9.6-5.3,6.9-3.8,11.9-6.5,18-6a22.585,22.585,0,0,1,6.9,1.9c5.5,2.4,6.8,5.2,12.3,8a30.814,30.814,0,0,0,7.7,2.7,33.168,33.168,0,0,0,18.5-1.5c7.6,8,42.5,43.4,93.6,42.7,26.3-.4,45.6-10.2,53.2-14.1,41.7-21.7,58.3-60.2,62.5-70.8,13-32.8,17.6-81.4-6.2-111.9C991.1,450.6,981.3,441.3,976.8,443.6Z" fill="#6c6d6d" opacity="0.25"/>
      <g id="Group_354" data-name="Group 354">
        <g id="Group_353" data-name="Group 353">
          <path id="Path_226" data-name="Path 226" d="M714.6,604.1a42.239,42.239,0,0,1,15.1-13.7c1.3-.7.1-2.6-1.1-1.9A45.122,45.122,0,0,0,712.7,603c-.9,1.2,1.1,2.3,1.9,1.1Z" fill="#191919"/>
        </g>
      </g>
      <g id="Group_356" data-name="Group 356">
        <g id="Group_355" data-name="Group 355">
          <path id="Path_227" data-name="Path 227" d="M715.8,591.2c3.9-6.1,10.2-9.3,16.5-12.4,1.3-.6.2-2.6-1.1-1.9-6.7,3.2-13.3,6.7-17.4,13.2-.7,1.2,1.2,2.3,2,1.1Z" fill="#191919"/>
        </g>
      </g>
      <path id="Path_228" data-name="Path 228" d="M1005.5,479.6a346.823,346.823,0,0,1-9,41.9c-9.4,34-17.9,64.6-40.1,88.9-27.5,30-64.8,38.2-86.2,40.7a98.624,98.624,0,0,0,36.3,1.9c60-8.4,92.4-72.9,101.2-101.1a107.526,107.526,0,0,0,5.1-29.4A109.48,109.48,0,0,0,1005.5,479.6Z" fill="#6c6d6d" opacity="0.29"/>
      <path id="Path_229" data-name="Path 229" d="M754.2,600a90.01,90.01,0,0,0,23.1,7.7,91.525,91.525,0,0,0,19.8,1.5c-13.7,7.3-20.8,6.4-24.8,4-2.5-1.5-5.3-4.5-13-9.8C757.2,601.9,755.4,600.7,754.2,600Z" fill="#6c6d6d" opacity="0.26"/>
    </g>
    <g id="table">
      <g id="Group_358" data-name="Group 358">
        <g id="Group_357" data-name="Group 357">
          <path id="Path_230" data-name="Path 230" d="M552,764.4V908.5c0,5.8,9,5.8,9,0V764.4c0-5.7-9-5.8-9,0Z" fill="#161616"/>
        </g>
      </g>
      <g id="Group_360" data-name="Group 360">
        <g id="Group_359" data-name="Group 359">
          <path id="Path_231" data-name="Path 231" d="M715.6,762.5v23.1c0,5.8,9,5.8,9,0V762.5c0-5.8-9-5.8-9,0Z" fill="#161616"/>
        </g>
      </g>
      <path id="Path_232" data-name="Path 232" d="M427.8,758.5q72.75-68.55,145.6-137.2l235.4,4.2q-19.2,66.6-38.4,133.1Q599.1,758.45,427.8,758.5Z" fill="#fff" stroke="#191919" stroke-miterlimit="10" stroke-width="2"/>
      <g id="Group_362" data-name="Group 362">
        <g id="Group_361" data-name="Group 361">
          <path id="Path_233" data-name="Path 233" d="M430.7,763.7H767.4c5.8,0,5.8-9,0-9H430.7c-5.8,0-5.8,9,0,9Z" fill="#161616"/>
        </g>
      </g>
      <g id="Group_364" data-name="Group 364">
        <g id="Group_363" data-name="Group 363">
          <path id="Path_234" data-name="Path 234" d="M456.4,762.2v382c0,5.8,9,5.8,9,0v-382c0-5.8-9-5.8-9,0Z" fill="#161616"/>
        </g>
      </g>
      <g id="Group_366" data-name="Group 366">
        <g id="Group_365" data-name="Group 365">
          <path id="Path_235" data-name="Path 235" d="M730.7,762.2v382c0,5.8,9,5.8,9,0v-382c0-5.8-9-5.8-9,0Z" fill="#161616"/>
        </g>
      </g>
      <g id="Group_368" data-name="Group 368">
        <g id="Group_367" data-name="Group 367">
          <path id="Path_236" data-name="Path 236" d="M460.9,947.9H732.7c5.8,0,5.8-9,0-9H460.9c-5.8,0-5.8,9,0,9Z" fill="#161616"/>
        </g>
      </g>
      <g id="Group_370" data-name="Group 370">
        <g id="Group_369" data-name="Group 369">
          <path id="Path_237" data-name="Path 237" d="M807.6,625.5c-11.4,44.5-24.5,88.6-39.5,132-1.3,3.7,4.5,5.2,5.8,1.6q22.5-65.25,39.5-132c.9-3.7-4.8-5.3-5.8-1.6Z" fill="#161616"/>
        </g>
      </g>
      <g id="lines">
        <g id="Group_372" data-name="Group 372">
          <g id="Group_371" data-name="Group 371">
            <path id="Path_238" data-name="Path 238" d="M328.8,1154H488c5.8,0,5.8-9,0-9H328.8c-5.8,0-5.8,9,0,9Z" fill="#161616"/>
          </g>
        </g>
        <g id="Group_374" data-name="Group 374">
          <g id="Group_373" data-name="Group 373">
            <path id="Path_239" data-name="Path 239" d="M510.3,1152H547c5.8,0,5.8-9,0-9H510.3c-5.8,0-5.8,9,0,9Z" fill="#161616"/>
          </g>
        </g>
        <g id="Group_376" data-name="Group 376">
          <g id="Group_375" data-name="Group 375">
            <path id="Path_240" data-name="Path 240" d="M669.5,1153.3H813c5.8,0,5.8-9,0-9H669.5c-5.8,0-5.8,9,0,9Z" fill="#161616"/>
          </g>
        </g>
        <g id="Group_378" data-name="Group 378">
          <g id="Group_377" data-name="Group 377">
            <path id="Path_241" data-name="Path 241" d="M845.7,1150.1h25.6c5.8,0,5.8-9,0-9H845.7c-5.8,0-5.8,9,0,9Z" fill="#161616"/>
          </g>
        </g>
        <g id="Group_380" data-name="Group 380">
          <g id="Group_379" data-name="Group 379">
            <path id="Path_242" data-name="Path 242" d="M280.6,1122.3h62c5.8,0,5.8-9,0-9h-62c-5.8,0-5.8,9,0,9Z" fill="#161616"/>
          </g>
        </g>
      </g>
    </g>
    <g id="laptop">
      <path id="Path_243" data-name="Path 243" d="M718,739.6q-92.55-2.4-185.2-4.7,54.9-52.5,109.7-105.1,63.3,3.3,126.7,6.6C752.1,670.9,735.1,705.2,718,739.6Z" fill="#fff" stroke="#191919" stroke-miterlimit="10" stroke-width="2"/>
      <path id="Path_244" data-name="Path 244" d="M640.4,629.1q-53.85,52.05-107.7,104.2-2.4-83.4-4.9-166.9l109.2-69Q638.5,563.25,640.4,629.1Z" fill="#fff" stroke="#191919" stroke-miterlimit="10" stroke-width="2"/>
      <g id="Group_382" data-name="Group 382">
        <g id="Group_381" data-name="Group 381">
          <path id="Path_245" data-name="Path 245" d="M531.1,571.7q4.35,74.25,5.8,148.7a.75.75,0,0,0,1.5,0q-1.5-74.4-5.8-148.7c-.1-.9-1.6-.9-1.5,0Z" fill="#191919"/>
        </g>
      </g>
      <g id="Group_384" data-name="Group 384">
        <g id="Group_383" data-name="Group 383">
          <path id="Path_246" data-name="Path 246" d="M531.9,571.9l100.5-65.4a.764.764,0,0,0-.8-1.3L531.1,570.6c-.8.6-.1,1.9.8,1.3Z" fill="#191919"/>
        </g>
      </g>
      <g id="Group_386" data-name="Group 386">
        <g id="Group_385" data-name="Group 385">
          <path id="Path_247" data-name="Path 247" d="M632,506.4c-.1,39.9,1.1,79.9,3.7,119.7.1,1,1.6,1,1.5,0q-3.75-59.85-3.7-119.7a.754.754,0,0,0-1.5,0Z" fill="#191919"/>
        </g>
      </g>
      <g id="Group_388" data-name="Group 388">
        <g id="Group_387" data-name="Group 387">
          <path id="Path_248" data-name="Path 248" d="M537.9,722.5q49.2-47.55,98.5-95c.7-.7-.4-1.7-1.1-1.1q-49.2,47.55-98.5,95c-.6.7.4,1.8,1.1,1.1Z" fill="#191919"/>
        </g>
      </g>
      <g id="Group_390" data-name="Group 390">
        <g id="Group_389" data-name="Group 389">
          <path id="Path_249" data-name="Path 249" d="M689.8,705.5c6.1-9.7,12.2-19.5,18.1-29.4.5-.8-.8-1.6-1.3-.8-5.9,9.9-12,19.7-18.1,29.4-.6.8.7,1.6,1.3.8Z" fill="#191919"/>
        </g>
      </g>
      <g id="Group_392" data-name="Group 392">
        <g id="Group_391" data-name="Group 391">
          <path id="Path_250" data-name="Path 250" d="M707.5,675.8c7.9.3,15.8.3,23.7-.1a.75.75,0,0,0,0-1.5c-7.9.3-15.8.3-23.7.1a.75.75,0,0,0,0,1.5Z" fill="#191919"/>
        </g>
      </g>
      <g id="Group_394" data-name="Group 394">
        <g id="Group_393" data-name="Group 393">
          <path id="Path_251" data-name="Path 251" d="M730.2,675.3c-4.5,9.8-9.1,19.6-13.7,29.4-.4.9.9,1.6,1.3.8,4.6-9.8,9.2-19.6,13.7-29.4.4-1-.9-1.7-1.3-.8Z" fill="#191919"/>
        </g>
      </g>
      <g id="Group_396" data-name="Group 396">
        <g id="Group_395" data-name="Group 395">
          <path id="Path_252" data-name="Path 252" d="M689.3,706.3c8.8,1.3,18.1.7,27,.3a.75.75,0,0,0,0-1.5c-8.7.4-17.9,1-26.6-.2-1-.2-1.4,1.3-.4,1.4Z" fill="#191919"/>
        </g>
      </g>
      <g id="Group_398" data-name="Group 398">
        <g id="Group_397" data-name="Group 397">
          <path id="Path_253" data-name="Path 253" d="M722.1,675.4a258.009,258.009,0,0,1-13.8,29.1c-.5.8.8,1.6,1.3.8a294.4,294.4,0,0,0,14-29.5c.3-.9-1.1-1.3-1.5-.4Z" fill="#191919"/>
        </g>
      </g>
      <g id="Group_400" data-name="Group 400">
        <g id="Group_399" data-name="Group 399">
          <path id="Path_254" data-name="Path 254" d="M577.2,720.7q33-40.8,68.3-79.8c.6-.7-.4-1.8-1.1-1.1q-35.25,38.85-68.3,79.8c-.6.8.5,1.8,1.1,1.1Z" fill="#191919"/>
        </g>
      </g>
      <g id="Group_402" data-name="Group 402">
        <g id="Group_401" data-name="Group 401">
          <path id="Path_255" data-name="Path 255" d="M603.8,722.4q29.55-41.25,62.3-79.9c.6-.7-.4-1.8-1.1-1.1q-32.85,38.85-62.5,80.2c-.6.8.7,1.6,1.3.8Z" fill="#191919"/>
        </g>
      </g>
      <g id="Group_404" data-name="Group 404">
        <g id="Group_403" data-name="Group 403">
          <path id="Path_256" data-name="Path 256" d="M632.4,726.5a888.734,888.734,0,0,1,56-82.7c.6-.8-.7-1.5-1.3-.8a888.726,888.726,0,0,0-56,82.7c-.5.8.8,1.6,1.3.8Z" fill="#191919"/>
        </g>
      </g>
      <g id="Group_406" data-name="Group 406">
        <g id="Group_405" data-name="Group 405">
          <path id="Path_257" data-name="Path 257" d="M656.4,729a518.969,518.969,0,0,1,59.5-88c.6-.7-.4-1.8-1.1-1.1A523.031,523.031,0,0,0,655,728.2c-.4.9.9,1.7,1.4.8Z" fill="#191919"/>
        </g>
      </g>
      <g id="Group_408" data-name="Group 408">
        <g id="Group_407" data-name="Group 407">
          <path id="Path_258" data-name="Path 258" d="M590,704.5c25.6-2.7,51.2.5,76.7,3.9,1,.1.9-1.4,0-1.5-25.4-3.4-51-6.7-76.7-3.9-.9.1-.9,1.6,0,1.5Z" fill="#191919"/>
        </g>
      </g>
      <g id="Group_410" data-name="Group 410">
        <g id="Group_409" data-name="Group 409">
          <path id="Path_259" data-name="Path 259" d="M602.9,689.9a317.962,317.962,0,0,1,72.2,5.5c.9.2,1.3-1.3.4-1.4a321.462,321.462,0,0,0-72.6-5.5c-.9-.1-.9,1.4,0,1.4Z" fill="#191919"/>
        </g>
      </g>
      <g id="Group_412" data-name="Group 412">
        <g id="Group_411" data-name="Group 411">
          <path id="Path_260" data-name="Path 260" d="M614.5,675.8a227.8,227.8,0,0,1,69.3,6.2c.9.2,1.3-1.2.4-1.4a227.046,227.046,0,0,0-69.7-6.3c-1,.1-1,1.6,0,1.5Z" fill="#191919"/>
        </g>
      </g>
      <g id="Group_414" data-name="Group 414">
        <g id="Group_413" data-name="Group 413">
          <path id="Path_261" data-name="Path 261" d="M626.5,661.7a337.3,337.3,0,0,1,66.5,6.9c.9.2,1.3-1.3.4-1.4a341.328,341.328,0,0,0-66.9-6.9c-.9-.1-.9,1.4,0,1.4Z" fill="#191919"/>
        </g>
      </g>
      <g id="Group_416" data-name="Group 416">
        <g id="Group_415" data-name="Group 415">
          <path id="Path_262" data-name="Path 262" d="M638.4,648.6a311.97,311.97,0,0,1,63.2,7.6c.9.2,1.3-1.2.4-1.4a309.659,309.659,0,0,0-63.6-7.6c-1-.1-1,1.4,0,1.4Z" fill="#191919"/>
        </g>
      </g>
      <g id="Group_418" data-name="Group 418">
        <g id="Group_417" data-name="Group 417">
          <path id="Path_263" data-name="Path 263" d="M707,663.8c-9.8,14.4-19.5,28.8-29.3,43.2-.5.8.8,1.6,1.3.8,9.8-14.4,19.5-28.8,29.3-43.2.6-.9-.7-1.6-1.3-.8Z" fill="#191919"/>
        </g>
      </g>
      <g id="Group_420" data-name="Group 420">
        <g id="Group_419" data-name="Group 419">
          <path id="Path_264" data-name="Path 264" d="M541.4,642c12.5-5.3,26-2.3,39.2-2.5a62.231,62.231,0,0,0,31.2-8.8.764.764,0,0,0-.8-1.3c-11.7,6.9-24.1,9.1-37.5,8.5-11.2-.5-22.3-1.6-32.9,2.9-.8.3-.1,1.6.8,1.2Z" fill="#191919"/>
        </g>
      </g>
      <g id="Group_422" data-name="Group 422">
        <g id="Group_421" data-name="Group 421">
          <path id="Path_265" data-name="Path 265" d="M575.1,635.8c21.4-12.1,31.3-37.6,53.6-48.3.9-.4.1-1.7-.8-1.3-22.4,10.8-32.2,36.2-53.6,48.3a.764.764,0,0,0,.8,1.3Z" fill="#191919"/>
        </g>
      </g>
      <g id="Group_424" data-name="Group 424">
        <g id="Group_423" data-name="Group 423">
          <path id="Path_266" data-name="Path 266" d="M602.3,564.5c-3.7-2.9-3.1-7.6-1-11.3a13.912,13.912,0,0,1,4.2-4.8c3.1-2,6-.4,8.4,1.7.7.6,1.8-.4,1.1-1.1-5-4.2-9.7-3.8-13.8,1.6-3.3,4.4-5,11,0,15,.8.6,1.9-.5,1.1-1.1Z" fill="#191919"/>
        </g>
      </g>
    </g>
    <g id="torso">
      <path id="Path_267" data-name="Path 267" d="M910.3,491.4c-27.4,30.4-34.8,63.8-38.8,82.7-7.3,35,.4,49,.9,115.5.2,28.3-1,51.2-1.9,65.6,6.2,4.8,44.6,33.4,95.9,24,38-6.9,60.9-30.7,68.1-38.8,1.7-9.5,4.1-23.5,6.9-40.5,14.8-91.7,22.1-138.2,12.9-171.5-5.5-20.2-19.1-52.2-57.7-85.3C980.4,446.5,941.5,456.9,910.3,491.4Z" fill="#9b9b9b"/>
      <path id="Path_268" data-name="Path 268" d="M938.2,473a464.384,464.384,0,0,1,17.6,70.5c7.9,47.1,19.8,117.7-13.7,186.1a214.245,214.245,0,0,1-32,47.7,130.205,130.205,0,0,0,62-.7,132.137,132.137,0,0,0,61.4-35.9c6.5-37.2,11.7-69.1,15.7-94,6.9-43.8,8.5-57.1,7.8-75.8-.8-24-1.9-49.2-16.3-76.4a138.341,138.341,0,0,0-45.1-49.6,115,115,0,0,0-37.9,13.7A126.6,126.6,0,0,0,938.2,473Z" fill="#6c6d6d" opacity="0.19"/>
      <path id="Path_269" data-name="Path 269" d="M1051.8,520.7c-1.8.1,2,27.8-3.9,66-10.9,70.7-45.9,119.7-59.4,137.1A298.2,298.2,0,0,1,933.6,778a106.948,106.948,0,0,0,35.9-.7c33.7-6.3,55.1-27,63.3-35.9,2.1-12.2,5.5-31.3,9.8-54.9,10.1-55.2,12.1-61.8,13.7-79C1060.7,560.6,1053.9,520.7,1051.8,520.7Z" fill="#6c6d6d" opacity="0.18"/>
    </g>
    <g id="hand_l">
      <path id="Path_270" data-name="Path 270" d="M734.1,595c-1.9-1.3-5.7-3.7-5.3-5.7.8-3.2,12.3-3.7,20.6-2.3,5.6.9,15.8,3.8,26.5,13.9C763.9,602.6,746.6,603.1,734.1,595Z" fill="#fff" stroke="#191919" stroke-miterlimit="10" stroke-width="2"/>
      <path id="Path_271" data-name="Path 271" d="M1016.4,499.2c-20.1-5.9-43.6,21.2-45.7,23.8-8,9.5-9.9,16.3-17.4,34.7-18.2,45-27.7,67.7-45.7,79.5-16.1,10.6-33,11-37.5,11-18.9-.1-34.5-9.5-64.9-28.3-25.6-15.9-28.2-20.7-43-24.7-7.5-2-29.5-8-46.6,3.7-10.9,7.4-17.6,21.2-14.6,24.7,3.8,4.5,24.2-6.1,24.3-5.7.1.2-5.9,1.9-11.3,6.7-2.7,2.3-7.5,7.3-6.4,9.1,2,3.4,20.2-12.2,36.4-6.4,11,3.9,11.6,14.4,24.5,18.5,7.6,2.4,14.8,1.1,19.4-.2a141.234,141.234,0,0,0,32.9,34.7c9.7,7.2,43.9,32,91.4,28.3,50.4-3.9,81-37.2,90.5-47.5,5.5-5.9,45.4-50.6,39.3-108.8C1041.1,542.8,1037.2,505.4,1016.4,499.2Z" fill="#fff" stroke="#191919" stroke-miterlimit="10" stroke-width="2"/>
      <path id="Path_272" data-name="Path 272" d="M1014.2,499.2c-7.6,2.5,1.9,29.6-5.8,65.1-7.3,34.1-26.5,57.1-35.2,67.6-11.7,14.1-27,32.5-53.1,41.9-35,12.6-74.3,3.7-100.6-12.8-7.8-5-14.4-17.9-31.9-28-7.6-4.4-13.7-6.6-21-9.3-17.6-6.4-33.4-12.2-49.5-7.1-7.7,2.4-14.6,7-14.2,7.8.4.9,9.3-2,17.3-4.7-10.7,10.1-12.7,13.2-12.2,14,.6.8,3.8-1.3,11.3-3.9,8.2-2.9,13.9-4.8,20.5-3.2a24.735,24.735,0,0,1,7.2,3.2c5.5,3.4,6.4,6.7,11.8,10.6a32.576,32.576,0,0,0,7.9,4.2c3.3,1.3,10.3,3.4,20.2,1.6,6.8,9.8,38.3,53.2,93.6,61.2,28.5,4.1,51-2.9,59.9-5.8,48.8-15.8,73.5-53.6,79.9-64.1,19.8-32.4,33.3-83,12.9-119.4C1028.4,509,1019.4,497.5,1014.2,499.2Z" fill="#6c6d6d" opacity="0.25"/>
      <g id="Group_426" data-name="Group 426">
        <g id="Group_425" data-name="Group 425">
          <path id="Path_273" data-name="Path 273" d="M702.8,623.9A45.729,45.729,0,0,1,721.5,612a1.141,1.141,0,0,0-.6-2.2,49.876,49.876,0,0,0-19.7,12.5c-1,1.1.6,2.7,1.6,1.6Z" fill="#191919"/>
        </g>
      </g>
      <g id="Group_428" data-name="Group 428">
        <g id="Group_427" data-name="Group 427">
          <path id="Path_274" data-name="Path 274" d="M706.4,610.5c5.3-5.9,12.7-8.2,20.1-10.3a1.141,1.141,0,0,0-.6-2.2c-7.7,2.3-15.5,4.8-21,10.9a1.1,1.1,0,1,0,1.5,1.6Z" fill="#191919"/>
        </g>
      </g>
      <path id="Path_275" data-name="Path 275" d="M1038.9,542.2a389.475,389.475,0,0,1-17,42.8c-16.1,34.3-30.6,65.2-58.9,87.1-34.9,27-76.7,29.3-100.2,28.2a109.249,109.249,0,0,0,38.9,8.3c66.2,1.4,112.6-61.3,127-89.5a112.742,112.742,0,0,0,10.2-76.9Z" fill="#6c6d6d" opacity="0.29"/>
      <path id="Path_276" data-name="Path 276" d="M746.4,626.3a98.354,98.354,0,0,0,44.7,17c-16.1,5.3-23.6,3.2-27.5,0-2.4-2-4.9-5.7-12.4-12.6C749.3,628.8,747.6,627.3,746.4,626.3Z" fill="#6c6d6d" opacity="0.26"/>
    </g>
    <g id="head">
      <path id="Path_277" data-name="Path 277" d="M861.4,297.5c-1.1,6.4-2.2,12.8-3.1,19.5a556.765,556.765,0,0,0-5.6,76.8c5.5-.6,10.9-1.2,16.4-1.7A67.565,67.565,0,0,0,879.2,436a66.634,66.634,0,0,0,33.7,26.5c-.6,9.8-1.1,19.5-1.7,29.3a234.132,234.132,0,0,1,44.2-31,225.044,225.044,0,0,1,39.3-16.6,100.712,100.712,0,0,1-19.9-39.8c-3.6-15-2.9-27.9-2.2-39.3a181.964,181.964,0,0,1,3.9-28.2c4.7-21.4-7.6-55.3-32.1-67.5C920.2,257.3,884.1,267.5,861.4,297.5Z" fill="#fff" stroke="#161616" stroke-miterlimit="10" stroke-width="2"/>
      <g id="Group_430" data-name="Group 430">
        <g id="Group_429" data-name="Group 429">
          <path id="Path_278" data-name="Path 278" d="M866.8,392.8c2.8-.4,5.7-.7,8.5-1,1-.1,1-1.6,0-1.5-3,.3-5.9.7-8.9,1.1-.9,0-.5,1.5.4,1.4Z" fill="#161616"/>
        </g>
      </g>
      <path id="Path_279" data-name="Path 279" d="M957,313c-12.1,3.1-14.3,13.6-29.6,35.5-15.5,22.2-25.3,36.1-42.8,44.2-11.3,5.2-16.9,3.8-21.9,10.5-8.6,11.6-2.8,30.7,2.3,40.5,5.9,11.3,14.9,18.1,22.3,23.7a101.135,101.135,0,0,0,18.2,10.9c-4.9-7.5-5.2-9.8-4.6-10.5,1.6-1.6,8.4,7,16.4,5.9,2.3-.3,6.4-1.6,15.5-15.9,6.2-9.7,10.4-16.4,13.2-26,6.1-20.6-2.5-26.2,0-53.3.4-4.1,3.2-36.2,14.6-38.3,4.1-.8,8.3,2.6,10.3,5.2,4.2,5.5,3.7,14.3-1.5,21.9,1.7-1.2,18-12.2,17.8-30.1,0-2.8-.1-13.1-7.9-19.8C970.4,309.8,958,312.8,957,313Z" fill="#161616" stroke="#161616" stroke-miterlimit="10" stroke-width="2"/>
      <ellipse id="Ellipse_9" data-name="Ellipse 9" cx="4.2" cy="7.5" rx="4.2" ry="7.5" transform="translate(872.2 343.5)" fill="#161616"/>
      <ellipse id="Ellipse_10" data-name="Ellipse 10" cx="4.2" cy="7.5" rx="4.2" ry="7.5" transform="translate(840.2 347)" fill="#161616"/>
      <g id="Group_432" data-name="Group 432">
        <g id="Group_431" data-name="Group 431">
          <path id="Path_280" data-name="Path 280" d="M838.1,342.2a6.5,6.5,0,0,1,9.9-.4c1.4,1.4,3.5-.8,2.1-2.1a9.657,9.657,0,0,0-14.2.4c-1.1,1.5,1,3.6,2.2,2.1Z" fill="#161616"/>
        </g>
      </g>
      <g id="Group_434" data-name="Group 434">
        <g id="Group_433" data-name="Group 433">
          <path id="Path_281" data-name="Path 281" d="M870.9,337a7.8,7.8,0,0,1,11.1.8c1.3,1.4,3.4-.7,2.1-2.1a11,11,0,0,0-15.4-.8c-1.4,1.2.7,3.3,2.2,2.1Z" fill="#161616"/>
        </g>
      </g>
      <path id="Path_282" data-name="Path 282" d="M858,309.4a81.927,81.927,0,0,1,11.6-31.2c2.7-4.3,8.5-13.4,17.7-19.6,17.6-11.7,44.7-10.8,64.4,3.6,19.3,14.1,28.9,39.3,24.7,64.3Q917.15,318.1,858,309.4Z" fill="#494949"/>
      <g id="Group_436" data-name="Group 436">
        <g id="Group_435" data-name="Group 435">
          <path id="Path_283" data-name="Path 283" d="M793.4,310.3q91.05,11.7,182.2,23.3c5.7.7,5.7-8.3,0-9q-91.05-11.7-182.2-23.3c-5.7-.8-5.7,8.2,0,9Z" fill="#161616"/>
        </g>
      </g>
      <path id="Path_284" data-name="Path 284" d="M909.4,251.3c15.6,3.4,27.4,16,29.4,31.1a37.427,37.427,0,0,1-15,34.8c17.3,2.3,34.7,4.7,52,7a61.34,61.34,0,0,0,.6-19.8,63.552,63.552,0,0,0-17.3-35.2c-3.9-4-17.7-17.4-38.2-18.6A53.714,53.714,0,0,0,909.4,251.3Z" fill="#333"/>
    </g>
  </g>
</svg>
