<svg width="745" height="559" viewBox="0 0 745 559" fill="none" xmlns="http://www.w3.org/2000/svg">
<g clip-path="url(#clip0)">
<path d="M0 0.130005H372.09V372.13C372.09 372.13 372.23 547.35 186.09 558.18V186.18C186.09 186.18 15.33 190.92 0 0.130005Z" fill="white"/>
<path d="M372.09 186.13C372.09 186.13 372.09 0.13 558.09 0.13L744.23 0V186.31L372.09 186.13Z" fill="white"/>
<path d="M651.45 558.11C702.862 558.11 744.54 516.432 744.54 465.02C744.54 413.608 702.862 371.93 651.45 371.93C600.038 371.93 558.36 413.608 558.36 465.02C558.36 516.432 600.038 558.11 651.45 558.11Z" fill="white"/>
</g>
<defs>
<clipPath id="clip0">
<rect width="744.54" height="558.22" fill="white"/>
</clipPath>
</defs>
</svg>
